<svg version="1.2" xmlns="http://www.w3.org/2000/svg" viewBox="0 0 500 500" width="500" height="500">
	<style>
		.s0 { fill: #000000 } 
	</style>
	<path id="&lt;Compound Path&gt;" class="s0" d="m94.64 230.66c-132.62 1.91-107.93 148.39-35.08 152.43 45.28 2.52 63.41-28.33 63.41-28.33-47.21 41.82-105.21-49.9-32.38-68.79 88.27-22.89 141.64 217.17 141.64 217.17-1.35-51.27-44.52-273.84-137.59-272.48zm310.73 0c-93.08-1.36-136.26 221.21-137.59 272.48 0 0 53.35-240.06 141.64-217.17 72.83 18.89 14.83 110.61-32.39 68.79 0 0 18.11 30.85 63.41 28.33 72.85-4.03 97.54-150.51-35.07-152.43zm25.61-43.17c0 0-32.37-31.03-80.93-9.46 0 0 31.04-40.45 8.09-91.7 0 0-50.55 17.68-58.68 62.88 2.68-20.81 9.92-107.83-49.23-149.21h-0.47c-59.13 41.38-51.9 128.4-49.22 149.21-8.13-45.2-58.7-62.88-58.7-62.88-22.92 51.25 8.1 91.7 8.1 91.7-48.56-21.57-80.94 9.46-80.94 9.46 142.99 31.04 182.13 242.81 182.13 242.81 0 0 36.87-211.77 179.85-242.81z"/>
</svg>