<svg version="1.2" xmlns="http://www.w3.org/2000/svg" viewBox="0 0 500 500" width="500" height="500">
	<style>
		.s0 { fill: #000000 } 
	</style>
	<g id="&lt;Group&gt; copy 9">
		<g id="&lt;Group&gt;">
			<path id="&lt;Path&gt;" class="s0" d="m128.37 388.41c-0.44-1.95-1.21-4.21-1.83-5.83-3.27 0.26-6.5 0.52-9.37 0.79 0 0-0.18 1.54-0.36 3.08-0.17 1.55-0.34 3.1-0.34 3.1 1.73-0.18 3.64-0.35 5.63-0.52 1.99-0.15 4.16-0.42 6.27-0.62z"/>
			<path id="&lt;Path&gt;" class="s0" d="m115.65 403.62q-0.17-1.92-0.29-3.78-0.12-1.85-0.13-3.64c-0.01-2.38 0.05-4.57 0.18-6.44q0.01-0.04 0.01-0.09 0.09-1.27 0.22-2.33 0.2-1.73 0.38-3.86l-7.02 7.02c-0.17 3.27-0.17 7.24 0.05 11.43 1.19 0.66 3.7 1.61 6.6 1.69z"/>
			<path id="&lt;Path&gt;" class="s0" d="m249.71 458.85c-4.7-0.12-7.91-0.85-10.2-1.76-2.28-0.98-3.66-2.16-4.77-3.02-1.11-0.87-3.08-2.43-5.31-4.35-2.23-2.02-4.69-4.46-6.86-6.9 0 0-0.64 0.36-1.62 0.89-0.97 0.55-2.27 1.18-3.6 1.82-2.63 1.29-5.36 2.56-5.36 2.56 0 0 1.59 1.71 4.09 4.24q0.95 0.96 2.03 2.04 1.11 1.04 2.33 2.15c1.63 1.48 3.4 3.04 5.21 4.59 0.9 0.76 1.77 1.51 2.63 2.14q1.28 0.94 2.49 1.74 2.41 1.6 4.47 2.66c1.38 0.7 2.63 1.27 3.77 1.59q1.7 0.48 3.03 0.51c2 0.05 4.7 0.12 7.71 0.19v-11.09z"/>
			<path id="&lt;Path&gt;" class="s0" d="m245.88 417.36q-2.07-0.04-4.1 0.48c-1.35 0.35-2.69 0.74-4.04 1.34q-2.02 0.88-4.08 2.14c-0.69 0.4-1.38 0.87-2.08 1.3q-1.04 0.64-2.1 1.34c-1.41 0.94-4.1 2.67-7.57 4.71-1.72 0.94-3.64 1.97-5.67 3.03-2.03 1.04-4.19 2.2-6.35 3.13-4.31 1.92-8.8 3.9-12.48 5.15-3.69 1.32-6.67 2.3-7.95 2.66-5.06 1.27-10.11 4.24-20.3 0.09-3.49-1.49-5.79-2.91-7.59-4.44-1.82-1.52-3.05-3.37-4.4-5.74-1.33-2.4-3.21-6.05-4.53-9.31-1.36-3.21-2.34-5.76-2.34-5.76 0 0-0.73 0.07-1.83 0.19-1.11 0.11-2.55 0.18-4.02 0.27-2.94 0.18-5.95 0.3-5.95 0.3 0 0 1.44 3.68 3.3 8.08 1.89 4.3 4.31 9.21 5.49 11.71 1.22 2.42 2.95 4.93 4.82 7.1 0.93 1.07 1.89 2.09 2.87 2.88 0.99 0.79 1.96 1.42 2.87 1.83 1.82 0.82 3.74 1.69 6.05 2.73 2.36 0.93 5.11 2.02 8.55 3.38 1.71 0.71 3.49 0.95 5.25 1.03 1.77 0.06 3.55-0.1 5.32-0.39q1.33-0.23 2.66-0.55 1.35-0.37 2.7-0.79 2.67-0.85 5.41-1.73c0.91-0.29 2.17-0.7 3.68-1.21 1.52-0.56 3.3-1.24 5.21-2 1.92-0.76 3.98-1.59 6.08-2.47 2.12-0.95 4.28-1.98 6.4-3q1.57-0.77 3.13-1.53 1.54-0.74 3.02-1.57c1.96-1.08 3.8-2.12 5.45-3.07 1.65-0.96 3.11-1.79 4.32-2.57 1.21-0.79 2.18-1.42 2.85-1.86 1.33-0.88 2.55-1.67 3.75-2.34q0.89-0.5 1.78-0.91 0.89-0.4 1.8-0.78c2.43-0.99 5.02-1.48 8.33-1.39q0.08 0 0.16 0.01v-11.36c-0.97-0.03-2.19-0.06-3.87-0.11z"/>
			<path id="&lt;Path&gt;" class="s0" d="m200.37 416.72l-1.21-1.64q-0.62-0.8-1.22-1.62-1.22-1.63-2.5-3-2.56-2.75-5.51-4.02c-1.31-0.51-2.09-0.82-3.19-1.26-0.55-0.21-1.18-0.46-1.99-0.77-0.8-0.34-1.77-0.8-3.03-1.36q-1.88-0.85-3.94-1.15c-1.39-0.17-2.77-0.35-4.24-0.31-2.93 0.01-6.16 0.64-9.46 1.22-1.66 0.31-4.83 0.9-8.8 1.4-1.96 0.22-4.12 0.43-6.41 0.63q-1.73 0.13-3.51 0.28c-1.18 0.07-2.35 0.09-3.54 0.13-2.38 0.08-4.78 0.12-7.09 0.13-1.16 0.03-2.26-0.03-3.33-0.06q-1.62-0.07-3.09-0.13c-3.93-0.19-7.07-0.41-8.35-0.62-2.53-0.36-5.14-0.38-8.12-1.14-1.51-0.36-3-1.01-4.66-1.94-1.64-0.94-3.39-2.2-5.27-3.9l-7.86 7.86c1.47 1.41 3.14 3 5.1 4.87 2.63 2.59 5.99 3.84 9.49 4.65 1.77 0.38 3.55 0.7 5.43 0.86q2.8 0.22 5.68 0.46c1.91 0.15 5.27 0.45 9.43 0.47 2.06 0.04 4.29 0.06 6.57 0.05 1.13 0.01 2.32-0.04 3.5-0.1q1.77-0.09 3.55-0.17c2.36-0.15 4.65-0.26 6.86-0.48 2.23-0.24 4.33-0.49 6.22-0.73 1.9-0.26 3.56-0.46 4.98-0.7 1.42-0.26 2.56-0.48 3.35-0.62 1.56-0.3 2.99-0.55 4.35-0.7 1.37-0.16 2.65-0.2 3.97-0.2 2.62 0.02 5.17 0.62 8.21 1.92 3.07 1.2 5.28 2.79 7.12 4.58 1.86 1.69 3.33 3.64 4.82 5.66 2.99 4.11 8.19 11.26 8.19 11.26 0 0 0.7-0.24 1.76-0.69 1.04-0.44 2.44-1.02 3.83-1.6 2.76-1.17 5.42-2.36 5.42-2.36 0 0-2.2-2.69-4.7-5.88q-0.93-1.2-1.91-2.45c-0.64-0.83-1.25-1.73-1.85-2.55-1.17-1.64-2.25-3.16-3.05-4.28z"/>
			<path id="&lt;Path&gt;" class="s0" d="m242.34 402.97c-0.14 2.88 0.58 5.36 2.47 8.06 1.62 2.33 2.65 3.81 2.96 4.26l1.98 0.07v-6.71q-0.32-0.45-0.49-0.7c-1-1.42-1.8-2.79-1.76-5.2 0.05-3.05 1.53-3.34 2.17-3.32l0.08 0.02v-5.54c-2.85-0.08-4.63 1.55-5.77 3.51-1.13 1.97-1.58 4.26-1.64 5.55z"/>
			<path id="&lt;Path&gt;" class="s0" d="m245.42 414.33l-0.68 0.92h1.27z"/>
			<path id="&lt;Path&gt;" class="s0" d="m246.3 484.62c0.04-2.1 1.26-3.8 2.05-4.54 0 0-1.15-1.22-2.3-2.44-1.12-1.22-2.25-2.44-2.25-2.44-0.49 0.43-1.43 1.25-2.23 2.09-1.98 2.06-3.03 4.16-3.14 6.43-0.07 1.64 0.39 4.03 2.05 6.04 1.65 2.01 4.52 3.65 9.12 3.74q0.07 0 0.15 0v-5.53c-1.7-0.05-3.49-0.95-3.45-3.35z"/>
			<path id="&lt;Path&gt;" class="s0" d="m243.05 471.86c1.41 1.54 5.02 5.33 6.7 6.99v-6.8z"/>
			<path id="&lt;Path&gt;" class="s0" d="m140.41 385.21q-0.5-1.99-0.99-3.96-0.51-1.96-1.18-3.72-0.66-1.75-1.56-3.2-0.84-1.51-2-2.63c-1.38-1.32-2.02-1.92-3.52-3.36l-8.04 8.04c2.29 2.24 3.7 4.49 4.67 6.82 1.02 2.27 1.65 4.55 2.25 6.95 0.31 1.21 0.62 2.69 0.97 4.18 0.37 1.49 0.74 3.01 1.08 4.39 0.68 2.8 1.21 4.97 1.21 4.97q0.01 0 0.51 0.02c0.33 0.01 0.79 0.04 1.36 0.04 1.14-0.01 2.65-0.01 4.16-0.02 3-0.03 5.92-0.11 5.92-0.11 0 0-1-3.32-2.09-7.22q-0.41-1.47-0.83-3-0.37-1.56-0.73-3.07c-0.46-1.96-0.88-3.78-1.19-5.12z"/>
			<path id="&lt;Path&gt;" class="s0" d="m136.21 370.28c0.22-1.83 0.85-6.19 1.18-8.17l-4.74 4.74z"/>
			<path id="&lt;Path&gt;" class="s0" d="m138.04 367.44c0.56-0.08 1.61-0.24 2.59-0.5 2.41-0.62 4.29-1.76 5.82-3.44 1.11-1.21 2.43-3.24 2.99-5.42 0.56-2.19 0.39-4.51-1.6-6.38l-0.03-0.01-3.91 3.91c0.73 0.75 0.92 2.13-0.72 3.82-1.46 1.5-3.25 2.18-4.18 2.35 0 0-0.25 1.41-0.49 2.81-0.24 1.43-0.47 2.86-0.47 2.86z"/>
			<path id="&lt;Path&gt;" class="s0" d="m92.02 423.28c1.94-2.14 2.68-4.84 2.5-8.67-0.15-3.25-0.13-5.28-0.12-5.89l-1.84-1.78-4.81 4.81q0.02 0.54 0.02 0.84c0.07 1.99 0.01 3.8-1.67 5.53-2.12 2.19-4.05 0.8-4.78 0.1l-0.02-0.02-3.9 3.9c3.46 3.28 6.72 4.07 9.28 3.77 2.57-0.29 4.48-1.64 5.34-2.59z"/>
			<path id="&lt;Path&gt;" class="s0" d="m97.36 411.49l-1.25-1.15-0.03 1.22z"/>
			<path id="&lt;Path&gt;" class="s0" d="m184.46 401.96c0 0 0.39 0.19 0.98 0.45 0.6 0.24 1.41 0.56 2.21 0.88 1.6 0.64 3.2 1.28 3.2 1.28-0.28-1.04-0.78-2.96-1.22-4.76-0.43-1.78-0.83-3.46-0.97-4.07-0.4-1.65-0.58-3.27 0.37-5.47 1.22-2.79 2.68-2.47 3.28-2.27 0.99 0.39 1.74 1.61 0.85 3.86-0.77 1.94-2.17 3.25-2.96 3.76 0 0 0.31 1.4 0.61 2.8 0.33 1.41 0.65 2.82 0.65 2.82 0.48-0.28 1.39-0.83 2.2-1.44 1.98-1.46 3.3-3.31 4.07-5.44 0.56-1.56 0.98-3.87 0.68-6.11-0.31-2.24-1.35-4.33-3.88-5.31q-0.5-0.19-0.97-0.3-0.47-0.14-0.92-0.19-0.91-0.1-1.74 0.08c-1.12 0.22-2.14 0.77-3.04 1.45-1.79 1.38-3.09 3.33-3.64 4.5-1.24 2.61-1.53 5.18-0.84 8.4 0.59 2.78 0.97 4.55 1.08 5.08z"/>
			<path id="&lt;Path&gt;" class="s0" d="m182.67 400.16l-0.98 0.58 1.17 0.51z"/>
			<path id="&lt;Path&gt;" class="s0" d="m166.9 456.04c0 0-0.54-0.21-1.35-0.54-0.8-0.33-1.89-0.73-2.94-1.21-2.12-0.97-4.23-1.93-4.23-1.93 0.42 1.14 1.21 3.25 1.99 5.26 0.77 2.03 1.58 3.84 1.88 4.52 0.83 1.82 1.46 3.53 0.57 5.77-1.12 2.83-3.44 2.27-4.38 1.89-1.6-0.6-2.91-2.19-1.95-4.39 0.83-1.92 2.62-3.02 3.63-3.39 0 0-0.59-1.58-1.19-3.15-0.57-1.56-1.13-3.13-1.13-3.13-0.63 0.2-1.81 0.6-2.88 1.06-2.61 1.13-4.39 2.67-5.37 4.72-0.7 1.48-1.19 3.87-0.43 6.37 0.38 1.25 1.08 2.53 2.2 3.73q0.85 0.91 2.04 1.74c0.79 0.55 1.71 1.07 2.79 1.48 4.5 1.8 7.86 1.31 10.14 0.07 2.28-1.24 3.56-3.31 3.99-4.5 0.49-1.36 0.65-2.72 0.47-4.17q-0.27-2.17-1.49-4.78c-1.38-2.96-2.13-4.84-2.36-5.42z"/>
			<path id="&lt;Path&gt;" class="s0" d="m170.7 457.5l-1.6-0.6 0.44 1.15z"/>
			<path id="&lt;Path&gt;" class="s0" d="m235.52 453.49c1.52 1.52 4.01 2.94 5.9 3.43 2.91-2.6 5.55-5.2 7.67-7.52 0 0-1.03-1.25-2.06-2.49-1-1.25-2-2.49-2-2.49-1.23 1.37-2.69 2.88-4.3 4.45q-0.61 0.58-1.23 1.18-0.64 0.57-1.29 1.15-1.31 1.14-2.69 2.29z"/>
			<path id="&lt;Path&gt;" class="s0" d="m249.67 438.84l-0.05-0.06c-1.94-2.37-4.28-5.11-6.66-7.89-0.74 0.17-1.84 0.61-2.92 1.07-1.08 0.45-2.15 0.98-2.79 1.44 3.06 3.85 6.19 7.34 8.47 10.24q0.79 0.98 1.42 1.84 1.07 1.45 2.59 3.21l0.02 0.02v-9.77z"/>
			<path id="&lt;Path&gt;" class="s0" d="m217.61 465.55c-1.02 0.51-2.76 0.73-4.76 0.79-2 0.05-4.25-0.1-6.27-0.47-1.01-0.16-2.04-0.47-3.06-0.82q-1.53-0.52-2.91-1.15c-1.83-0.83-3.34-1.75-4.11-2.55-1.14-1.15-2.6-3.09-4.21-5.35-1.73 0.58-4.81 1.53-6.83 1.7 2.16 3.15 4.21 5.81 5.73 7.49 0.74 0.8 1.68 1.62 2.78 2.33 1.1 0.7 2.34 1.35 3.63 1.94 1.3 0.58 2.65 1.1 3.97 1.54 1.32 0.44 2.6 0.83 3.79 1.02 2.37 0.43 5.31 0.68 8.14 0.62q1.06-0.02 2.1-0.12 1.03-0.13 2-0.33c1.29-0.26 2.47-0.62 3.46-1.08 1.09-0.5 2.43-1.21 3.94-2.08q1.13-0.65 2.36-1.41 1.24-0.81 2.55-1.71c0 0-0.35-0.26-0.87-0.64-0.51-0.4-1.2-0.88-1.88-1.44-1.34-1.09-2.68-2.19-2.68-2.19-2.73 1.73-5.17 3.11-6.87 3.91z"/>
			<path id="&lt;Path&gt;" class="s0" d="m208.14 414.59c0.86-0.43 2.26-0.67 3.81-0.72q1.18-0.04 2.41 0.07c0.81 0.07 1.61 0.22 2.38 0.33q0.33 0.07 0.68 0.14 0.28 0.07 0.58 0.14 0.54 0.13 1.08 0.31c1.18 0.37 2.33 0.86 3.31 1.4 0.97 0.54 1.78 1.12 2.27 1.63 1.07 1.16 2.56 3.01 4.33 5.26 0.72-0.5 1.64-1.09 2.53-1.63 0.89-0.54 1.76-1.15 2.41-1.55q-0.85-1.04-1.64-2.01-0.78-0.98-1.48-1.86-1.4-1.75-2.4-2.87c-0.79-0.87-1.83-1.63-2.98-2.27-1.16-0.65-2.41-1.31-3.66-1.77q-0.01 0-0.01 0-0.54-0.21-1.08-0.38-1.02-0.34-1.98-0.53-0.33-0.07-0.64-0.13c-0.85-0.12-1.79-0.3-2.78-0.39q-1.49-0.14-3.06-0.07-1.57 0.06-3.06 0.38c-0.98 0.2-1.89 0.44-2.7 0.82-1.69 0.79-4.23 2.2-7.3 3.95 1.03 1.11 2.51 3.05 3.58 4.64q1.68-0.95 3.04-1.67 1.38-0.72 2.36-1.22z"/>
			<path id="&lt;Path&gt;" class="s0" d="m190.43 424.26c-0.58-0.82-1.26-1.68-1.94-2.49-0.69-0.8-1.39-1.54-1.99-2.17-2.91 1.48-5.79 2.94-8.33 4.27 0 0 0.41 1.5 0.82 2.99 0.44 1.51 0.87 3.01 0.87 3.01 1.53-0.82 3.22-1.69 5-2.61 1.79-0.96 3.67-1.97 5.57-3z"/>
			<path id="&lt;Path&gt;" class="s0" d="m158.61 432.46c0.34 0.84 0.82 1.85 1.42 2.86 0.6 1 1.34 1.92 2.13 2.69 3.85-1.34 7.43-2.74 10.4-4.16 0 0-0.12-0.37-0.3-0.94-0.17-0.57-0.39-1.34-0.61-2.1-0.43-1.53-0.85-3.05-0.85-3.05-1.65 0.78-3.55 1.61-5.63 2.43-1.03 0.4-2.12 0.83-3.21 1.2q-1.64 0.55-3.35 1.07z"/>
			<path id="&lt;Path&gt;" class="s0" d="m173.33 433.57c1.08 3.1 2.59 6.78 4.39 10.59 1.36 0.14 4.05 0.04 6.76-0.98-1.19-2.28-2.29-4.54-3.23-6.68-0.92-2.2-1.69-4.25-2.29-6.04q0-0.04-0.02-0.08-0.4-1.21-0.69-2.25-0.46-1.68-1.11-3.72l-0.03-0.08c-0.96-3.07-2.11-6.71-3.3-10.48-0.82-0.05-2.03 0.06-3.21 0.17-1.16 0.09-2.29 0.21-2.98 0.29q0.52 1.78 1.03 3.53 0.54 1.73 1.05 3.37c0.68 2.19 1.32 4.27 1.83 6.1q0.02 0.04 0.03 0.08 0.36 1.28 0.63 2.37c0.28 1.12 0.65 2.4 1.11 3.73q0.01 0.04 0.03 0.08z"/>
			<path id="&lt;Path&gt;" class="s0" d="m148.24 386.11c1.93-0.13 5.52 1.25 8.07 3.02 2.64 1.66 5.21 4.55 5.85 6.33 0.54 1.46 1.19 3.75 1.95 6.53 0.97-0.28 2.03-0.5 3.03-0.66 1.01-0.17 2-0.36 2.78-0.47q-0.37-1.27-0.72-2.45-0.33-1.19-0.63-2.25-0.6-2.12-1.08-3.5-0.47-1.28-1.32-2.5-0.43-0.61-0.92-1.2-0.47-0.62-0.99-1.21c-1.39-1.56-3-2.9-4.45-3.82-1.42-0.96-3.25-1.99-5.22-2.68-0.97-0.37-2-0.62-2.96-0.84q-1.46-0.34-2.81-0.29-1.48 0.07-3.66 0.3c-1.44 0.13-3.14 0.38-4.88 0.52q0.13 0.51 0.31 1.18 0.18 0.66 0.4 1.42c0.28 1.01 0.57 2.13 0.79 3.17 2.7-0.31 4.93-0.53 6.46-0.6z"/>
			<path id="&lt;Path&gt;" class="s0" d="m137.3 436.73c-2.25 0.09-6.86-1.74-10.31-3.95q-0.38-0.24-0.74-0.51-0.31-0.25-0.62-0.49l-0.62-0.51q-0.25-0.21-0.52-0.44-0.45-0.4-0.9-0.81c-2.04-1.92-3.71-3.98-4.25-5.36-0.62-1.72-1.33-4.34-2.01-7.4-0.63-0.06-1.76-0.15-3.01-0.26-1.26-0.12-2.65-0.27-3.76-0.47 0.35 2.06 0.82 3.87 1.25 5.52 0.43 1.64 0.86 3.06 1.26 4.17 0.64 1.75 1.85 3.75 3.44 5.53l0.72 0.78q0.94 1.03 1.97 1.97 0.6 0.56 1.19 1.07 1.14 0.98 2.25 1.8 0.37 0.29 0.75 0.53c2.02 1.31 4.64 2.67 7.28 3.7q0.99 0.39 1.97 0.7 1 0.29 1.97 0.48c1.3 0.25 2.52 0.38 3.62 0.33 1.17-0.04 2.64-0.17 4.32-0.39q1.26-0.15 2.66-0.37 1.41-0.25 2.93-0.57c-0.5-0.89-1.08-1.9-1.59-2.99-0.52-1.08-1-2.16-1.39-3.03-3.2 0.55-5.98 0.88-7.86 0.97z"/>
		</g>
		<g id="&lt;Group&gt;">
			<path id="&lt;Path&gt;" class="s0" d="m65.87 261.97c0.53-0.84 1.06-1.8 1.53-2.74 0.52-0.95 0.98-1.88 1.31-2.67-2.5-2.13-4.97-4.23-7.19-6.07 0 0-1.22 0.96-2.43 1.91-1.22 0.98-2.43 1.96-2.43 1.96 2.72 2.19 5.81 4.92 9.21 7.61z"/>
			<path id="&lt;Path&gt;" class="s0" d="m46.12 263.72c3.2-3.94 6.84-7.5 9.65-9.96q0.03-0.02 0.06-0.06 0.96-0.83 1.8-1.49 1.37-1.08 2.99-2.46h-9.91c-2.44 2.19-5.24 5-8.05 8.11 0.21 0.65 0.55 1.59 1.1 2.63 0.58 1.04 1.36 2.18 2.36 3.23z"/>
			<path id="&lt;Path&gt;" class="s0" d="m101.87 397.57c-3.25-3.4-5.01-6.18-5.97-8.45-0.9-2.33-1.07-4.12-1.24-5.51-0.08-0.7-0.2-1.67-0.33-2.84-0.12-1.17-0.28-2.5-0.33-4.01-0.14-3-0.19-6.44 0-9.69q-0.01-0.01-0.49-0.14-0.48-0.14-1.27-0.4c-1.04-0.34-2.43-0.8-3.82-1.27-2.79-0.94-5.63-1.96-5.63-1.96 0 0-0.07 2.33-0.08 5.87 0.01 1.76-0.01 3.87 0.09 6.07 0.12 2.19 0.27 4.54 0.46 6.9 0.34 4.75 1.21 8.47 2.15 11.42q0.71 2.2 1.53 3.79 0.85 1.55 1.78 2.51c1.38 1.45 3.25 3.41 5.33 5.59l7.85-7.85z"/>
			<path id="&lt;Path&gt;" class="s0" d="m128.49 365.54q-1.43-1.49-3.23-2.54-1.74-1.13-3.79-1.93-2.07-0.8-4.42-1.36c-1.55-0.4-3.12-0.78-4.8-1.1-0.83-0.17-2.03-0.42-3.52-0.76q-1.12-0.26-2.43-0.56c-0.87-0.21-1.75-0.47-2.71-0.74-3.78-1.08-8.46-2.42-12.87-4.13-2.23-0.83-4.49-1.69-6.62-2.56-2.08-0.9-4.06-1.79-5.85-2.62-1.79-0.83-3.41-1.58-4.69-2.23-1.25-0.66-2.21-1.19-2.79-1.52-2.29-1.33-4.81-2.36-7.36-4.31-1.22-0.99-2.45-2.22-3.66-3.83q-0.9-1.2-1.78-2.71-0.45-0.76-0.87-1.61-0.39-0.86-0.77-1.81c-1.38-3.53-2.13-6.11-2.28-8.49-0.11-2.4 0.26-4.55 0.96-7.17q0.27-0.99 0.63-2.18 0.34-1.19 0.82-2.49c0.62-1.73 1.31-3.52 1.94-5.13 0.64-1.61 1.23-3.04 1.66-4.07 0.42-1.02 0.73-1.65 0.73-1.65 0 0-2.21-1.87-4.43-3.82-1.12-0.99-2.24-1.98-3.07-2.72q-0.64-0.58-1.02-0.92-0.37-0.34-0.37-0.35c0 0-0.11 0.23-0.28 0.64q-0.26 0.63-0.72 1.72c-0.61 1.46-1.44 3.47-2.32 5.67q-0.66 1.68-1.34 3.4c-0.43 1.15-0.81 2.28-1.19 3.36-0.75 2.19-1.41 4.13-1.85 5.41-0.44 1.29-0.85 2.71-1.12 4.14-0.26 1.42-0.44 2.88-0.53 4.3-0.16 2.84-0.02 5.55 0.7 7.41 0.73 1.86 1.5 3.82 2.43 6.18 0.48 1.17 0.94 2.47 1.57 3.85q0.93 2.06 2.07 4.58 1.14 2.53 2.93 4.47c1.22 1.29 2.61 2.42 4.09 3.46 1.48 1.03 3.07 1.96 4.69 2.87 1.65 0.88 3.39 1.7 5.08 2.57 0.85 0.43 2.05 1.03 3.49 1.73q1.08 0.51 2.33 1.11c0.83 0.4 1.77 0.78 2.72 1.19 1.9 0.81 3.96 1.66 6.09 2.51 1.07 0.43 2.12 0.87 3.24 1.27q1.67 0.58 3.36 1.17c2.24 0.76 4.44 1.49 6.54 2.16 2.12 0.65 4.19 1.18 6.03 1.68 1.85 0.48 3.5 0.9 4.88 1.24 1.37 0.35 2.55 0.55 3.32 0.71 3.13 0.61 5.69 1.25 8.03 2.33 2.42 1.02 4.6 2.5 6.88 4.9l0.1 0.12 8.04-8.04c-0.67-0.7-1.51-1.58-2.67-2.8z"/>
			<path id="&lt;Path&gt;" class="s0" d="m96.74 332.9c0.49-2.73 0.92-5.45 0.95-7.93q0.02-0.93-0.04-1.81c-0.03-0.6-0.06-1.19-0.13-1.76q-0.21-1.71-0.86-3.18c-0.58-1.28-0.93-2.04-1.42-3.12-0.44-1.1-0.99-2.51-2-5.07-1.08-2.54-2.61-4.79-4.76-6.82q-0.8-0.76-1.7-1.49-0.91-0.72-1.84-1.46-1.86-1.45-4-2.86c-1.41-0.95-4.14-2.76-7.19-5.24-1.56-1.22-3.26-2.6-5.04-4.07-0.91-0.74-1.76-1.51-2.62-2.3q-1.31-1.2-2.62-2.4c-1.73-1.63-3.53-3.29-5.12-4.92-1.56-1.63-3.05-3.22-4.39-4.68-1.33-1.46-2.53-2.78-3.46-3.87-0.9-1.09-1.58-1.95-1.98-2.48-1.55-2.03-3.39-3.91-4.97-6.55-1.49-2.64-2.61-6.07-2.87-11.14h-11.12c0.05 2.03 0.1 4.33 0.17 7.03q0.04 1.39 0.28 2.7 0.22 1.31 0.71 2.55c0.63 1.65 1.46 3.23 2.43 4.75 0.97 1.53 2.06 3 3.21 4.46 1.18 1.45 2.47 2.88 3.7 4.34 0.62 0.73 1.49 1.73 2.55 2.93 1.08 1.2 2.27 2.6 3.75 4.08 1.45 1.48 3.03 3.07 4.67 4.67q1.22 1.2 2.49 2.42c0.84 0.81 1.76 1.6 2.64 2.38 3.57 3.13 6.99 6.1 10.12 8.39 3.07 2.32 5.45 4.09 6.79 4.97 2.66 1.77 4.81 3.32 6.55 5.23 0.85 0.96 1.71 1.96 2.45 3.13 0.75 1.16 1.42 2.48 2.03 4.02 0.57 1.55 1.06 2.95 1.36 4.32q0.43 2.03 0.45 3.94c0 2.58-0.25 4.95-0.61 7.43-0.33 2.45-1.03 5.92-1.4 8.7-0.42 2.84-0.75 5.04-0.75 5.04 0 0 0.69 0.31 1.71 0.77q0.78 0.34 1.75 0.77 1 0.4 2.07 0.82c2.8 1.11 5.55 2.14 5.55 2.14 0 0 0.32-3.44 0.77-7.44 0.53-4.07 1.34-8.73 1.74-11.39z"/>
			<path id="&lt;Path&gt;" class="s0" d="m136.17 352.87c-2.14 1.95-3.38 4.21-3.96 7.45-0.5 2.78-0.82 4.55-0.91 5.09l1.35 1.44 4.74-4.74q0.1-0.54 0.15-0.83c0.3-1.72 0.7-3.25 2.44-4.93 2.19-2.12 3.44-1.28 3.87-0.81l0.05 0.06 3.91-3.91c-1.95-2.07-4.36-2.17-6.56-1.58-2.18 0.59-4.13 1.9-5.08 2.76z"/>
			<path id="&lt;Path&gt;" class="s0" d="m130.31 363.07l-1.13 0.17 0.89 0.9z"/>
			<path id="&lt;Path&gt;" class="s0" d="m81.23 413.39c1.5-1.46 3.57-1.8 4.65-1.76 0 0 0.05-1.68 0.1-3.35 0.07-1.66 0.14-3.32 0.14-3.32-0.66-0.05-1.9-0.13-3.07-0.1-2.85 0.06-5.09 0.8-6.77 2.32-1.22 1.11-2.57 3.13-2.82 5.72-0.25 2.59 0.63 5.78 3.82 9.1q0.06 0.05 0.12 0.1l3.9-3.9c-1.17-1.24-1.8-3.14-0.07-4.81z"/>
			<path id="&lt;Path&gt;" class="s0" d="m87.95 402.07c-0.1 2.08-0.21 7.32-0.2 9.68l4.81-4.81z"/>
			<path id="&lt;Path&gt;" class="s0" d="m76.62 268.23c1.46-2.33 2.94-4.68 3.93-6.96 0.51-1.14 0.86-2.26 1.17-3.37q0.47-1.67 0.44-3.28c-0.05-1.91-0.07-2.79-0.13-4.87h-11.36c0.04 3.21-0.56 5.8-1.51 8.13-0.5 1.17-0.97 2.26-1.54 3.33q-0.84 1.6-1.79 3.18c-0.64 1.07-1.44 2.33-2.27 3.64q-0.64 0.99-1.22 1.96-0.59 0.99-1.14 1.9c-1.48 2.46-2.63 4.37-2.63 4.37 0 0 0.51 0.54 1.28 1.36q0.58 0.63 1.32 1.39 0.77 0.75 1.59 1.55c2.17 2.1 4.32 4.1 4.32 4.1 0 0 1.61-3.06 3.56-6.58 0.99-1.76 2.19-3.66 3.24-5.39 1.05-1.71 2.02-3.29 2.74-4.46z"/>
			<path id="&lt;Path&gt;" class="s0" d="m84.24 254.7c1.45-1.14 4.98-3.78 6.61-4.95h-6.71z"/>
			<path id="&lt;Path&gt;" class="s0" d="m87.55 253.98c0.45 0.34 1.31 0.98 2.19 1.49 2.14 1.27 4.28 1.8 6.55 1.69 1.64-0.08 4-0.58 5.94-1.73 1.94-1.15 3.46-2.91 3.37-5.65l-0.01-0.03h-5.54c0 1.05-0.84 2.16-3.2 2.2-2.09 0.03-3.84-0.76-4.62-1.3 0 0-1.17 0.82-2.34 1.64-1.17 0.85-2.34 1.69-2.34 1.69z"/>
			<path id="&lt;Path&gt;" class="s0" d="m15.53 260.9c2.88-0.13 5.31-1.52 7.89-4.35 2.19-2.4 3.64-3.82 4.08-4.25l-0.05-2.55h-6.8q-0.37 0.39-0.58 0.61c-1.36 1.45-2.68 2.68-5.09 2.72-3.05 0.05-3.43-2.29-3.45-3.3v-0.03h-5.53c0.14 4.76 1.89 7.61 3.92 9.21 2.02 1.61 4.33 2 5.61 1.94z"/>
			<path id="&lt;Path&gt;" class="s0" d="m27.63 256.36l-0.07-1.7-0.88 0.84z"/>
			<path id="&lt;Path&gt;" class="s0" d="m95.97 311.18c0 0 0.63 1.61 1.25 3.22 0.71 1.57 1.41 3.15 1.41 3.15 0.53-0.93 1.51-2.64 2.45-4.21 0.46-0.79 0.94-1.55 1.36-2.19 0.4-0.63 0.72-1.14 0.89-1.41 0.93-1.46 1.88-2.71 4.13-3.6 2.83-1.12 3.68 0.13 3.9 0.72 0.37 1 0.07 2.38-2.15 3.34-1.91 0.83-3.86 0.79-4.75 0.57 0 0-0.21 0.31-0.5 0.75-0.28 0.46-0.66 1.06-1.04 1.66-0.76 1.22-1.51 2.45-1.51 2.45 0.54 0.14 1.59 0.38 2.59 0.52 2.48 0.34 4.66 0.01 6.71-0.96 1.49-0.7 3.48-2.07 4.83-3.86 0.67-0.9 1.18-1.9 1.39-2.98q0.15-0.81 0.05-1.68-0.12-0.87-0.46-1.83c-1.03-2.65-3.24-3.66-5.5-3.95-2.24-0.29-4.5 0.15-5.72 0.59-2.71 0.97-4.82 2.61-6.55 5.36-1.52 2.37-2.48 3.88-2.78 4.34z"/>
			<path id="&lt;Path&gt;" class="s0" d="m95.94 308.65l-1.11-0.27 0.49 1.17z"/>
			<path id="&lt;Path&gt;" class="s0" d="m45.27 337.07q-0.01-0.01-0.16-0.37-0.17-0.35-0.41-0.97c-0.31-0.81-0.73-1.89-1.16-2.97-0.84-2.16-1.68-4.33-1.68-4.33-0.5 1.1-1.42 3.14-2.26 5.11-0.85 1.97-1.63 3.86-1.9 4.55-0.77 1.9-1.47 3.53-3.69 4.49-1.4 0.6-2.42 0.4-3.14-0.07-0.71-0.47-1.08-1.23-1.27-1.69-0.64-1.6-0.51-3.62 1.74-4.51 1.95-0.76 4-0.28 4.99 0.16 0 0 0.68-1.52 1.36-3.05 0.69-1.51 1.38-3.01 1.38-3.01-0.59-0.3-1.72-0.85-2.81-1.27q-2.01-0.78-3.74-0.92-1.76-0.12-3.36 0.45c-1.53 0.55-3.61 1.91-4.85 4.22-1.21 2.29-1.6 5.57 0.11 9.87 0.86 2.26 2.11 3.85 3.34 5 1.24 1.15 2.56 1.83 3.81 2.19 2.52 0.73 4.82 0.2 5.99-0.35 2.61-1.23 4.31-3.44 5.6-7.05 1.09-3.06 1.87-4.92 2.11-5.48z"/>
			<path id="&lt;Path&gt;" class="s0" d="m46.97 340.76l-0.72-1.54-0.49 1.12z"/>
			<path id="&lt;Path&gt;" class="s0" d="m95.62 383.75c0 1.07 0.2 2.29 0.51 3.47q0.23 0.89 0.54 1.7 0.33 0.79 0.69 1.43c3.9 0.22 7.61 0.25 10.75 0.1 0 0 0.15-1.6 0.3-3.21 0.17-1.59 0.34-3.17 0.34-3.17-1.84 0.1-3.93 0.14-6.18 0.11-2.24-0.05-4.56-0.22-6.95-0.43z"/>
			<path id="&lt;Path&gt;" class="s0" d="m115.98 383.4l0.01-0.08c0.3-3.04 0.59-6.63 0.86-10.27-1.32-0.77-4.21-2.02-5.8-2.28q-0.18 1.83-0.36 3.61-0.09 0.9-0.18 1.77-0.07 0.86-0.13 1.7c-0.19 2.23-0.38 4.33-0.59 6.15q-0.13 1.26-0.29 2.3-0.27 1.79-0.44 4.11v0.03l6.91-6.91z"/>
			<path id="&lt;Path&gt;" class="s0" d="m74.43 379.61c-1.03-0.41-2.45-1.45-3.91-2.82q-1.11-1.04-2.18-2.25c-0.7-0.8-1.39-1.63-1.93-2.5-1.11-1.73-2.11-3.75-2.83-5.62-0.73-1.86-1.16-3.56-1.09-4.7 0.08-1.67 0.34-4.03 0.8-6.76-0.83-0.41-1.96-0.98-3.08-1.61-1.13-0.63-2.16-1.37-2.92-2.03q-0.29 1.43-0.53 2.76-0.22 1.32-0.36 2.5c-0.2 1.58-0.32 2.97-0.37 4.09-0.05 1.09 0.08 2.32 0.33 3.61 0.25 1.29 0.62 2.65 1.15 3.96 1.03 2.64 2.39 5.25 3.69 7.28 0.64 1.02 1.49 2.05 2.39 3.11 0.91 1.05 1.91 2.09 2.94 3.06 1.03 0.97 2.1 1.87 3.17 2.62 1.1 0.72 2.2 1.3 3.23 1.67 2.28 0.81 5.79 1.8 9.92 2.59 0 0-0.06-0.43-0.16-1.07-0.07-0.64-0.17-1.51-0.27-2.37-0.18-1.72-0.37-3.43-0.37-3.43-3.15-0.71-5.9-1.42-7.62-2.09z"/>
			<path id="&lt;Path&gt;" class="s0" d="m103.78 336.87c0.45 0.16 0.93 0.46 1.49 0.83q0.83 0.57 1.71 1.37c1.15 1.05 2.28 2.35 3.11 3.67q0.18 0.28 0.36 0.59 0.14 0.25 0.3 0.51 0.3 0.48 0.56 0.98c1.16 2.18 1.92 4.62 1.82 6.08-0.11 1.62-0.32 3.94-0.66 6.79 1.77 0.29 4.22 0.93 5.73 1.26 0.41-3.63 0.79-6.72 0.86-8.68q0.04-0.88-0.1-1.81-0.07-0.47-0.17-0.94-0.09-0.49-0.21-0.98c-0.31-1.31-0.78-2.62-1.34-3.83q-0.01-0.01-0.01-0.01-0.24-0.53-0.51-1.02-0.5-0.96-1.03-1.78-0.18-0.28-0.34-0.56c-0.93-1.45-2.27-3.06-3.83-4.45-0.8-0.68-1.57-1.36-2.39-1.92q-1.22-0.86-2.5-1.32-1.34-0.48-3.39-1.06-2.07-0.58-4.54-1.33c-0.05 0.77-0.19 1.78-0.33 2.81-0.13 1.02-0.29 2.09-0.46 3.03 2.49 0.68 4.53 1.27 5.87 1.77z"/>
			<path id="&lt;Path&gt;" class="s0" d="m84.39 331.2c0.28-1.95 0.58-4.39 0.56-6.09-3.18-1.02-6.26-1.99-8.96-2.85 0 0-0.81 1.35-1.54 2.7-0.74 1.37-1.49 2.74-1.49 2.74 1.67 0.49 3.51 1.06 5.43 1.66q1.44 0.45 2.93 0.93c0.99 0.31 2.04 0.6 3.07 0.91z"/>
			<path id="&lt;Path&gt;" class="s0" d="m56.11 314.5c-0.69 1.66-1.45 4.24-1.46 6.45 3.68 1.77 7.29 3.28 10.36 4.39 0 0 0.76-1.4 1.51-2.8 0.76-1.38 1.53-2.75 1.53-2.75-1.72-0.61-3.72-1.34-5.72-2.25-1.99-0.9-4.1-1.93-6.22-3.04z"/>
			<path id="&lt;Path&gt;" class="s0" d="m65.74 325.69q-0.56 1.12-1.14 2.36-0.53 1.24-1.08 2.57-1.09 2.68-2.13 5.66c0.9 1.03 2.71 2.95 5.42 4.1 0.38-1.23 0.75-2.42 1.18-3.6q0.65-1.78 1.31-3.43c0.89-2.2 1.77-4.19 2.6-5.87q0.02-0.03 0.04-0.08 0.56-1.13 1.09-2.06 0.83-1.53 1.88-3.44l0.04-0.07c1.54-2.89 3.27-6.31 5.02-9.74-1.07-1.23-3.55-3.2-4.66-4.07-1.18 2.18-2.34 4.34-3.44 6.37-1.08 2.04-2.06 3.94-2.98 5.6q-0.01 0.04-0.04 0.07-0.64 1.17-1.21 2.13-0.88 1.48-1.86 3.42z"/>
			<path id="&lt;Path&gt;" class="s0" d="m81.56 274.4c0.35 0.32 0.68 0.79 1.04 1.34q0.56 0.85 1.06 1.92c0.66 1.41 1.2 3.05 1.47 4.58 0.22 1.54 0.45 3.24 0.38 4.8-0.05 1.55-0.3 2.94-0.72 3.8-0.75 1.44-1.85 3.5-3.26 6 1.79 0.97 3.65 2.35 4.88 3.32 1.81-3.17 3.28-5.8 4.08-7.53 0.71-1.6 1.14-3.68 1.23-5.76q0.07-1.56-0.08-3.06-0.07-0.74-0.18-1.44-0.07-0.7-0.18-1.33c-0.3-1.7-0.92-3.7-1.83-5.58-0.48-0.93-0.91-1.86-1.45-2.69q-0.81-1.27-1.81-2.19-1.09-0.99-2.82-2.37c-0.56-0.46-1.2-0.95-1.81-1.47q-0.95-0.77-1.97-1.62c-0.35 0.59-0.84 1.43-1.38 2.35-0.51 0.91-1.09 1.9-1.67 2.79 2.15 1.69 3.9 3.11 5.02 4.14z"/>
			<path id="&lt;Path&gt;" class="s0" d="m38.02 302.45c-0.8-0.77-1.72-2.28-2.55-4.11-0.81-1.83-1.62-3.96-1.94-5.98q-0.07-0.44-0.15-0.89-0.05-0.39-0.1-0.78l-0.08-0.8q-0.03-0.33-0.06-0.67-0.05-0.61-0.08-1.22c-0.1-2.8 0.13-5.43 0.81-6.79 0.78-1.66 2.11-4.02 3.79-6.66-0.42-0.49-1.15-1.35-1.97-2.31-0.81-0.97-1.61-2.07-2.28-3q-0.88 1.28-1.67 2.49c-0.53 0.8-0.96 1.57-1.39 2.3-0.84 1.47-1.54 2.77-2.03 3.84-0.8 1.69-1.29 3.95-1.52 6.35q-0.02 0.53-0.04 1.06-0.05 1.39 0.02 2.79 0.04 0.81 0.1 1.59 0.12 1.51 0.34 2.87 0.07 0.46 0.14 0.91 0.17 0.89 0.39 1.85 0.26 0.96 0.6 1.95c0.44 1.32 0.96 2.67 1.54 3.96 1.17 2.59 2.57 4.97 4.24 6.43 1.75 1.59 4.59 3.79 7.96 6.08 0.56-1.98 1.5-4.6 2.17-6.38-2.68-1.86-4.93-3.58-6.24-4.88z"/>
		</g>
		<g id="&lt;Group&gt;">
			<path id="&lt;Path&gt;" class="s0" d="m111.09 128.37c1.95-0.44 4.21-1.21 5.83-1.83-0.26-3.27-0.52-6.5-0.79-9.37 0 0-1.54-0.18-3.08-0.36-1.55-0.17-3.1-0.34-3.1-0.34 0.18 1.73 0.35 3.64 0.52 5.63 0.15 1.99 0.42 4.16 0.62 6.27z"/>
			<path id="&lt;Path&gt;" class="s0" d="m95.88 115.65q1.92-0.17 3.78-0.29 1.85-0.12 3.64-0.13c2.38-0.01 4.57 0.05 6.44 0.18q0.04 0.01 0.09 0.01 1.27 0.09 2.33 0.22 1.73 0.2 3.86 0.38l-7.02-7.02c-3.27-0.17-7.24-0.17-11.43 0.05-0.66 1.19-1.61 3.7-1.69 6.6z"/>
			<path id="&lt;Path&gt;" class="s0" d="m40.65 249.71c0.12-4.7 0.85-7.91 1.76-10.2 0.98-2.28 2.16-3.66 3.02-4.77 0.87-1.11 2.43-3.08 4.35-5.31 2.02-2.23 4.46-4.69 6.9-6.86 0 0-0.36-0.64-0.89-1.62-0.55-0.97-1.18-2.27-1.82-3.6-1.29-2.63-2.56-5.36-2.56-5.36 0 0-1.71 1.59-4.24 4.09q-0.96 0.95-2.04 2.03-1.04 1.11-2.15 2.33c-1.48 1.63-3.04 3.4-4.59 5.21-0.76 0.9-1.51 1.77-2.14 2.63q-0.94 1.28-1.74 2.49-1.6 2.41-2.66 4.47c-0.7 1.38-1.27 2.63-1.59 3.77q-0.48 1.7-0.51 3.03c-0.05 2-0.12 4.7-0.19 7.71h11.09z"/>
			<path id="&lt;Path&gt;" class="s0" d="m82.14 245.88q0.04-2.07-0.48-4.1c-0.35-1.35-0.74-2.69-1.34-4.04q-0.88-2.02-2.14-4.08c-0.4-0.69-0.87-1.38-1.3-2.08q-0.64-1.04-1.34-2.1c-0.94-1.41-2.67-4.1-4.71-7.57-0.94-1.72-1.97-3.64-3.03-5.67-1.04-2.03-2.2-4.19-3.13-6.35-1.92-4.31-3.9-8.8-5.15-12.48-1.32-3.69-2.3-6.67-2.66-7.95-1.27-5.06-4.24-10.11-0.09-20.3 1.49-3.49 2.91-5.79 4.44-7.59 1.52-1.82 3.37-3.05 5.74-4.4 2.4-1.33 6.05-3.21 9.31-4.53 3.21-1.36 5.76-2.34 5.76-2.34 0 0-0.07-0.73-0.19-1.84-0.11-1.1-0.18-2.54-0.27-4.01-0.18-2.94-0.3-5.95-0.3-5.95 0 0-3.68 1.44-8.08 3.3-4.3 1.89-9.21 4.31-11.71 5.49-2.42 1.22-4.93 2.95-7.1 4.82-1.07 0.93-2.09 1.89-2.88 2.87-0.79 0.99-1.42 1.96-1.83 2.87-0.82 1.82-1.69 3.74-2.73 6.05-0.93 2.36-2.02 5.11-3.38 8.55-0.71 1.71-0.95 3.49-1.03 5.25-0.06 1.77 0.1 3.55 0.39 5.32q0.23 1.33 0.55 2.66 0.37 1.35 0.79 2.7 0.85 2.67 1.73 5.41c0.29 0.91 0.7 2.17 1.21 3.68 0.56 1.52 1.24 3.3 2 5.21 0.76 1.92 1.59 3.98 2.47 6.08 0.95 2.12 1.98 4.28 3 6.4q0.77 1.57 1.53 3.13 0.74 1.54 1.57 3.02c1.08 1.96 2.12 3.8 3.07 5.45 0.96 1.65 1.79 3.11 2.57 4.32 0.79 1.21 1.42 2.18 1.86 2.85 0.88 1.33 1.67 2.55 2.34 3.75q0.5 0.89 0.91 1.78 0.4 0.89 0.78 1.8c0.99 2.43 1.48 5.02 1.39 8.33q0 0.08-0.01 0.16h11.36c0.03-0.97 0.06-2.19 0.11-3.87z"/>
			<path id="&lt;Path&gt;" class="s0" d="m82.78 200.37l1.64-1.21q0.8-0.62 1.62-1.22 1.63-1.22 3-2.5 2.75-2.56 4.02-5.51c0.51-1.31 0.82-2.09 1.26-3.19 0.21-0.55 0.46-1.18 0.77-1.99 0.34-0.8 0.8-1.77 1.36-3.03q0.85-1.88 1.15-3.94c0.17-1.39 0.35-2.77 0.31-4.24-0.01-2.93-0.64-6.16-1.22-9.46-0.31-1.66-0.9-4.83-1.4-8.8-0.22-1.96-0.43-4.12-0.63-6.41q-0.13-1.73-0.28-3.51c-0.07-1.18-0.09-2.35-0.13-3.54-0.08-2.38-0.12-4.78-0.13-7.09-0.03-1.16 0.03-2.26 0.06-3.33q0.07-1.62 0.13-3.09c0.19-3.93 0.41-7.07 0.62-8.35 0.36-2.53 0.38-5.14 1.14-8.12 0.36-1.51 1.01-3 1.94-4.66 0.94-1.64 2.2-3.39 3.9-5.27l-7.86-7.86c-1.41 1.47-3 3.14-4.87 5.09-2.59 2.64-3.84 6-4.65 9.5-0.38 1.77-0.7 3.55-0.86 5.43q-0.22 2.8-0.46 5.68c-0.15 1.91-0.45 5.27-0.47 9.43-0.04 2.06-0.06 4.29-0.05 6.57-0.01 1.13 0.04 2.32 0.1 3.5q0.09 1.77 0.17 3.55c0.15 2.36 0.26 4.65 0.48 6.86 0.24 2.23 0.49 4.33 0.73 6.22 0.26 1.9 0.46 3.56 0.7 4.98 0.26 1.42 0.48 2.56 0.62 3.35 0.3 1.56 0.55 2.99 0.7 4.35 0.16 1.37 0.2 2.65 0.2 3.97-0.02 2.62-0.62 5.17-1.92 8.21-1.2 3.07-2.79 5.28-4.58 7.12-1.69 1.86-3.64 3.33-5.66 4.82-4.11 2.99-11.26 8.19-11.26 8.19 0 0 0.24 0.7 0.69 1.76 0.44 1.04 1.02 2.44 1.6 3.83 1.17 2.76 2.36 5.42 2.36 5.42 0 0 2.69-2.2 5.88-4.7q1.2-0.93 2.45-1.91c0.83-0.64 1.73-1.25 2.55-1.85 1.64-1.17 3.16-2.25 4.28-3.05z"/>
			<path id="&lt;Path&gt;" class="s0" d="m96.53 242.34c-2.88-0.14-5.36 0.58-8.06 2.47-2.33 1.62-3.81 2.65-4.26 2.96l-0.07 1.98h6.71q0.45-0.32 0.7-0.49c1.42-1 2.79-1.8 5.2-1.76 3.05 0.05 3.34 1.53 3.32 2.17l-0.02 0.08h5.54c0.08-2.85-1.55-4.63-3.51-5.77-1.97-1.13-4.26-1.58-5.55-1.64z"/>
			<path id="&lt;Path&gt;" class="s0" d="m85.17 245.42l-0.92-0.68v1.27z"/>
			<path id="&lt;Path&gt;" class="s0" d="m14.88 246.3c2.1 0.04 3.8 1.26 4.54 2.05 0 0 1.22-1.15 2.44-2.3 1.22-1.12 2.44-2.25 2.44-2.25-0.43-0.49-1.25-1.43-2.09-2.23-2.06-1.98-4.16-3.03-6.43-3.14-1.64-0.07-4.03 0.39-6.04 2.05-2.01 1.65-3.65 4.52-3.74 9.12q0 0.07 0 0.15h5.53c0.05-1.7 0.95-3.49 3.35-3.45z"/>
			<path id="&lt;Path&gt;" class="s0" d="m27.64 243.05c-1.54 1.41-5.33 5.02-6.99 6.7h6.8z"/>
			<path id="&lt;Path&gt;" class="s0" d="m114.29 140.41q1.99-0.5 3.96-0.99 1.96-0.51 3.72-1.18 1.75-0.66 3.2-1.56 1.51-0.84 2.63-2c1.32-1.38 1.92-2.02 3.36-3.52l-8.04-8.04c-2.24 2.29-4.49 3.7-6.82 4.67-2.27 1.02-4.55 1.65-6.95 2.25-1.21 0.31-2.69 0.62-4.18 0.97-1.49 0.37-3.01 0.74-4.39 1.08-2.8 0.68-4.97 1.21-4.97 1.21q0 0.01-0.02 0.51c-0.01 0.33-0.04 0.79-0.04 1.36 0.01 1.14 0.01 2.65 0.02 4.16 0.03 3 0.11 5.92 0.11 5.92 0 0 3.32-1 7.22-2.09q1.47-0.41 3-0.83 1.56-0.37 3.07-0.73c1.96-0.46 3.78-0.88 5.12-1.19z"/>
			<path id="&lt;Path&gt;" class="s0" d="m129.22 136.21c1.83 0.22 6.19 0.85 8.17 1.18l-4.74-4.74z"/>
			<path id="&lt;Path&gt;" class="s0" d="m132.06 138.04c0.08 0.56 0.24 1.61 0.5 2.59 0.62 2.41 1.76 4.29 3.44 5.82 1.21 1.11 3.24 2.43 5.42 2.99 2.19 0.56 4.51 0.39 6.38-1.6l0.01-0.03-3.91-3.91c-0.75 0.73-2.13 0.92-3.82-0.72-1.5-1.46-2.18-3.25-2.35-4.18 0 0-1.41-0.25-2.81-0.49-1.43-0.24-2.86-0.47-2.86-0.47z"/>
			<path id="&lt;Path&gt;" class="s0" d="m76.22 92.02c2.14 1.94 4.84 2.68 8.67 2.5 3.25-0.15 5.28-0.13 5.89-0.12l1.78-1.84-4.81-4.81q-0.54 0.02-0.84 0.02c-1.99 0.07-3.8 0.01-5.53-1.67-2.19-2.12-0.8-4.05-0.1-4.78l0.02-0.02-3.9-3.9c-3.28 3.46-4.07 6.72-3.77 9.28 0.29 2.57 1.64 4.48 2.59 5.34z"/>
			<path id="&lt;Path&gt;" class="s0" d="m88.01 97.36l1.15-1.25-1.22-0.03z"/>
			<path id="&lt;Path&gt;" class="s0" d="m97.54 184.46c0 0-0.19 0.39-0.45 0.98-0.24 0.6-0.56 1.41-0.88 2.21-0.64 1.6-1.28 3.2-1.28 3.2 1.04-0.28 2.96-0.78 4.76-1.22 1.78-0.43 3.46-0.83 4.07-0.97 1.65-0.4 3.27-0.59 5.47 0.37 2.79 1.22 2.47 2.68 2.26 3.28-0.38 0.99-1.6 1.74-3.85 0.85-1.94-0.77-3.25-2.17-3.76-2.96 0 0-1.4 0.31-2.8 0.61-1.41 0.33-2.82 0.65-2.82 0.65 0.28 0.48 0.83 1.39 1.44 2.2 1.46 1.98 3.31 3.3 5.44 4.07 1.56 0.56 3.87 0.98 6.11 0.68 2.24-0.31 4.33-1.35 5.31-3.88q0.19-0.5 0.3-0.97 0.14-0.47 0.19-0.92 0.1-0.91-0.08-1.74c-0.22-1.12-0.77-2.14-1.45-3.04-1.38-1.79-3.33-3.09-4.5-3.64-2.61-1.24-5.18-1.53-8.4-0.84-2.78 0.59-4.55 0.97-5.08 1.08z"/>
			<path id="&lt;Path&gt;" class="s0" d="m99.34 182.67l-0.58-0.98-0.51 1.17z"/>
			<path id="&lt;Path&gt;" class="s0" d="m43.46 166.9c0 0 0.21-0.54 0.54-1.35 0.33-0.8 0.73-1.89 1.21-2.95 0.97-2.11 1.93-4.22 1.93-4.22-1.14 0.42-3.25 1.21-5.26 1.99-2.03 0.77-3.84 1.58-4.52 1.88-1.82 0.83-3.53 1.46-5.77 0.57-2.83-1.12-2.27-3.44-1.89-4.38 0.6-1.6 2.19-2.91 4.39-1.95 1.92 0.83 3.02 2.62 3.39 3.63 0 0 1.58-0.59 3.15-1.19 1.56-0.57 3.13-1.13 3.13-1.13-0.2-0.63-0.6-1.81-1.06-2.88-1.13-2.61-2.67-4.39-4.72-5.37-1.48-0.7-3.87-1.19-6.37-0.43-1.25 0.38-2.53 1.08-3.73 2.2q-0.91 0.85-1.74 2.04c-0.55 0.79-1.07 1.71-1.48 2.79-1.8 4.5-1.31 7.86-0.07 10.14 1.24 2.28 3.31 3.56 4.5 3.99 1.36 0.49 2.72 0.65 4.17 0.47q2.17-0.27 4.78-1.49c2.96-1.38 4.84-2.13 5.42-2.36z"/>
			<path id="&lt;Path&gt;" class="s0" d="m42 170.7l0.6-1.6-1.15 0.44z"/>
			<path id="&lt;Path&gt;" class="s0" d="m46.01 235.52c-1.52 1.52-2.94 4.01-3.43 5.9 2.6 2.91 5.2 5.55 7.52 7.67 0 0 1.25-1.03 2.49-2.06 1.25-1 2.49-2 2.49-2-1.37-1.23-2.88-2.69-4.45-4.3q-0.58-0.61-1.18-1.23-0.57-0.64-1.15-1.29-1.14-1.31-2.29-2.69z"/>
			<path id="&lt;Path&gt;" class="s0" d="m60.66 249.67l0.06-0.05c2.37-1.94 5.11-4.28 7.89-6.66-0.17-0.74-0.61-1.84-1.08-2.92-0.44-1.08-0.97-2.15-1.43-2.79-3.85 3.06-7.34 6.19-10.24 8.47q-0.98 0.79-1.84 1.42-1.45 1.07-3.21 2.59l-0.02 0.02h9.77z"/>
			<path id="&lt;Path&gt;" class="s0" d="m33.95 217.61c-0.51-1.02-0.73-2.76-0.79-4.76-0.05-2 0.1-4.25 0.47-6.27 0.16-1.01 0.47-2.04 0.82-3.06q0.52-1.53 1.15-2.91c0.83-1.83 1.75-3.34 2.55-4.11 1.15-1.14 3.09-2.6 5.35-4.21-0.58-1.73-1.53-4.81-1.7-6.83-3.16 2.16-5.81 4.21-7.49 5.73-0.8 0.74-1.62 1.68-2.33 2.78-0.7 1.1-1.35 2.34-1.94 3.63-0.58 1.3-1.1 2.65-1.54 3.97-0.44 1.32-0.83 2.6-1.02 3.79-0.43 2.37-0.68 5.31-0.62 8.14q0.02 1.06 0.12 2.1 0.13 1.03 0.33 2c0.26 1.29 0.62 2.47 1.08 3.46 0.5 1.09 1.21 2.43 2.08 3.94q0.65 1.13 1.41 2.36 0.81 1.24 1.71 2.55c0 0 0.26-0.35 0.64-0.87 0.4-0.51 0.88-1.2 1.44-1.88 1.09-1.34 2.19-2.68 2.19-2.68-1.74-2.73-3.11-5.17-3.91-6.87z"/>
			<path id="&lt;Path&gt;" class="s0" d="m84.91 208.14c0.43 0.86 0.67 2.26 0.72 3.81q0.04 1.18-0.07 2.41c-0.07 0.81-0.22 1.61-0.33 2.38q-0.07 0.33-0.14 0.68-0.07 0.28-0.14 0.58-0.13 0.54-0.31 1.08c-0.37 1.18-0.86 2.33-1.4 3.31-0.54 0.97-1.12 1.78-1.63 2.27-1.16 1.07-3.01 2.56-5.26 4.33 0.5 0.72 1.09 1.64 1.63 2.53 0.54 0.89 1.15 1.76 1.55 2.41q1.04-0.85 2.01-1.64 0.98-0.78 1.86-1.48 1.75-1.4 2.87-2.4c0.87-0.79 1.63-1.83 2.27-2.98 0.65-1.16 1.31-2.41 1.77-3.66q0-0.01 0-0.01 0.21-0.54 0.38-1.08 0.34-1.02 0.53-1.98 0.07-0.33 0.13-0.64c0.12-0.85 0.3-1.79 0.39-2.78q0.14-1.49 0.07-3.06-0.06-1.57-0.38-3.06c-0.2-0.98-0.44-1.89-0.82-2.7-0.79-1.69-2.2-4.23-3.95-7.3-1.11 1.03-3.05 2.51-4.64 3.58q0.95 1.68 1.67 3.04 0.72 1.38 1.22 2.36z"/>
			<path id="&lt;Path&gt;" class="s0" d="m75.24 190.43c0.82-0.58 1.68-1.26 2.49-1.94 0.8-0.69 1.54-1.39 2.17-1.99-1.48-2.91-2.94-5.79-4.27-8.33 0 0-1.5 0.41-2.99 0.82-1.51 0.44-3.01 0.87-3.01 0.87 0.82 1.53 1.69 3.22 2.61 5 0.96 1.79 1.97 3.67 3 5.57z"/>
			<path id="&lt;Path&gt;" class="s0" d="m67.04 158.61c-0.84 0.34-1.85 0.82-2.86 1.42-1 0.6-1.92 1.34-2.69 2.13 1.34 3.85 2.74 7.43 4.16 10.4 0 0 0.37-0.12 0.94-0.3 0.57-0.17 1.34-0.39 2.1-0.61 1.53-0.43 3.05-0.85 3.05-0.85-0.78-1.65-1.61-3.55-2.43-5.63-0.4-1.03-0.83-2.12-1.2-3.21q-0.55-1.64-1.07-3.35z"/>
			<path id="&lt;Path&gt;" class="s0" d="m65.93 173.33c-3.1 1.08-6.78 2.59-10.59 4.39-0.14 1.36-0.04 4.05 0.98 6.76 2.28-1.19 4.54-2.29 6.68-3.23 2.2-0.92 4.25-1.69 6.04-2.29q0.04 0 0.08-0.02 1.21-0.4 2.25-0.69 1.68-0.46 3.72-1.11l0.08-0.03c3.07-0.96 6.71-2.11 10.48-3.3 0.05-0.82-0.06-2.03-0.17-3.21-0.09-1.16-0.21-2.29-0.29-2.98q-1.78 0.52-3.53 1.03-1.73 0.54-3.37 1.05c-2.19 0.68-4.27 1.32-6.1 1.83q-0.04 0.02-0.08 0.03-1.28 0.36-2.37 0.63c-1.12 0.28-2.4 0.65-3.73 1.11q-0.04 0.01-0.08 0.03z"/>
			<path id="&lt;Path&gt;" class="s0" d="m113.39 148.24c0.13 1.93-1.25 5.52-3.02 8.07-1.66 2.64-4.55 5.21-6.33 5.85-1.46 0.54-3.75 1.19-6.53 1.95 0.28 0.97 0.5 2.03 0.66 3.03 0.17 1.01 0.36 2 0.47 2.78q1.27-0.37 2.45-0.72 1.19-0.33 2.25-0.63 2.12-0.6 3.5-1.08 1.28-0.47 2.5-1.32 0.61-0.43 1.2-0.92 0.62-0.47 1.21-0.99c1.56-1.39 2.9-3 3.82-4.45 0.96-1.42 1.99-3.25 2.68-5.22 0.37-0.97 0.62-2 0.84-2.96q0.34-1.46 0.29-2.81-0.07-1.48-0.3-3.66c-0.13-1.44-0.38-3.14-0.52-4.88q-0.51 0.13-1.18 0.31-0.66 0.18-1.42 0.4c-1.01 0.28-2.13 0.57-3.17 0.79 0.31 2.7 0.53 4.93 0.6 6.46z"/>
			<path id="&lt;Path&gt;" class="s0" d="m62.77 137.3c-0.09-2.25 1.74-6.86 3.95-10.31q0.24-0.38 0.51-0.74 0.25-0.31 0.49-0.62l0.51-0.62q0.21-0.25 0.44-0.52 0.4-0.45 0.81-0.9c1.92-2.04 3.98-3.71 5.36-4.25 1.72-0.62 4.34-1.33 7.4-2.01 0.06-0.63 0.15-1.76 0.26-3.01 0.12-1.26 0.27-2.65 0.47-3.76-2.06 0.35-3.87 0.82-5.52 1.25-1.64 0.43-3.06 0.86-4.17 1.26-1.75 0.64-3.75 1.85-5.53 3.44l-0.78 0.72q-1.03 0.94-1.97 1.97-0.56 0.6-1.07 1.19-0.98 1.14-1.8 2.25-0.29 0.37-0.53 0.75c-1.31 2.02-2.67 4.64-3.7 7.28q-0.39 0.99-0.7 1.97-0.29 1-0.48 1.97c-0.25 1.3-0.38 2.52-0.33 3.62 0.04 1.17 0.17 2.64 0.39 4.32q0.15 1.26 0.37 2.66 0.25 1.41 0.57 2.93c0.89-0.5 1.9-1.08 2.99-1.59 1.08-0.52 2.16-1 3.03-1.39-0.55-3.2-0.88-5.98-0.97-7.86z"/>
		</g>
		<g id="&lt;Group&gt;">
			<path id="&lt;Path&gt;" class="s0" d="m237.53 65.87c0.84 0.53 1.8 1.06 2.74 1.53 0.95 0.52 1.88 0.98 2.67 1.31 2.13-2.5 4.23-4.97 6.07-7.19 0 0-0.96-1.22-1.91-2.43-0.98-1.22-1.96-2.43-1.96-2.43-2.19 2.72-4.92 5.81-7.61 9.21z"/>
			<path id="&lt;Path&gt;" class="s0" d="m235.78 46.12c3.94 3.2 7.5 6.84 9.96 9.65q0.02 0.03 0.06 0.06 0.83 0.96 1.49 1.8 1.08 1.37 2.46 2.99v-9.91c-2.19-2.44-5-5.24-8.11-8.05-0.65 0.21-1.59 0.55-2.63 1.1-1.04 0.58-2.18 1.36-3.23 2.36z"/>
			<path id="&lt;Path&gt;" class="s0" d="m101.93 101.87c3.4-3.25 6.18-5.01 8.45-5.97 2.33-0.9 4.12-1.07 5.51-1.24 0.7-0.08 1.67-0.2 2.84-0.33 1.17-0.12 2.5-0.28 4.01-0.33 3-0.14 6.44-0.19 9.69 0q0.01-0.01 0.14-0.49 0.14-0.48 0.4-1.27c0.34-1.04 0.8-2.43 1.27-3.82 0.94-2.79 1.96-5.63 1.96-5.63 0 0-2.33-0.07-5.87-0.08-1.76 0.01-3.87-0.01-6.07 0.09-2.19 0.12-4.54 0.27-6.9 0.46-4.75 0.34-8.47 1.21-11.42 2.15q-2.2 0.71-3.79 1.53-1.55 0.85-2.51 1.78c-1.45 1.38-3.41 3.25-5.59 5.33l7.85 7.85z"/>
			<path id="&lt;Path&gt;" class="s0" d="m133.96 128.49q1.49-1.43 2.54-3.23 1.13-1.74 1.93-3.79 0.8-2.07 1.36-4.42c0.4-1.55 0.78-3.12 1.1-4.8 0.17-0.83 0.42-2.03 0.76-3.52q0.26-1.12 0.56-2.43c0.21-0.87 0.47-1.75 0.74-2.71 1.08-3.78 2.42-8.46 4.13-12.87 0.83-2.23 1.69-4.49 2.56-6.62 0.9-2.08 1.79-4.06 2.62-5.86 0.83-1.78 1.58-3.4 2.23-4.68 0.66-1.25 1.19-2.21 1.52-2.79 1.33-2.29 2.36-4.81 4.31-7.36 0.99-1.22 2.22-2.45 3.83-3.66q1.2-0.9 2.71-1.78 0.76-0.45 1.61-0.87 0.86-0.39 1.81-0.77c3.53-1.38 6.11-2.13 8.49-2.28 2.4-0.11 4.55 0.26 7.17 0.96q0.99 0.27 2.18 0.63 1.19 0.34 2.49 0.82c1.73 0.62 3.52 1.31 5.13 1.94 1.61 0.64 3.04 1.23 4.07 1.66 1.02 0.42 1.65 0.73 1.65 0.73 0 0 1.87-2.21 3.82-4.43 0.99-1.12 1.98-2.24 2.72-3.07q0.58-0.64 0.92-1.02 0.34-0.37 0.35-0.37c0 0-0.23-0.11-0.64-0.28q-0.63-0.26-1.72-0.72c-1.46-0.61-3.47-1.44-5.67-2.32q-1.68-0.66-3.4-1.34c-1.15-0.43-2.28-0.81-3.36-1.19-2.19-0.75-4.13-1.41-5.41-1.85-1.29-0.44-2.71-0.85-4.14-1.12-1.42-0.26-2.88-0.44-4.3-0.53-2.84-0.16-5.55-0.02-7.41 0.7-1.86 0.73-3.82 1.5-6.18 2.43-1.17 0.48-2.47 0.94-3.85 1.57q-2.06 0.93-4.58 2.07-2.53 1.14-4.47 2.93c-1.29 1.22-2.42 2.61-3.46 4.09-1.03 1.48-1.96 3.07-2.87 4.69-0.88 1.65-1.7 3.39-2.57 5.08-0.44 0.85-1.03 2.05-1.73 3.49q-0.51 1.08-1.11 2.33c-0.4 0.83-0.78 1.77-1.19 2.71-0.81 1.91-1.66 3.97-2.51 6.1-0.43 1.07-0.87 2.12-1.27 3.24q-0.58 1.67-1.17 3.36c-0.76 2.24-1.49 4.44-2.16 6.54-0.65 2.12-1.18 4.19-1.68 6.03-0.48 1.85-0.9 3.5-1.24 4.88-0.35 1.37-0.55 2.55-0.71 3.32-0.61 3.13-1.25 5.69-2.33 8.03-1.02 2.42-2.5 4.6-4.9 6.88l-0.12 0.1 8.04 8.04c0.7-0.67 1.58-1.51 2.8-2.67z"/>
			<path id="&lt;Path&gt;" class="s0" d="m166.6 96.74c2.73 0.49 5.45 0.91 7.93 0.95q0.93 0.02 1.81-0.04c0.6-0.03 1.19-0.06 1.76-0.13q1.71-0.21 3.18-0.86c1.28-0.58 2.04-0.93 3.12-1.42 1.1-0.44 2.51-0.99 5.07-2 2.54-1.08 4.79-2.61 6.82-4.76q0.76-0.8 1.49-1.7 0.72-0.91 1.46-1.84 1.45-1.86 2.86-4c0.95-1.41 2.76-4.14 5.24-7.19 1.22-1.56 2.6-3.26 4.07-5.04 0.74-0.91 1.51-1.76 2.3-2.62q1.2-1.31 2.4-2.62c1.63-1.73 3.29-3.53 4.92-5.12 1.63-1.56 3.22-3.05 4.68-4.39 1.46-1.33 2.78-2.53 3.87-3.46 1.09-0.9 1.95-1.58 2.48-1.98 2.03-1.55 3.91-3.39 6.55-4.97 2.64-1.49 6.07-2.61 11.14-2.87v-11.12c-2.03 0.05-4.33 0.1-7.03 0.17q-1.39 0.04-2.7 0.28-1.31 0.22-2.55 0.71c-1.65 0.63-3.23 1.46-4.75 2.43-1.53 0.97-3 2.06-4.46 3.21-1.45 1.18-2.88 2.47-4.34 3.7-0.73 0.62-1.73 1.49-2.93 2.55-1.2 1.08-2.6 2.27-4.08 3.75-1.48 1.45-3.07 3.03-4.67 4.67q-1.2 1.22-2.42 2.49c-0.81 0.84-1.6 1.76-2.38 2.64-3.13 3.57-6.1 6.99-8.39 10.12-2.32 3.07-4.09 5.45-4.97 6.79-1.77 2.66-3.32 4.81-5.23 6.55-0.96 0.85-1.96 1.71-3.13 2.45-1.16 0.75-2.48 1.42-4.02 2.03-1.55 0.57-2.95 1.06-4.32 1.36q-2.03 0.43-3.94 0.45c-2.58 0-4.95-0.25-7.43-0.61-2.45-0.33-5.92-1.03-8.7-1.4-2.84-0.42-5.04-0.75-5.04-0.75 0 0-0.31 0.69-0.77 1.71q-0.34 0.78-0.77 1.75-0.4 1-0.82 2.07c-1.11 2.8-2.14 5.55-2.14 5.55 0 0 3.44 0.32 7.44 0.77 4.07 0.53 8.73 1.34 11.39 1.74z"/>
			<path id="&lt;Path&gt;" class="s0" d="m146.63 136.17c-1.95-2.14-4.21-3.38-7.45-3.96-2.78-0.5-4.55-0.82-5.09-0.91l-1.44 1.35 4.74 4.74q0.54 0.1 0.83 0.15c1.72 0.3 3.25 0.7 4.93 2.44 2.12 2.19 1.28 3.43 0.81 3.87l-0.06 0.05 3.91 3.91c2.07-1.95 2.17-4.36 1.58-6.56-0.59-2.18-1.9-4.13-2.76-5.08z"/>
			<path id="&lt;Path&gt;" class="s0" d="m136.43 130.31l-0.17-1.13-0.9 0.89z"/>
			<path id="&lt;Path&gt;" class="s0" d="m86.11 81.23c1.46 1.5 1.8 3.57 1.76 4.65 0 0 1.68 0.05 3.35 0.1 1.66 0.07 3.32 0.14 3.32 0.14 0.05-0.66 0.13-1.9 0.1-3.07-0.06-2.85-0.8-5.09-2.32-6.77-1.11-1.22-3.13-2.57-5.72-2.82-2.59-0.25-5.78 0.63-9.1 3.82q-0.05 0.06-0.1 0.12l3.9 3.9c1.24-1.17 3.14-1.8 4.81-0.07z"/>
			<path id="&lt;Path&gt;" class="s0" d="m97.43 87.95c-2.08-0.1-7.32-0.21-9.68-0.2l4.81 4.81z"/>
			<path id="&lt;Path&gt;" class="s0" d="m231.27 76.62c2.33 1.46 4.68 2.94 6.96 3.93 1.14 0.51 2.26 0.86 3.37 1.17q1.67 0.47 3.28 0.44c1.91-0.05 2.79-0.07 4.87-0.13v-11.36c-3.21 0.04-5.8-0.56-8.13-1.51-1.17-0.5-2.26-0.97-3.33-1.54q-1.6-0.84-3.18-1.79c-1.07-0.64-2.33-1.44-3.64-2.27q-0.99-0.64-1.96-1.22-0.99-0.59-1.9-1.14c-2.46-1.48-4.37-2.63-4.37-2.63 0 0-0.54 0.51-1.36 1.28q-0.63 0.58-1.39 1.32-0.75 0.77-1.55 1.59c-2.1 2.17-4.1 4.32-4.1 4.32 0 0 3.06 1.61 6.58 3.56 1.76 0.99 3.66 2.19 5.39 3.24 1.71 1.05 3.29 2.02 4.46 2.74z"/>
			<path id="&lt;Path&gt;" class="s0" d="m244.8 84.24c1.14 1.45 3.78 4.98 4.95 6.61v-6.71z"/>
			<path id="&lt;Path&gt;" class="s0" d="m245.52 87.55c-0.34 0.45-0.98 1.31-1.49 2.19-1.27 2.14-1.8 4.28-1.69 6.55 0.08 1.64 0.58 4 1.73 5.94 1.15 1.94 2.91 3.46 5.65 3.37l0.03-0.01v-5.54c-1.05 0-2.16-0.84-2.2-3.2-0.03-2.09 0.76-3.85 1.3-4.62 0 0-0.82-1.17-1.64-2.34-0.85-1.17-1.69-2.34-1.69-2.34z"/>
			<path id="&lt;Path&gt;" class="s0" d="m238.6 15.53c0.13 2.88 1.52 5.31 4.35 7.89 2.4 2.19 3.82 3.64 4.25 4.08l2.55-0.05v-6.8q-0.39-0.37-0.61-0.58c-1.45-1.36-2.68-2.68-2.72-5.09-0.05-3.05 2.29-3.43 3.3-3.45h0.03v-5.53c-4.76 0.14-7.61 1.89-9.21 3.92-1.61 2.02-2 4.33-1.94 5.61z"/>
			<path id="&lt;Path&gt;" class="s0" d="m243.14 27.63l1.7-0.07-0.84-0.88z"/>
			<path id="&lt;Path&gt;" class="s0" d="m188.32 95.97c0 0-1.61 0.63-3.22 1.25-1.57 0.71-3.15 1.41-3.15 1.41 0.93 0.53 2.64 1.51 4.21 2.45 0.79 0.46 1.55 0.94 2.19 1.36 0.63 0.4 1.14 0.72 1.41 0.89 1.46 0.93 2.71 1.88 3.6 4.13 1.12 2.83-0.13 3.68-0.72 3.9-1 0.37-2.38 0.07-3.34-2.15-0.83-1.91-0.79-3.86-0.57-4.75 0 0-0.31-0.21-0.75-0.5-0.46-0.28-1.06-0.66-1.66-1.04-1.22-0.76-2.45-1.51-2.45-1.51-0.14 0.54-0.38 1.59-0.52 2.59-0.34 2.48-0.01 4.66 0.96 6.71 0.7 1.49 2.07 3.48 3.86 4.83 0.9 0.67 1.9 1.18 2.98 1.39q0.81 0.15 1.68 0.05 0.87-0.12 1.83-0.46c2.65-1.03 3.66-3.24 3.95-5.5 0.29-2.24-0.15-4.5-0.59-5.72-0.97-2.71-2.61-4.82-5.36-6.55-2.37-1.52-3.88-2.48-4.34-2.78z"/>
			<path id="&lt;Path&gt;" class="s0" d="m190.85 95.94l0.27-1.11-1.17 0.49z"/>
			<path id="&lt;Path&gt;" class="s0" d="m162.43 45.27q0.01-0.01 0.37-0.16 0.35-0.17 0.97-0.41c0.81-0.31 1.89-0.73 2.97-1.16 2.16-0.84 4.33-1.68 4.33-1.68-1.1-0.5-3.14-1.42-5.11-2.26-1.97-0.85-3.86-1.63-4.55-1.9-1.9-0.77-3.53-1.47-4.49-3.69-0.6-1.4-0.4-2.42 0.07-3.14 0.47-0.71 1.23-1.08 1.69-1.27 1.6-0.64 3.62-0.51 4.51 1.74 0.76 1.95 0.28 4-0.16 4.99 0 0 1.52 0.68 3.05 1.36 1.51 0.69 3.01 1.38 3.01 1.38 0.3-0.59 0.85-1.72 1.27-2.81q0.78-2.01 0.92-3.74 0.12-1.76-0.45-3.36c-0.55-1.53-1.91-3.61-4.22-4.85-2.29-1.21-5.57-1.6-9.87 0.11-2.26 0.86-3.85 2.11-5 3.34-1.15 1.24-1.83 2.56-2.19 3.81-0.73 2.52-0.2 4.82 0.35 5.99 1.23 2.61 3.44 4.31 7.05 5.6 3.06 1.09 4.92 1.87 5.48 2.11z"/>
			<path id="&lt;Path&gt;" class="s0" d="m158.74 46.97l1.54-0.72-1.12-0.49z"/>
			<path id="&lt;Path&gt;" class="s0" d="m115.75 95.62c-1.07 0-2.29 0.2-3.47 0.51q-0.89 0.23-1.7 0.54-0.79 0.33-1.43 0.69c-0.22 3.9-0.25 7.61-0.1 10.75 0 0 1.6 0.15 3.21 0.3 1.59 0.17 3.17 0.34 3.17 0.34-0.1-1.84-0.14-3.93-0.11-6.18 0.05-2.24 0.22-4.56 0.43-6.95z"/>
			<path id="&lt;Path&gt;" class="s0" d="m116.1 115.98l0.08 0.01c3.04 0.3 6.63 0.59 10.27 0.86 0.77-1.32 2.02-4.21 2.28-5.8q-1.83-0.18-3.61-0.36-0.9-0.09-1.77-0.18-0.86-0.07-1.7-0.13c-2.23-0.19-4.33-0.38-6.15-0.59q-1.26-0.13-2.3-0.29-1.79-0.27-4.11-0.44h-0.03l6.91 6.91z"/>
			<path id="&lt;Path&gt;" class="s0" d="m119.89 74.43c0.41-1.03 1.45-2.45 2.82-3.91q1.04-1.11 2.25-2.18c0.8-0.7 1.63-1.39 2.5-1.93 1.73-1.11 3.75-2.11 5.62-2.83 1.86-0.73 3.56-1.16 4.7-1.09 1.67 0.08 4.03 0.34 6.76 0.8 0.41-0.83 0.98-1.96 1.61-3.08 0.63-1.13 1.37-2.16 2.03-2.92q-1.43-0.29-2.76-0.54-1.32-0.21-2.5-0.35c-1.58-0.2-2.97-0.32-4.09-0.37-1.09-0.05-2.32 0.08-3.61 0.33-1.29 0.25-2.65 0.62-3.96 1.15-2.64 1.03-5.25 2.39-7.28 3.69-1.02 0.64-2.05 1.49-3.11 2.39-1.05 0.91-2.09 1.91-3.06 2.94-0.97 1.03-1.87 2.1-2.62 3.17-0.72 1.1-1.3 2.2-1.67 3.23-0.81 2.28-1.8 5.79-2.59 9.92 0 0 0.43-0.06 1.07-0.16 0.64-0.07 1.51-0.17 2.37-0.27 1.72-0.18 3.43-0.37 3.43-0.37 0.71-3.15 1.42-5.9 2.09-7.62z"/>
			<path id="&lt;Path&gt;" class="s0" d="m162.63 103.78c-0.16 0.45-0.46 0.93-0.83 1.49q-0.57 0.83-1.37 1.71c-1.05 1.15-2.35 2.28-3.67 3.11q-0.28 0.18-0.59 0.36-0.25 0.14-0.51 0.3-0.48 0.3-0.98 0.56c-2.18 1.16-4.62 1.92-6.08 1.82-1.62-0.11-3.94-0.32-6.79-0.66-0.29 1.77-0.93 4.22-1.26 5.73 3.63 0.41 6.72 0.79 8.68 0.86q0.88 0.04 1.81-0.1 0.47-0.07 0.94-0.17 0.49-0.09 0.98-0.21c1.31-0.31 2.62-0.78 3.83-1.34q0.01-0.01 0.01-0.01 0.53-0.24 1.02-0.51 0.96-0.5 1.78-1.03 0.28-0.18 0.56-0.34c1.45-0.93 3.06-2.27 4.45-3.83 0.68-0.8 1.36-1.57 1.92-2.39q0.86-1.22 1.32-2.5 0.48-1.34 1.06-3.39 0.58-2.07 1.33-4.54c-0.77-0.05-1.78-0.19-2.81-0.33-1.02-0.13-2.09-0.29-3.03-0.46-0.68 2.49-1.27 4.53-1.77 5.87z"/>
			<path id="&lt;Path&gt;" class="s0" d="m168.3 84.39c1.95 0.28 4.39 0.58 6.09 0.56 1.02-3.18 1.99-6.26 2.85-8.96 0 0-1.35-0.81-2.7-1.54-1.37-0.74-2.74-1.49-2.74-1.49-0.49 1.67-1.06 3.51-1.66 5.43q-0.45 1.44-0.93 2.93c-0.31 0.99-0.6 2.04-0.91 3.07z"/>
			<path id="&lt;Path&gt;" class="s0" d="m184.99 56.11c-1.65-0.69-4.23-1.45-6.44-1.46-1.77 3.68-3.28 7.29-4.39 10.36 0 0 1.4 0.76 2.8 1.51 1.38 0.76 2.75 1.53 2.75 1.53 0.61-1.72 1.34-3.72 2.25-5.72 0.9-1.99 1.93-4.1 3.03-6.22z"/>
			<path id="&lt;Path&gt;" class="s0" d="m173.81 65.74q-1.12-0.56-2.36-1.14-1.24-0.53-2.57-1.08-2.68-1.09-5.66-2.13c-1.03 0.9-2.95 2.71-4.1 5.42 1.23 0.38 2.42 0.75 3.6 1.18q1.78 0.65 3.43 1.31c2.2 0.89 4.19 1.77 5.87 2.6q0.03 0.02 0.08 0.04 1.13 0.56 2.06 1.09 1.53 0.83 3.44 1.88l0.07 0.04c2.89 1.54 6.31 3.27 9.74 5.02 1.23-1.07 3.2-3.55 4.07-4.66-2.18-1.18-4.34-2.34-6.37-3.44-2.04-1.08-3.94-2.06-5.6-2.98q-0.04-0.01-0.07-0.04-1.17-0.64-2.13-1.21-1.48-0.88-3.42-1.86z"/>
			<path id="&lt;Path&gt;" class="s0" d="m225.1 81.56c-0.32 0.35-0.79 0.68-1.34 1.04q-0.85 0.56-1.92 1.06c-1.41 0.66-3.05 1.2-4.58 1.47-1.54 0.22-3.24 0.45-4.8 0.38-1.55-0.05-2.94-0.3-3.8-0.72-1.44-0.75-3.5-1.85-6-3.26-0.97 1.79-2.35 3.65-3.32 4.88 3.17 1.81 5.79 3.28 7.53 4.08 1.6 0.71 3.68 1.14 5.76 1.23q1.56 0.07 3.06-0.08 0.74-0.07 1.44-0.18 0.7-0.07 1.33-0.18c1.7-0.3 3.7-0.92 5.58-1.83 0.93-0.48 1.86-0.91 2.69-1.45q1.27-0.81 2.19-1.81 0.99-1.09 2.37-2.82c0.46-0.56 0.95-1.2 1.47-1.81q0.77-0.95 1.62-1.97c-0.59-0.35-1.43-0.84-2.35-1.38-0.91-0.51-1.9-1.09-2.79-1.67-1.69 2.15-3.11 3.9-4.14 5.02z"/>
			<path id="&lt;Path&gt;" class="s0" d="m197.05 38.02c0.77-0.8 2.28-1.72 4.11-2.55 1.83-0.81 3.96-1.62 5.98-1.94q0.44-0.07 0.89-0.15 0.39-0.05 0.78-0.1l0.8-0.08q0.33-0.03 0.67-0.06 0.61-0.05 1.22-0.08c2.8-0.1 5.43 0.13 6.79 0.81 1.66 0.78 4.02 2.11 6.66 3.79 0.49-0.42 1.35-1.15 2.31-1.97 0.97-0.81 2.07-1.61 3-2.28q-1.28-0.88-2.49-1.67c-0.8-0.53-1.57-0.96-2.3-1.39-1.47-0.84-2.77-1.54-3.84-2.03-1.69-0.8-3.95-1.29-6.35-1.52q-0.53-0.02-1.06-0.04-1.39-0.05-2.79 0.02-0.81 0.04-1.59 0.1-1.51 0.12-2.87 0.34-0.46 0.07-0.91 0.14-0.89 0.17-1.85 0.39-0.96 0.26-1.95 0.6c-1.32 0.44-2.67 0.96-3.96 1.54-2.59 1.17-4.97 2.57-6.43 4.24-1.59 1.75-3.79 4.59-6.08 7.96 1.98 0.56 4.6 1.5 6.38 2.17 1.86-2.68 3.58-4.93 4.88-6.24z"/>
		</g>
		<g id="&lt;Group&gt;">
			<path id="&lt;Path&gt;" class="s0" d="m371.13 111.09c0.44 1.95 1.21 4.21 1.83 5.83 3.27-0.26 6.5-0.52 9.37-0.79 0 0 0.18-1.54 0.36-3.08 0.17-1.55 0.34-3.1 0.34-3.1-1.73 0.18-3.64 0.35-5.63 0.52-1.99 0.15-4.16 0.42-6.27 0.62z"/>
			<path id="&lt;Path&gt;" class="s0" d="m383.85 95.88q0.17 1.92 0.29 3.78 0.12 1.85 0.13 3.64c0.01 2.38-0.05 4.57-0.18 6.44q-0.01 0.04-0.01 0.09-0.09 1.27-0.22 2.33-0.2 1.73-0.38 3.86l7.02-7.02c0.17-3.27 0.17-7.24-0.05-11.43-1.19-0.66-3.7-1.61-6.6-1.69z"/>
			<path id="&lt;Path&gt;" class="s0" d="m249.79 40.65c4.7 0.12 7.91 0.85 10.2 1.76 2.28 0.98 3.66 2.16 4.77 3.02 1.11 0.87 3.08 2.43 5.31 4.35 2.23 2.02 4.69 4.46 6.86 6.9 0 0 0.64-0.36 1.62-0.89 0.97-0.55 2.27-1.18 3.6-1.82 2.63-1.29 5.36-2.56 5.36-2.56 0 0-1.59-1.71-4.09-4.24q-0.95-0.96-2.03-2.04-1.11-1.04-2.33-2.15c-1.63-1.48-3.4-3.04-5.21-4.59-0.9-0.76-1.77-1.51-2.63-2.14q-1.28-0.94-2.49-1.74-2.41-1.6-4.47-2.66c-1.38-0.7-2.63-1.27-3.77-1.59q-1.7-0.48-3.03-0.51c-2-0.05-4.7-0.12-7.71-0.19v11.09z"/>
			<path id="&lt;Path&gt;" class="s0" d="m253.62 82.14q2.07 0.04 4.1-0.48c1.35-0.35 2.69-0.74 4.04-1.34q2.02-0.88 4.08-2.14c0.69-0.4 1.38-0.87 2.08-1.3q1.04-0.64 2.1-1.34c1.41-0.94 4.1-2.67 7.57-4.71 1.72-0.94 3.64-1.97 5.67-3.03 2.03-1.04 4.19-2.2 6.35-3.13 4.31-1.92 8.8-3.9 12.48-5.15 3.69-1.32 6.67-2.3 7.95-2.66 5.06-1.27 10.11-4.24 20.3-0.09 3.49 1.49 5.79 2.91 7.59 4.44 1.82 1.52 3.05 3.37 4.4 5.74 1.33 2.4 3.21 6.05 4.53 9.31 1.36 3.21 2.34 5.76 2.34 5.76 0 0 0.73-0.07 1.83-0.19 1.11-0.11 2.55-0.18 4.02-0.27 2.94-0.18 5.95-0.3 5.95-0.3 0 0-1.44-3.68-3.3-8.08-1.89-4.3-4.31-9.21-5.49-11.71-1.22-2.42-2.95-4.93-4.82-7.1-0.93-1.07-1.89-2.1-2.87-2.88-0.99-0.79-1.96-1.42-2.87-1.83-1.82-0.82-3.74-1.69-6.05-2.73-2.36-0.93-5.11-2.02-8.55-3.38-1.71-0.71-3.49-0.95-5.25-1.03-1.77-0.06-3.55 0.1-5.32 0.39q-1.33 0.23-2.66 0.55-1.35 0.37-2.7 0.78-2.67 0.86-5.41 1.74c-0.91 0.29-2.17 0.7-3.68 1.21-1.52 0.56-3.3 1.24-5.21 2-1.92 0.76-3.98 1.59-6.08 2.47-2.12 0.95-4.28 1.98-6.4 3q-1.57 0.77-3.13 1.53-1.54 0.74-3.02 1.57c-1.96 1.08-3.8 2.12-5.45 3.07-1.65 0.96-3.11 1.79-4.32 2.57-1.21 0.79-2.18 1.42-2.85 1.86-1.33 0.88-2.55 1.67-3.75 2.34q-0.89 0.5-1.78 0.91-0.89 0.4-1.8 0.78c-2.43 0.99-5.02 1.48-8.33 1.39q-0.08 0-0.16-0.01v11.36c0.97 0.03 2.19 0.06 3.87 0.11z"/>
			<path id="&lt;Path&gt;" class="s0" d="m299.13 82.78l1.21 1.64q0.62 0.8 1.22 1.62 1.22 1.63 2.5 3 2.56 2.75 5.51 4.02c1.31 0.51 2.09 0.82 3.19 1.26 0.55 0.21 1.18 0.46 1.99 0.77 0.8 0.34 1.77 0.8 3.03 1.36q1.88 0.85 3.94 1.15c1.39 0.17 2.77 0.35 4.24 0.31 2.93-0.01 6.16-0.64 9.46-1.22 1.66-0.31 4.83-0.9 8.8-1.4 1.96-0.22 4.12-0.43 6.41-0.63q1.73-0.13 3.51-0.28c1.18-0.07 2.35-0.09 3.54-0.14 2.38-0.07 4.78-0.11 7.09-0.12 1.16-0.03 2.26 0.03 3.33 0.06q1.62 0.07 3.09 0.13c3.93 0.19 7.07 0.41 8.35 0.62 2.53 0.36 5.14 0.38 8.12 1.14 1.51 0.36 3 1.01 4.66 1.94 1.64 0.94 3.39 2.2 5.27 3.9l7.86-7.86c-1.47-1.41-3.14-3-5.1-4.87-2.63-2.59-5.99-3.84-9.49-4.65-1.77-0.38-3.55-0.7-5.43-0.86q-2.8-0.22-5.68-0.46c-1.91-0.15-5.27-0.45-9.43-0.47-2.06-0.04-4.29-0.06-6.57-0.05-1.13-0.01-2.32 0.04-3.5 0.1q-1.77 0.09-3.55 0.17c-2.36 0.15-4.65 0.26-6.86 0.48-2.23 0.24-4.33 0.49-6.22 0.73-1.9 0.26-3.56 0.46-4.98 0.7-1.42 0.26-2.56 0.48-3.35 0.62-1.56 0.3-2.99 0.55-4.35 0.7-1.37 0.16-2.65 0.2-3.97 0.2-2.62-0.02-5.17-0.62-8.21-1.92-3.07-1.2-5.28-2.79-7.12-4.58-1.86-1.69-3.33-3.64-4.82-5.66-2.99-4.11-8.19-11.26-8.19-11.26 0 0-0.7 0.24-1.76 0.69-1.04 0.43-2.44 1.02-3.83 1.6-2.76 1.17-5.42 2.36-5.42 2.36 0 0 2.2 2.69 4.7 5.88q0.93 1.2 1.91 2.45c0.64 0.83 1.25 1.73 1.85 2.55 1.17 1.64 2.25 3.16 3.05 4.28z"/>
			<path id="&lt;Path&gt;" class="s0" d="m257.16 96.53c0.14-2.88-0.58-5.36-2.47-8.06-1.62-2.33-2.65-3.81-2.96-4.26l-1.98-0.07v6.71q0.32 0.45 0.49 0.7c1 1.42 1.8 2.79 1.76 5.2-0.05 3.05-1.53 3.34-2.17 3.32l-0.08-0.02v5.54c2.85 0.08 4.63-1.55 5.77-3.51 1.13-1.97 1.58-4.26 1.64-5.55z"/>
			<path id="&lt;Path&gt;" class="s0" d="m254.08 85.17l0.68-0.92h-1.27z"/>
			<path id="&lt;Path&gt;" class="s0" d="m253.2 14.88c-0.04 2.1-1.26 3.8-2.05 4.54 0 0 1.15 1.22 2.3 2.44 1.12 1.22 2.25 2.44 2.25 2.44 0.49-0.43 1.43-1.25 2.23-2.09 1.98-2.06 3.03-4.16 3.14-6.43 0.07-1.64-0.39-4.03-2.05-6.04-1.65-2.01-4.52-3.65-9.12-3.74q-0.07 0-0.15 0v5.53c1.7 0.05 3.49 0.95 3.45 3.35z"/>
			<path id="&lt;Path&gt;" class="s0" d="m256.45 27.64c-1.41-1.54-5.02-5.33-6.7-6.99v6.8z"/>
			<path id="&lt;Path&gt;" class="s0" d="m359.09 114.29q0.5 1.99 0.99 3.96 0.51 1.96 1.18 3.72 0.66 1.75 1.56 3.2 0.84 1.51 2 2.63c1.38 1.32 2.02 1.92 3.52 3.36l8.04-8.04c-2.29-2.24-3.7-4.49-4.67-6.82-1.02-2.27-1.65-4.55-2.25-6.95-0.31-1.21-0.62-2.69-0.97-4.18-0.37-1.49-0.74-3.01-1.08-4.39-0.68-2.8-1.21-4.97-1.21-4.97q-0.01 0-0.51-0.02c-0.33-0.01-0.79-0.04-1.36-0.04-1.14 0.01-2.65 0.01-4.16 0.02-3 0.03-5.92 0.11-5.92 0.11 0 0 1 3.32 2.09 7.22q0.41 1.47 0.83 3 0.37 1.56 0.73 3.07c0.46 1.96 0.88 3.78 1.19 5.12z"/>
			<path id="&lt;Path&gt;" class="s0" d="m363.29 129.22c-0.22 1.83-0.85 6.19-1.18 8.17l4.74-4.74z"/>
			<path id="&lt;Path&gt;" class="s0" d="m361.46 132.06c-0.56 0.08-1.61 0.24-2.59 0.5-2.41 0.62-4.29 1.76-5.82 3.44-1.11 1.21-2.43 3.24-2.99 5.42-0.56 2.19-0.39 4.51 1.6 6.38l0.03 0.01 3.91-3.91c-0.73-0.75-0.92-2.13 0.72-3.82 1.46-1.5 3.25-2.18 4.18-2.35 0 0 0.25-1.41 0.49-2.81 0.24-1.43 0.47-2.86 0.47-2.86z"/>
			<path id="&lt;Path&gt;" class="s0" d="m407.48 76.22c-1.94 2.14-2.68 4.84-2.5 8.67 0.15 3.25 0.13 5.28 0.12 5.89l1.84 1.78 4.81-4.81q-0.02-0.54-0.02-0.84c-0.07-1.99-0.01-3.8 1.67-5.53 2.12-2.19 4.05-0.8 4.78-0.1l0.02 0.02 3.9-3.9c-3.46-3.28-6.72-4.07-9.28-3.77-2.57 0.29-4.48 1.64-5.34 2.59z"/>
			<path id="&lt;Path&gt;" class="s0" d="m402.14 88.01l1.25 1.15 0.03-1.22z"/>
			<path id="&lt;Path&gt;" class="s0" d="m315.04 97.54c0 0-0.39-0.19-0.98-0.45-0.6-0.24-1.41-0.56-2.21-0.88-1.6-0.64-3.2-1.28-3.2-1.28 0.28 1.04 0.78 2.96 1.22 4.76 0.43 1.78 0.83 3.46 0.97 4.07 0.4 1.65 0.58 3.27-0.37 5.47-1.22 2.79-2.68 2.46-3.28 2.26-0.99-0.38-1.74-1.6-0.85-3.85 0.77-1.94 2.17-3.25 2.96-3.76 0 0-0.31-1.4-0.61-2.8-0.33-1.41-0.65-2.82-0.65-2.82-0.48 0.28-1.39 0.83-2.2 1.44-1.98 1.46-3.3 3.31-4.07 5.44-0.56 1.56-0.98 3.87-0.68 6.11 0.31 2.24 1.35 4.33 3.88 5.31q0.5 0.19 0.97 0.3 0.47 0.14 0.92 0.19 0.91 0.1 1.74-0.08c1.12-0.22 2.14-0.77 3.04-1.45 1.79-1.38 3.09-3.33 3.64-4.5 1.24-2.61 1.53-5.18 0.84-8.4-0.59-2.78-0.97-4.55-1.08-5.08z"/>
			<path id="&lt;Path&gt;" class="s0" d="m316.83 99.34l0.98-0.58-1.17-0.51z"/>
			<path id="&lt;Path&gt;" class="s0" d="m332.6 43.46c0 0 0.54 0.21 1.35 0.54 0.8 0.33 1.89 0.73 2.95 1.21 2.11 0.97 4.22 1.93 4.22 1.93-0.42-1.14-1.2-3.25-1.99-5.26-0.77-2.03-1.58-3.84-1.88-4.52-0.83-1.82-1.46-3.53-0.57-5.77 1.12-2.83 3.44-2.27 4.38-1.89 1.6 0.6 2.91 2.19 1.95 4.39-0.83 1.92-2.62 3.02-3.63 3.39 0 0 0.59 1.58 1.19 3.15 0.57 1.56 1.13 3.13 1.13 3.13 0.63-0.2 1.81-0.6 2.88-1.06 2.61-1.13 4.39-2.67 5.37-4.72 0.7-1.48 1.19-3.87 0.43-6.37-0.38-1.25-1.08-2.53-2.2-3.73q-0.85-0.91-2.04-1.74c-0.79-0.55-1.71-1.07-2.79-1.48-4.5-1.8-7.86-1.31-10.14-0.07-2.28 1.24-3.56 3.31-3.99 4.5-0.49 1.36-0.65 2.72-0.47 4.17q0.27 2.17 1.49 4.78c1.38 2.96 2.13 4.84 2.36 5.42z"/>
			<path id="&lt;Path&gt;" class="s0" d="m328.8 42l1.6 0.6-0.44-1.15z"/>
			<path id="&lt;Path&gt;" class="s0" d="m263.98 46.01c-1.52-1.52-4.01-2.94-5.9-3.43-2.91 2.6-5.55 5.2-7.67 7.52 0 0 1.03 1.25 2.06 2.49 1 1.25 2 2.49 2 2.49 1.23-1.37 2.69-2.88 4.3-4.45q0.61-0.58 1.23-1.18 0.64-0.57 1.29-1.15 1.31-1.14 2.69-2.29z"/>
			<path id="&lt;Path&gt;" class="s0" d="m249.83 60.66l0.05 0.06c1.94 2.37 4.28 5.11 6.66 7.89 0.74-0.17 1.84-0.61 2.92-1.08 1.08-0.44 2.15-0.97 2.79-1.43-3.06-3.85-6.19-7.34-8.47-10.24q-0.79-0.98-1.42-1.84-1.07-1.45-2.59-3.21l-0.02-0.02v9.77z"/>
			<path id="&lt;Path&gt;" class="s0" d="m281.89 33.95c1.02-0.51 2.76-0.73 4.76-0.79 2-0.05 4.25 0.1 6.27 0.47 1.01 0.16 2.04 0.47 3.06 0.82q1.53 0.52 2.91 1.15c1.83 0.83 3.34 1.75 4.11 2.55 1.14 1.15 2.6 3.09 4.21 5.35 1.73-0.58 4.81-1.53 6.83-1.7-2.16-3.16-4.21-5.81-5.73-7.49-0.74-0.8-1.68-1.62-2.78-2.33-1.1-0.7-2.34-1.35-3.63-1.94-1.3-0.58-2.65-1.1-3.97-1.54-1.32-0.44-2.6-0.83-3.79-1.02-2.37-0.43-5.31-0.68-8.14-0.62q-1.06 0.02-2.1 0.12-1.03 0.13-2 0.33c-1.29 0.26-2.47 0.62-3.46 1.08-1.09 0.5-2.43 1.21-3.94 2.08q-1.13 0.65-2.36 1.41-1.24 0.81-2.55 1.71c0 0 0.35 0.26 0.87 0.64 0.51 0.4 1.2 0.88 1.88 1.44 1.34 1.09 2.68 2.19 2.68 2.19 2.73-1.74 5.17-3.11 6.87-3.91z"/>
			<path id="&lt;Path&gt;" class="s0" d="m291.36 84.91c-0.86 0.43-2.26 0.67-3.81 0.72q-1.18 0.04-2.41-0.07c-0.81-0.07-1.61-0.22-2.38-0.33q-0.33-0.07-0.68-0.14-0.28-0.07-0.58-0.14-0.54-0.13-1.08-0.31c-1.18-0.37-2.33-0.86-3.31-1.4-0.97-0.54-1.78-1.12-2.27-1.63-1.07-1.16-2.56-3.01-4.33-5.26-0.72 0.5-1.64 1.09-2.53 1.63-0.89 0.54-1.76 1.15-2.41 1.55q0.85 1.04 1.64 2.01 0.78 0.98 1.48 1.86 1.4 1.75 2.4 2.87c0.79 0.87 1.83 1.63 2.98 2.27 1.16 0.65 2.41 1.31 3.66 1.77q0.01 0 0.01 0 0.54 0.21 1.08 0.38 1.02 0.34 1.98 0.53 0.33 0.07 0.64 0.13c0.85 0.12 1.79 0.3 2.78 0.39q1.49 0.14 3.06 0.07 1.57-0.06 3.06-0.38c0.98-0.2 1.89-0.44 2.7-0.82 1.69-0.79 4.23-2.2 7.3-3.95-1.03-1.11-2.51-3.05-3.58-4.64q-1.68 0.95-3.04 1.67-1.38 0.72-2.36 1.22z"/>
			<path id="&lt;Path&gt;" class="s0" d="m309.07 75.24c0.58 0.82 1.26 1.68 1.94 2.49 0.69 0.8 1.39 1.54 1.99 2.17 2.91-1.48 5.79-2.94 8.33-4.27 0 0-0.41-1.5-0.82-2.99-0.44-1.51-0.87-3.01-0.87-3.01-1.53 0.82-3.22 1.69-5 2.61-1.79 0.96-3.67 1.97-5.57 3z"/>
			<path id="&lt;Path&gt;" class="s0" d="m340.89 67.04c-0.34-0.84-0.82-1.85-1.42-2.86-0.6-1-1.34-1.92-2.13-2.69-3.85 1.34-7.43 2.74-10.4 4.16 0 0 0.12 0.37 0.3 0.94 0.17 0.57 0.39 1.34 0.61 2.1 0.43 1.53 0.85 3.05 0.85 3.05 1.65-0.78 3.55-1.61 5.63-2.43 1.03-0.4 2.12-0.83 3.21-1.2q1.64-0.55 3.35-1.07z"/>
			<path id="&lt;Path&gt;" class="s0" d="m326.17 65.93c-1.08-3.1-2.59-6.78-4.39-10.59-1.36-0.14-4.05-0.04-6.76 0.98 1.19 2.28 2.29 4.54 3.23 6.68 0.92 2.2 1.69 4.25 2.29 6.04q0 0.04 0.02 0.08 0.4 1.21 0.69 2.25 0.46 1.68 1.11 3.72l0.03 0.08c0.96 3.07 2.11 6.71 3.3 10.48 0.82 0.05 2.03-0.06 3.21-0.17 1.16-0.09 2.29-0.21 2.98-0.29q-0.52-1.78-1.03-3.53-0.54-1.73-1.05-3.37c-0.68-2.19-1.32-4.27-1.83-6.1q-0.02-0.04-0.03-0.08-0.36-1.28-0.63-2.37c-0.28-1.12-0.65-2.4-1.11-3.73q-0.01-0.04-0.03-0.08z"/>
			<path id="&lt;Path&gt;" class="s0" d="m351.26 113.39c-1.93 0.13-5.52-1.25-8.07-3.02-2.64-1.66-5.21-4.55-5.85-6.33-0.54-1.46-1.19-3.75-1.95-6.53-0.97 0.28-2.03 0.5-3.03 0.66-1.01 0.17-2 0.36-2.78 0.47q0.37 1.27 0.72 2.45 0.33 1.19 0.63 2.25 0.6 2.12 1.08 3.5 0.47 1.28 1.32 2.5 0.43 0.61 0.92 1.2 0.47 0.62 0.99 1.21c1.39 1.56 3 2.9 4.45 3.82 1.42 0.96 3.25 1.99 5.22 2.68 0.97 0.37 2 0.62 2.96 0.84q1.46 0.34 2.81 0.29 1.48-0.07 3.66-0.3c1.44-0.13 3.14-0.38 4.88-0.52q-0.13-0.51-0.31-1.18-0.18-0.66-0.4-1.42c-0.28-1.01-0.57-2.13-0.79-3.17-2.7 0.31-4.93 0.53-6.46 0.6z"/>
			<path id="&lt;Path&gt;" class="s0" d="m362.2 62.77c2.25-0.09 6.86 1.74 10.31 3.95q0.38 0.24 0.74 0.51 0.31 0.25 0.62 0.49l0.62 0.51q0.25 0.21 0.52 0.44 0.45 0.4 0.9 0.81c2.04 1.92 3.71 3.98 4.25 5.36 0.62 1.72 1.33 4.34 2.01 7.4 0.63 0.06 1.76 0.15 3.01 0.26 1.26 0.12 2.65 0.27 3.76 0.47-0.35-2.06-0.82-3.87-1.25-5.52-0.43-1.64-0.86-3.06-1.26-4.17-0.64-1.75-1.85-3.75-3.44-5.53l-0.72-0.78q-0.94-1.03-1.97-1.97-0.6-0.56-1.19-1.07-1.14-0.98-2.25-1.8-0.37-0.29-0.75-0.53c-2.02-1.31-4.64-2.67-7.28-3.7q-0.99-0.39-1.97-0.7-1-0.29-1.97-0.48c-1.3-0.25-2.52-0.38-3.62-0.33-1.17 0.04-2.64 0.17-4.32 0.39q-1.26 0.15-2.66 0.37-1.41 0.25-2.93 0.57c0.5 0.89 1.08 1.9 1.59 2.99 0.52 1.08 1 2.16 1.39 3.03 3.2-0.55 5.98-0.88 7.86-0.97z"/>
		</g>
		<g id="&lt;Group&gt;">
			<path id="&lt;Path&gt;" class="s0" d="m433.63 237.53c-0.53 0.84-1.06 1.8-1.53 2.74-0.52 0.95-0.98 1.88-1.31 2.67 2.5 2.13 4.97 4.23 7.19 6.07 0 0 1.22-0.96 2.43-1.91 1.22-0.98 2.43-1.96 2.43-1.96-2.72-2.19-5.81-4.92-9.21-7.61z"/>
			<path id="&lt;Path&gt;" class="s0" d="m453.38 235.78c-3.2 3.94-6.84 7.5-9.65 9.96q-0.03 0.02-0.06 0.06-0.96 0.83-1.8 1.49-1.37 1.08-2.99 2.46h9.91c2.44-2.19 5.24-5 8.05-8.11-0.21-0.65-0.55-1.59-1.1-2.63-0.58-1.04-1.36-2.18-2.36-3.23z"/>
			<path id="&lt;Path&gt;" class="s0" d="m397.63 101.93c3.25 3.4 5.01 6.18 5.97 8.45 0.9 2.33 1.07 4.12 1.24 5.51 0.08 0.7 0.19 1.67 0.33 2.84 0.12 1.17 0.28 2.5 0.33 4.01 0.14 3 0.19 6.44 0 9.69q0.01 0.01 0.49 0.14 0.48 0.14 1.27 0.4c1.04 0.34 2.43 0.8 3.82 1.27 2.79 0.94 5.63 1.96 5.63 1.96 0 0 0.07-2.33 0.08-5.87-0.01-1.76 0.01-3.87-0.09-6.07-0.12-2.19-0.27-4.54-0.46-6.9-0.34-4.75-1.21-8.47-2.15-11.42q-0.71-2.2-1.53-3.79-0.85-1.55-1.78-2.51c-1.38-1.45-3.25-3.41-5.33-5.59l-7.85 7.85z"/>
			<path id="&lt;Path&gt;" class="s0" d="m371.01 133.96q1.43 1.49 3.23 2.54 1.74 1.13 3.79 1.93 2.07 0.8 4.42 1.36c1.55 0.4 3.12 0.78 4.8 1.1 0.83 0.17 2.03 0.42 3.52 0.76q1.12 0.26 2.43 0.56c0.87 0.21 1.75 0.47 2.71 0.74 3.78 1.08 8.46 2.42 12.87 4.13 2.23 0.83 4.49 1.69 6.62 2.56 2.08 0.9 4.06 1.79 5.85 2.62 1.79 0.83 3.41 1.58 4.69 2.23 1.25 0.66 2.21 1.19 2.79 1.52 2.29 1.33 4.81 2.36 7.36 4.31 1.22 0.99 2.45 2.22 3.66 3.83q0.9 1.2 1.78 2.71 0.45 0.76 0.87 1.61 0.39 0.86 0.77 1.81c1.38 3.53 2.13 6.11 2.28 8.49 0.11 2.4-0.26 4.55-0.96 7.17q-0.27 0.99-0.63 2.18-0.34 1.19-0.82 2.49c-0.62 1.73-1.31 3.52-1.94 5.13-0.64 1.61-1.23 3.04-1.66 4.07-0.42 1.02-0.73 1.65-0.73 1.65 0 0 2.21 1.87 4.43 3.82 1.12 0.99 2.24 1.98 3.07 2.72q0.64 0.58 1.02 0.92 0.37 0.34 0.37 0.35c0 0 0.11-0.23 0.28-0.64q0.26-0.63 0.72-1.72c0.61-1.46 1.44-3.47 2.32-5.67q0.66-1.68 1.34-3.4c0.43-1.15 0.81-2.28 1.19-3.36 0.75-2.19 1.41-4.13 1.85-5.41 0.44-1.29 0.85-2.71 1.12-4.14 0.26-1.42 0.44-2.88 0.53-4.3 0.16-2.84 0.02-5.55-0.7-7.41-0.73-1.86-1.5-3.82-2.43-6.18-0.48-1.17-0.94-2.47-1.57-3.85q-0.93-2.06-2.07-4.58-1.14-2.53-2.93-4.47c-1.22-1.29-2.61-2.42-4.09-3.46-1.48-1.03-3.07-1.97-4.69-2.87-1.65-0.88-3.39-1.7-5.08-2.57-0.85-0.44-2.05-1.03-3.49-1.73q-1.08-0.51-2.33-1.11c-0.83-0.4-1.77-0.78-2.71-1.19-1.91-0.81-3.97-1.66-6.1-2.51-1.07-0.43-2.12-0.87-3.24-1.27q-1.67-0.58-3.36-1.17c-2.24-0.76-4.44-1.49-6.54-2.16-2.12-0.65-4.19-1.18-6.03-1.68-1.85-0.48-3.5-0.9-4.88-1.24-1.37-0.35-2.55-0.55-3.32-0.71-3.13-0.61-5.69-1.25-8.03-2.33-2.42-1.02-4.6-2.5-6.88-4.9l-0.1-0.12-8.04 8.04c0.67 0.7 1.51 1.58 2.67 2.8z"/>
			<path id="&lt;Path&gt;" class="s0" d="m402.76 166.6c-0.49 2.73-0.92 5.45-0.95 7.93q-0.02 0.93 0.04 1.81c0.03 0.6 0.06 1.19 0.13 1.76q0.21 1.71 0.86 3.18c0.58 1.28 0.93 2.04 1.42 3.12 0.44 1.1 0.99 2.51 2 5.07 1.08 2.54 2.61 4.79 4.76 6.82q0.8 0.76 1.7 1.49 0.91 0.72 1.84 1.46 1.86 1.45 4 2.86c1.41 0.95 4.14 2.76 7.19 5.24 1.56 1.22 3.26 2.6 5.04 4.07 0.91 0.74 1.76 1.51 2.62 2.3q1.31 1.2 2.62 2.4c1.73 1.63 3.53 3.29 5.12 4.92 1.56 1.63 3.05 3.22 4.39 4.68 1.33 1.46 2.53 2.78 3.46 3.87 0.9 1.09 1.58 1.95 1.98 2.48 1.55 2.03 3.39 3.91 4.97 6.55 1.49 2.64 2.61 6.07 2.87 11.14h11.12c-0.05-2.03-0.1-4.33-0.17-7.03q-0.04-1.39-0.28-2.7-0.22-1.31-0.71-2.55c-0.63-1.65-1.46-3.23-2.43-4.75-0.97-1.53-2.06-3-3.21-4.46-1.18-1.45-2.47-2.88-3.7-4.34-0.62-0.73-1.49-1.73-2.55-2.93-1.08-1.2-2.27-2.6-3.75-4.08-1.45-1.48-3.03-3.07-4.67-4.67q-1.22-1.2-2.49-2.42c-0.84-0.81-1.76-1.6-2.64-2.38-3.57-3.13-6.99-6.1-10.12-8.39-3.07-2.32-5.45-4.09-6.79-4.97-2.66-1.77-4.81-3.32-6.55-5.23-0.85-0.96-1.71-1.96-2.45-3.13-0.75-1.16-1.42-2.48-2.03-4.02-0.57-1.55-1.06-2.95-1.36-4.32q-0.43-2.03-0.45-3.94c0-2.58 0.25-4.95 0.61-7.43 0.33-2.45 1.03-5.92 1.4-8.7 0.42-2.84 0.75-5.04 0.75-5.04 0 0-0.69-0.31-1.71-0.77q-0.78-0.34-1.75-0.77-1-0.4-2.07-0.82c-2.8-1.11-5.55-2.14-5.55-2.14 0 0-0.32 3.44-0.77 7.44-0.53 4.07-1.34 8.73-1.74 11.39z"/>
			<path id="&lt;Path&gt;" class="s0" d="m363.33 146.63c2.14-1.95 3.38-4.21 3.96-7.45 0.5-2.78 0.82-4.55 0.91-5.09l-1.35-1.44-4.74 4.74q-0.1 0.54-0.15 0.83c-0.3 1.72-0.7 3.25-2.44 4.93-2.19 2.12-3.44 1.28-3.87 0.81l-0.05-0.06-3.91 3.91c1.95 2.07 4.36 2.17 6.56 1.58 2.18-0.59 4.13-1.9 5.08-2.76z"/>
			<path id="&lt;Path&gt;" class="s0" d="m369.19 136.43l1.13-0.17-0.89-0.9z"/>
			<path id="&lt;Path&gt;" class="s0" d="m418.27 86.11c-1.5 1.46-3.57 1.8-4.65 1.76 0 0-0.05 1.68-0.1 3.35-0.07 1.66-0.14 3.32-0.14 3.32 0.66 0.05 1.9 0.13 3.07 0.1 2.85-0.06 5.09-0.8 6.77-2.32 1.22-1.11 2.57-3.13 2.82-5.72 0.25-2.59-0.63-5.78-3.82-9.1q-0.06-0.05-0.12-0.1l-3.9 3.9c1.17 1.24 1.8 3.14 0.07 4.81z"/>
			<path id="&lt;Path&gt;" class="s0" d="m411.55 97.43c0.1-2.08 0.21-7.32 0.2-9.68l-4.81 4.81z"/>
			<path id="&lt;Path&gt;" class="s0" d="m422.88 231.27c-1.46 2.33-2.94 4.68-3.93 6.96-0.51 1.14-0.86 2.26-1.17 3.37q-0.47 1.67-0.44 3.28c0.05 1.91 0.07 2.79 0.13 4.87h11.36c-0.04-3.21 0.56-5.8 1.51-8.13 0.5-1.17 0.97-2.26 1.54-3.33q0.84-1.6 1.79-3.18c0.64-1.07 1.44-2.33 2.27-3.64q0.64-0.99 1.22-1.96 0.59-0.99 1.14-1.9c1.48-2.46 2.63-4.37 2.63-4.37 0 0-0.51-0.54-1.28-1.36q-0.58-0.63-1.32-1.39-0.77-0.75-1.59-1.55c-2.17-2.1-4.32-4.1-4.32-4.1 0 0-1.61 3.06-3.56 6.58-0.99 1.76-2.19 3.66-3.24 5.39-1.05 1.71-2.02 3.29-2.74 4.46z"/>
			<path id="&lt;Path&gt;" class="s0" d="m415.26 244.8c-1.45 1.14-4.98 3.78-6.61 4.95h6.71z"/>
			<path id="&lt;Path&gt;" class="s0" d="m411.95 245.52c-0.45-0.35-1.31-0.98-2.19-1.49-2.14-1.27-4.28-1.8-6.55-1.69-1.64 0.08-4 0.58-5.94 1.73-1.94 1.15-3.46 2.91-3.37 5.65l0.01 0.03h5.54c0-1.05 0.84-2.16 3.2-2.2 2.09-0.03 3.85 0.76 4.62 1.3 0 0 1.17-0.82 2.34-1.64 1.17-0.85 2.34-1.69 2.34-1.69z"/>
			<path id="&lt;Path&gt;" class="s0" d="m483.97 238.6c-2.88 0.13-5.31 1.52-7.89 4.35-2.19 2.4-3.64 3.82-4.08 4.25l0.05 2.55h6.8q0.37-0.39 0.58-0.61c1.36-1.45 2.68-2.69 5.09-2.72 3.05-0.05 3.43 2.29 3.45 3.3v0.03h5.53c-0.14-4.76-1.89-7.61-3.92-9.21-2.02-1.61-4.33-2-5.61-1.94z"/>
			<path id="&lt;Path&gt;" class="s0" d="m471.87 243.14l0.07 1.7 0.88-0.84z"/>
			<path id="&lt;Path&gt;" class="s0" d="m403.53 188.32c0 0-0.63-1.61-1.25-3.22-0.71-1.57-1.41-3.15-1.41-3.15-0.53 0.93-1.51 2.64-2.45 4.21-0.46 0.79-0.94 1.55-1.36 2.19-0.4 0.63-0.72 1.14-0.89 1.41-0.93 1.46-1.88 2.71-4.13 3.6-2.83 1.12-3.68-0.13-3.9-0.72-0.37-1-0.07-2.38 2.15-3.34 1.91-0.83 3.86-0.79 4.75-0.57 0 0 0.21-0.31 0.5-0.75 0.28-0.46 0.66-1.06 1.04-1.66 0.76-1.22 1.51-2.45 1.51-2.45-0.54-0.14-1.59-0.38-2.59-0.52-2.48-0.34-4.66-0.01-6.71 0.96-1.49 0.7-3.48 2.07-4.83 3.86-0.67 0.9-1.18 1.9-1.39 2.98q-0.15 0.81-0.05 1.68 0.12 0.87 0.46 1.83c1.03 2.65 3.24 3.66 5.5 3.95 2.24 0.29 4.5-0.15 5.72-0.59 2.71-0.97 4.82-2.61 6.55-5.36 1.52-2.37 2.48-3.88 2.78-4.34z"/>
			<path id="&lt;Path&gt;" class="s0" d="m403.56 190.85l1.11 0.27-0.49-1.17z"/>
			<path id="&lt;Path&gt;" class="s0" d="m454.23 162.43q0.01 0.01 0.16 0.37 0.17 0.35 0.41 0.97c0.31 0.81 0.73 1.89 1.16 2.97 0.84 2.16 1.68 4.33 1.68 4.33 0.5-1.1 1.42-3.14 2.26-5.11 0.85-1.97 1.63-3.86 1.9-4.55 0.77-1.9 1.47-3.53 3.69-4.49 1.4-0.6 2.42-0.4 3.14 0.07 0.71 0.47 1.08 1.23 1.27 1.69 0.64 1.6 0.51 3.62-1.74 4.51-1.95 0.76-4 0.28-4.99-0.16 0 0-0.68 1.52-1.36 3.05-0.69 1.51-1.38 3.01-1.38 3.01 0.59 0.3 1.72 0.85 2.81 1.27q2.01 0.78 3.74 0.92 1.76 0.12 3.36-0.45c1.53-0.55 3.61-1.91 4.85-4.22 1.21-2.29 1.6-5.57-0.11-9.87-0.86-2.26-2.11-3.85-3.34-5-1.24-1.15-2.56-1.83-3.81-2.19-2.52-0.73-4.82-0.2-5.99 0.35-2.61 1.23-4.31 3.44-5.6 7.05-1.09 3.06-1.87 4.92-2.11 5.48z"/>
			<path id="&lt;Path&gt;" class="s0" d="m452.53 158.74l0.72 1.54 0.49-1.12z"/>
			<path id="&lt;Path&gt;" class="s0" d="m403.88 115.75c0-1.07-0.2-2.29-0.51-3.47q-0.23-0.89-0.54-1.7-0.33-0.79-0.69-1.43c-3.9-0.22-7.61-0.25-10.75-0.1 0 0-0.15 1.6-0.3 3.21-0.17 1.59-0.34 3.17-0.34 3.17 1.84-0.1 3.93-0.14 6.18-0.11 2.24 0.05 4.56 0.22 6.95 0.43z"/>
			<path id="&lt;Path&gt;" class="s0" d="m383.52 116.1l-0.01 0.08c-0.3 3.04-0.59 6.63-0.86 10.27 1.32 0.77 4.21 2.02 5.8 2.28q0.18-1.83 0.36-3.61 0.09-0.9 0.18-1.77 0.07-0.86 0.13-1.7c0.19-2.23 0.38-4.33 0.59-6.15q0.13-1.26 0.29-2.3 0.27-1.79 0.44-4.11v-0.03l-6.91 6.91z"/>
			<path id="&lt;Path&gt;" class="s0" d="m425.07 119.89c1.03 0.41 2.45 1.45 3.91 2.82q1.11 1.04 2.18 2.25c0.7 0.8 1.39 1.63 1.93 2.5 1.11 1.73 2.11 3.75 2.83 5.62 0.73 1.86 1.16 3.56 1.09 4.7-0.08 1.67-0.34 4.03-0.8 6.76 0.83 0.41 1.96 0.98 3.08 1.61 1.13 0.63 2.16 1.37 2.92 2.03q0.29-1.43 0.53-2.76 0.22-1.32 0.36-2.5c0.2-1.58 0.32-2.97 0.37-4.09 0.05-1.09-0.08-2.32-0.33-3.61-0.25-1.29-0.62-2.65-1.15-3.96-1.03-2.64-2.39-5.25-3.69-7.28-0.64-1.02-1.49-2.05-2.39-3.11-0.91-1.05-1.91-2.09-2.94-3.06-1.03-0.97-2.1-1.87-3.17-2.62-1.1-0.72-2.2-1.3-3.23-1.67-2.28-0.81-5.79-1.8-9.92-2.59 0 0 0.06 0.43 0.16 1.07 0.07 0.64 0.17 1.51 0.27 2.37 0.18 1.72 0.37 3.43 0.37 3.43 3.15 0.71 5.9 1.42 7.62 2.09z"/>
			<path id="&lt;Path&gt;" class="s0" d="m395.72 162.63c-0.45-0.16-0.93-0.46-1.49-0.83q-0.83-0.57-1.71-1.37c-1.15-1.05-2.28-2.35-3.11-3.67q-0.18-0.28-0.36-0.59-0.14-0.25-0.3-0.51-0.3-0.48-0.56-0.98c-1.16-2.18-1.92-4.62-1.82-6.08 0.11-1.62 0.32-3.94 0.66-6.79-1.77-0.29-4.22-0.93-5.73-1.26-0.41 3.63-0.79 6.72-0.86 8.68q-0.04 0.88 0.1 1.81 0.07 0.47 0.17 0.94 0.09 0.49 0.21 0.98c0.31 1.31 0.78 2.62 1.34 3.83q0.01 0.01 0.01 0.01 0.24 0.53 0.51 1.02 0.5 0.96 1.03 1.78 0.18 0.28 0.34 0.56c0.93 1.45 2.27 3.06 3.83 4.45 0.8 0.68 1.57 1.36 2.39 1.92q1.22 0.86 2.5 1.32 1.34 0.48 3.39 1.06 2.07 0.58 4.54 1.33c0.05-0.77 0.19-1.78 0.33-2.81 0.13-1.02 0.29-2.09 0.46-3.03-2.49-0.68-4.53-1.27-5.87-1.77z"/>
			<path id="&lt;Path&gt;" class="s0" d="m415.11 168.3c-0.28 1.95-0.58 4.39-0.56 6.09 3.18 1.02 6.26 1.99 8.96 2.85 0 0 0.81-1.35 1.54-2.7 0.74-1.37 1.49-2.74 1.49-2.74-1.67-0.49-3.51-1.06-5.43-1.66q-1.44-0.45-2.93-0.93c-0.99-0.31-2.04-0.6-3.07-0.91z"/>
			<path id="&lt;Path&gt;" class="s0" d="m443.39 184.99c0.69-1.65 1.45-4.23 1.46-6.44-3.68-1.77-7.29-3.28-10.36-4.39 0 0-0.76 1.4-1.51 2.8-0.76 1.38-1.53 2.75-1.53 2.75 1.72 0.61 3.72 1.34 5.72 2.25 1.99 0.9 4.1 1.93 6.22 3.03z"/>
			<path id="&lt;Path&gt;" class="s0" d="m433.76 173.81q0.56-1.12 1.14-2.37 0.53-1.23 1.08-2.56 1.09-2.68 2.13-5.66c-0.9-1.03-2.71-2.95-5.42-4.1-0.38 1.23-0.75 2.42-1.18 3.6q-0.65 1.78-1.31 3.43c-0.89 2.2-1.77 4.19-2.6 5.87q-0.02 0.03-0.04 0.08-0.56 1.13-1.09 2.06-0.83 1.53-1.88 3.44l-0.04 0.07c-1.54 2.89-3.27 6.31-5.02 9.74 1.07 1.23 3.55 3.2 4.66 4.07 1.18-2.18 2.34-4.34 3.44-6.37 1.08-2.04 2.06-3.94 2.98-5.6q0.01-0.04 0.04-0.07 0.64-1.17 1.21-2.13 0.88-1.48 1.86-3.42z"/>
			<path id="&lt;Path&gt;" class="s0" d="m417.94 225.1c-0.35-0.32-0.68-0.79-1.04-1.34q-0.56-0.85-1.06-1.92c-0.66-1.41-1.2-3.05-1.47-4.58-0.22-1.54-0.45-3.24-0.38-4.8 0.05-1.55 0.3-2.94 0.72-3.8 0.75-1.44 1.85-3.5 3.26-6-1.79-0.97-3.65-2.35-4.88-3.32-1.81 3.17-3.28 5.79-4.08 7.53-0.71 1.6-1.14 3.68-1.23 5.76q-0.07 1.56 0.08 3.06 0.07 0.74 0.18 1.44 0.07 0.7 0.18 1.33c0.3 1.7 0.92 3.7 1.83 5.58 0.48 0.93 0.91 1.86 1.45 2.69q0.81 1.27 1.81 2.19 1.09 0.99 2.82 2.37c0.56 0.46 1.2 0.95 1.81 1.47q0.95 0.77 1.97 1.62c0.35-0.59 0.84-1.43 1.38-2.35 0.51-0.91 1.09-1.9 1.67-2.79-2.15-1.69-3.9-3.11-5.02-4.14z"/>
			<path id="&lt;Path&gt;" class="s0" d="m461.48 197.05c0.8 0.77 1.72 2.28 2.55 4.11 0.81 1.83 1.62 3.96 1.94 5.98q0.07 0.44 0.15 0.89 0.05 0.39 0.1 0.78l0.08 0.8q0.03 0.33 0.06 0.67 0.05 0.61 0.08 1.22c0.1 2.8-0.13 5.43-0.81 6.79-0.78 1.66-2.11 4.02-3.79 6.66 0.42 0.49 1.15 1.35 1.97 2.31 0.81 0.97 1.61 2.07 2.28 3q0.88-1.28 1.67-2.49c0.53-0.8 0.96-1.57 1.39-2.3 0.84-1.47 1.54-2.77 2.03-3.84 0.8-1.69 1.29-3.95 1.52-6.35q0.02-0.53 0.04-1.06 0.05-1.39-0.02-2.79-0.04-0.81-0.1-1.59-0.12-1.51-0.34-2.87-0.07-0.46-0.14-0.91-0.17-0.89-0.39-1.85-0.26-0.96-0.6-1.95c-0.44-1.32-0.96-2.67-1.54-3.96-1.17-2.59-2.57-4.97-4.24-6.43-1.75-1.59-4.59-3.79-7.96-6.08-0.56 1.98-1.5 4.6-2.17 6.38 2.68 1.86 4.93 3.58 6.24 4.88z"/>
		</g>
		<g id="&lt;Group&gt;">
			<path id="&lt;Path&gt;" class="s0" d="m388.41 371.13c-1.95 0.44-4.21 1.21-5.83 1.83 0.26 3.27 0.52 6.5 0.79 9.37 0 0 1.54 0.18 3.08 0.36 1.55 0.17 3.1 0.34 3.1 0.34-0.18-1.73-0.35-3.64-0.52-5.63-0.15-1.99-0.42-4.16-0.62-6.27z"/>
			<path id="&lt;Path&gt;" class="s0" d="m403.62 383.85q-1.92 0.17-3.78 0.29-1.85 0.12-3.64 0.13c-2.38 0.01-4.57-0.05-6.44-0.18q-0.04-0.01-0.09-0.01-1.27-0.09-2.33-0.22-1.73-0.2-3.86-0.38l7.02 7.02c3.27 0.17 7.24 0.17 11.43-0.05 0.66-1.19 1.61-3.7 1.69-6.6z"/>
			<path id="&lt;Path&gt;" class="s0" d="m458.85 249.79c-0.12 4.7-0.85 7.91-1.76 10.2-0.98 2.28-2.16 3.66-3.02 4.77-0.87 1.11-2.43 3.08-4.35 5.31-2.02 2.23-4.46 4.69-6.9 6.86 0 0 0.36 0.64 0.89 1.62 0.55 0.97 1.18 2.27 1.82 3.6 1.29 2.63 2.56 5.36 2.56 5.36 0 0 1.71-1.59 4.24-4.09q0.96-0.95 2.04-2.03 1.04-1.11 2.15-2.33c1.48-1.63 3.04-3.4 4.59-5.21 0.76-0.9 1.51-1.77 2.14-2.63q0.94-1.28 1.74-2.49 1.6-2.41 2.66-4.47c0.7-1.38 1.27-2.63 1.59-3.77q0.48-1.7 0.51-3.03c0.05-2 0.12-4.7 0.19-7.71h-11.09z"/>
			<path id="&lt;Path&gt;" class="s0" d="m417.36 253.62q-0.04 2.07 0.48 4.1c0.35 1.35 0.74 2.69 1.34 4.04q0.88 2.02 2.14 4.08c0.4 0.69 0.87 1.38 1.3 2.08q0.64 1.04 1.34 2.1c0.94 1.41 2.67 4.1 4.71 7.57 0.94 1.72 1.97 3.64 3.03 5.67 1.04 2.03 2.2 4.19 3.13 6.35 1.92 4.31 3.9 8.8 5.15 12.48 1.32 3.69 2.3 6.67 2.66 7.95 1.27 5.06 4.24 10.11 0.09 20.3-1.49 3.49-2.91 5.79-4.44 7.59-1.52 1.82-3.37 3.05-5.74 4.4-2.4 1.33-6.05 3.21-9.31 4.53-3.21 1.36-5.76 2.34-5.76 2.34 0 0 0.07 0.73 0.19 1.83 0.11 1.11 0.18 2.55 0.27 4.02 0.18 2.94 0.3 5.95 0.3 5.95 0 0 3.68-1.44 8.08-3.3 4.3-1.89 9.21-4.31 11.71-5.49 2.42-1.22 4.93-2.95 7.1-4.82 1.07-0.93 2.1-1.89 2.88-2.87 0.79-0.99 1.42-1.96 1.83-2.87 0.82-1.82 1.69-3.74 2.73-6.05 0.93-2.36 2.02-5.11 3.38-8.55 0.71-1.71 0.95-3.49 1.03-5.25 0.06-1.77-0.1-3.55-0.39-5.32q-0.23-1.33-0.55-2.66-0.37-1.35-0.78-2.7-0.86-2.67-1.74-5.41c-0.29-0.91-0.7-2.17-1.21-3.68-0.56-1.52-1.24-3.3-2-5.21-0.76-1.92-1.59-3.98-2.47-6.08-0.95-2.12-1.98-4.28-3-6.4q-0.77-1.57-1.53-3.13-0.74-1.54-1.57-3.02c-1.08-1.96-2.12-3.8-3.07-5.45-0.96-1.65-1.79-3.11-2.57-4.32-0.79-1.21-1.42-2.18-1.86-2.85-0.88-1.33-1.67-2.55-2.34-3.75q-0.5-0.89-0.91-1.78-0.4-0.89-0.78-1.8c-0.99-2.43-1.48-5.02-1.39-8.33q0-0.08 0.01-0.16h-11.36c-0.03 0.97-0.06 2.19-0.11 3.87z"/>
			<path id="&lt;Path&gt;" class="s0" d="m416.72 299.13l-1.64 1.21q-0.8 0.62-1.62 1.22-1.63 1.22-3 2.5-2.75 2.56-4.02 5.51c-0.51 1.31-0.82 2.09-1.26 3.19-0.21 0.55-0.46 1.18-0.77 1.99-0.34 0.8-0.8 1.77-1.36 3.03q-0.85 1.88-1.15 3.94c-0.17 1.39-0.35 2.77-0.31 4.24 0.01 2.93 0.64 6.16 1.22 9.46 0.31 1.66 0.9 4.83 1.4 8.8 0.22 1.96 0.43 4.12 0.63 6.41q0.13 1.73 0.28 3.51c0.07 1.18 0.09 2.35 0.13 3.54 0.08 2.38 0.12 4.78 0.13 7.09 0.03 1.16-0.03 2.26-0.06 3.33q-0.07 1.62-0.13 3.09c-0.19 3.93-0.41 7.07-0.62 8.35-0.36 2.53-0.38 5.14-1.14 8.12-0.36 1.51-1.01 3-1.94 4.65-0.94 1.65-2.2 3.4-3.9 5.28l7.86 7.86c1.41-1.47 3-3.14 4.87-5.1 2.59-2.63 3.84-5.99 4.65-9.49 0.38-1.77 0.7-3.55 0.86-5.43q0.22-2.8 0.46-5.68c0.15-1.91 0.45-5.27 0.47-9.43 0.04-2.06 0.06-4.29 0.05-6.57 0.01-1.13-0.04-2.32-0.1-3.5q-0.09-1.77-0.17-3.55c-0.15-2.36-0.26-4.65-0.48-6.86-0.24-2.23-0.49-4.33-0.73-6.22-0.26-1.9-0.46-3.56-0.7-4.98-0.26-1.42-0.48-2.56-0.62-3.35-0.3-1.56-0.55-2.99-0.7-4.35-0.16-1.37-0.2-2.65-0.2-3.97 0.02-2.62 0.62-5.17 1.92-8.21 1.2-3.07 2.79-5.28 4.58-7.12 1.69-1.86 3.64-3.33 5.66-4.82 4.11-2.99 11.26-8.19 11.26-8.19 0 0-0.24-0.7-0.69-1.76-0.43-1.04-1.02-2.44-1.6-3.83-1.17-2.76-2.36-5.42-2.36-5.42 0 0-2.69 2.2-5.88 4.7q-1.2 0.93-2.45 1.91c-0.83 0.64-1.73 1.25-2.55 1.85-1.64 1.17-3.16 2.25-4.28 3.05z"/>
			<path id="&lt;Path&gt;" class="s0" d="m402.97 257.16c2.88 0.14 5.36-0.58 8.06-2.47 2.33-1.62 3.81-2.65 4.26-2.96l0.07-1.98h-6.71q-0.45 0.32-0.7 0.49c-1.42 1-2.79 1.8-5.2 1.76-3.05-0.05-3.34-1.53-3.32-2.17l0.02-0.08h-5.54c-0.08 2.85 1.55 4.63 3.51 5.77 1.97 1.13 4.26 1.58 5.55 1.64z"/>
			<path id="&lt;Path&gt;" class="s0" d="m414.33 254.08l0.92 0.68 0.01-1.27z"/>
			<path id="&lt;Path&gt;" class="s0" d="m484.62 253.2c-2.1-0.04-3.8-1.26-4.54-2.05 0 0-1.22 1.15-2.44 2.3-1.22 1.12-2.44 2.25-2.44 2.25 0.43 0.49 1.25 1.43 2.09 2.23 2.06 1.98 4.16 3.03 6.43 3.14 1.64 0.07 4.03-0.39 6.04-2.05 2.01-1.65 3.65-4.52 3.74-9.12q0-0.07 0-0.15h-5.53c-0.05 1.7-0.95 3.49-3.35 3.45z"/>
			<path id="&lt;Path&gt;" class="s0" d="m471.86 256.45c1.54-1.41 5.33-5.02 6.99-6.7h-6.8z"/>
			<path id="&lt;Path&gt;" class="s0" d="m385.21 359.09q-1.99 0.5-3.96 0.99-1.96 0.51-3.72 1.18-1.75 0.66-3.2 1.56-1.51 0.84-2.63 2c-1.32 1.38-1.92 2.02-3.36 3.52l8.04 8.04c2.24-2.29 4.49-3.7 6.82-4.67 2.27-1.02 4.55-1.65 6.95-2.25 1.21-0.31 2.69-0.62 4.18-0.97 1.49-0.37 3.01-0.74 4.39-1.08 2.8-0.68 4.97-1.21 4.97-1.21q0-0.01 0.02-0.51c0.01-0.33 0.04-0.79 0.04-1.36-0.01-1.14-0.01-2.65-0.02-4.16-0.03-3-0.11-5.92-0.11-5.92 0 0-3.32 1-7.22 2.09q-1.47 0.41-3 0.83-1.56 0.37-3.07 0.73c-1.96 0.46-3.78 0.88-5.12 1.19z"/>
			<path id="&lt;Path&gt;" class="s0" d="m370.28 363.29c-1.83-0.22-6.19-0.85-8.17-1.18l4.74 4.74z"/>
			<path id="&lt;Path&gt;" class="s0" d="m367.44 361.46c-0.08-0.56-0.24-1.61-0.5-2.59-0.62-2.41-1.76-4.29-3.44-5.82-1.21-1.11-3.24-2.43-5.42-2.99-2.19-0.56-4.51-0.39-6.38 1.6l-0.01 0.03 3.91 3.91c0.75-0.73 2.13-0.92 3.82 0.72 1.5 1.46 2.18 3.25 2.35 4.18 0 0 1.41 0.25 2.81 0.49 1.43 0.24 2.86 0.47 2.86 0.47z"/>
			<path id="&lt;Path&gt;" class="s0" d="m423.28 407.48c-2.14-1.94-4.84-2.68-8.67-2.5-3.25 0.15-5.28 0.13-5.89 0.12l-1.78 1.84 4.81 4.81q0.54-0.02 0.84-0.02c1.99-0.07 3.8-0.01 5.53 1.67 2.19 2.12 0.8 4.05 0.1 4.78l-0.02 0.02 3.9 3.9c3.28-3.46 4.07-6.72 3.77-9.28-0.29-2.57-1.64-4.48-2.59-5.34z"/>
			<path id="&lt;Path&gt;" class="s0" d="m411.49 402.14l-1.15 1.25 1.22 0.03z"/>
			<path id="&lt;Path&gt;" class="s0" d="m401.96 315.04c0 0 0.19-0.39 0.45-0.98 0.24-0.6 0.56-1.41 0.88-2.21 0.64-1.6 1.28-3.2 1.28-3.2-1.04 0.28-2.96 0.78-4.76 1.22-1.78 0.43-3.46 0.83-4.07 0.97-1.65 0.4-3.27 0.58-5.47-0.37-2.79-1.22-2.46-2.68-2.27-3.28 0.39-0.99 1.61-1.74 3.86-0.85 1.94 0.77 3.25 2.17 3.76 2.96 0 0 1.4-0.31 2.8-0.61 1.41-0.33 2.82-0.65 2.82-0.65-0.28-0.48-0.83-1.39-1.44-2.2-1.46-1.98-3.31-3.3-5.44-4.07-1.56-0.56-3.87-0.98-6.11-0.68-2.24 0.31-4.33 1.35-5.31 3.88q-0.19 0.5-0.3 0.97-0.14 0.47-0.19 0.92-0.1 0.91 0.08 1.74c0.22 1.12 0.77 2.14 1.45 3.04 1.38 1.79 3.33 3.09 4.5 3.64 2.61 1.24 5.18 1.53 8.4 0.84 2.78-0.59 4.55-0.97 5.08-1.08z"/>
			<path id="&lt;Path&gt;" class="s0" d="m400.16 316.83l0.58 0.98 0.51-1.17z"/>
			<path id="&lt;Path&gt;" class="s0" d="m456.04 332.6c0 0-0.21 0.54-0.54 1.35-0.33 0.8-0.73 1.89-1.21 2.94-0.97 2.12-1.93 4.23-1.93 4.23 1.14-0.42 3.25-1.21 5.26-1.99 2.03-0.77 3.84-1.58 4.52-1.88 1.82-0.83 3.53-1.46 5.77-0.57 2.83 1.12 2.27 3.44 1.89 4.38-0.6 1.6-2.19 2.91-4.39 1.95-1.92-0.83-3.02-2.62-3.39-3.63 0 0-1.58 0.59-3.15 1.19-1.56 0.57-3.13 1.13-3.13 1.13 0.2 0.63 0.6 1.81 1.06 2.88 1.13 2.61 2.67 4.39 4.72 5.37 1.48 0.7 3.87 1.19 6.37 0.43 1.25-0.38 2.53-1.08 3.73-2.2q0.91-0.85 1.74-2.04c0.55-0.79 1.07-1.71 1.48-2.79 1.8-4.5 1.31-7.86 0.07-10.14-1.24-2.28-3.31-3.56-4.5-3.99-1.36-0.49-2.72-0.65-4.17-0.47q-2.17 0.27-4.78 1.49c-2.96 1.38-4.84 2.13-5.42 2.36z"/>
			<path id="&lt;Path&gt;" class="s0" d="m457.5 328.8l-0.6 1.6 1.15-0.44z"/>
			<path id="&lt;Path&gt;" class="s0" d="m453.49 263.98c1.52-1.52 2.94-4.01 3.43-5.9-2.6-2.91-5.2-5.55-7.52-7.67 0 0-1.25 1.03-2.49 2.06-1.25 1-2.49 2-2.49 2 1.37 1.23 2.88 2.69 4.45 4.3q0.58 0.61 1.18 1.23 0.57 0.64 1.15 1.29 1.14 1.31 2.29 2.69z"/>
			<path id="&lt;Path&gt;" class="s0" d="m438.84 249.83l-0.06 0.05c-2.37 1.94-5.11 4.28-7.89 6.66 0.17 0.74 0.61 1.84 1.08 2.92 0.44 1.08 0.97 2.15 1.43 2.79 3.85-3.06 7.34-6.19 10.24-8.47q0.98-0.79 1.84-1.42 1.45-1.07 3.21-2.59l0.02-0.02h-9.77z"/>
			<path id="&lt;Path&gt;" class="s0" d="m465.55 281.89c0.51 1.02 0.73 2.76 0.79 4.76 0.05 2-0.1 4.25-0.47 6.27-0.16 1.01-0.47 2.04-0.82 3.06q-0.52 1.53-1.15 2.91c-0.83 1.83-1.75 3.34-2.55 4.11-1.15 1.14-3.09 2.6-5.35 4.21 0.58 1.73 1.53 4.81 1.7 6.83 3.16-2.16 5.81-4.21 7.49-5.73 0.8-0.74 1.62-1.69 2.34-2.78 0.69-1.1 1.34-2.34 1.93-3.63 0.58-1.3 1.1-2.65 1.54-3.97 0.44-1.32 0.83-2.6 1.02-3.79 0.43-2.37 0.68-5.31 0.62-8.14q-0.02-1.06-0.12-2.1-0.13-1.03-0.33-2c-0.26-1.29-0.62-2.47-1.08-3.46-0.5-1.09-1.21-2.43-2.08-3.94q-0.65-1.13-1.41-2.36-0.81-1.24-1.71-2.55c0 0-0.26 0.35-0.64 0.87-0.4 0.51-0.88 1.2-1.44 1.88-1.09 1.34-2.19 2.68-2.19 2.68 1.74 2.73 3.11 5.17 3.91 6.87z"/>
			<path id="&lt;Path&gt;" class="s0" d="m414.59 291.36c-0.43-0.86-0.67-2.26-0.72-3.81q-0.04-1.18 0.07-2.41c0.07-0.81 0.22-1.61 0.33-2.38q0.07-0.33 0.14-0.68 0.07-0.28 0.14-0.58 0.13-0.54 0.31-1.08c0.37-1.18 0.86-2.33 1.4-3.31 0.54-0.97 1.12-1.78 1.63-2.27 1.16-1.07 3.01-2.56 5.26-4.33-0.5-0.72-1.09-1.64-1.63-2.53-0.54-0.89-1.15-1.76-1.55-2.41q-1.04 0.85-2.01 1.64-0.98 0.78-1.86 1.48-1.75 1.4-2.87 2.4c-0.87 0.79-1.63 1.83-2.27 2.98-0.65 1.16-1.31 2.41-1.77 3.66q0 0.01 0 0.01-0.21 0.54-0.38 1.08-0.34 1.02-0.53 1.98-0.07 0.33-0.13 0.64c-0.12 0.85-0.3 1.79-0.39 2.78q-0.14 1.49-0.07 3.06 0.06 1.57 0.38 3.06c0.2 0.98 0.44 1.89 0.82 2.7 0.79 1.69 2.2 4.23 3.95 7.3 1.11-1.03 3.05-2.51 4.64-3.58q-0.95-1.68-1.67-3.04-0.72-1.38-1.22-2.36z"/>
			<path id="&lt;Path&gt;" class="s0" d="m424.26 309.07c-0.82 0.58-1.68 1.26-2.49 1.94-0.8 0.69-1.54 1.39-2.17 1.99 1.48 2.91 2.94 5.79 4.27 8.33 0 0 1.5-0.41 2.99-0.82 1.51-0.44 3.01-0.87 3.01-0.87-0.82-1.53-1.69-3.22-2.61-5-0.96-1.79-1.97-3.67-3-5.57z"/>
			<path id="&lt;Path&gt;" class="s0" d="m432.46 340.89c0.84-0.34 1.85-0.82 2.86-1.42 1-0.6 1.92-1.34 2.69-2.13-1.34-3.85-2.74-7.43-4.16-10.4 0 0-0.37 0.12-0.94 0.3-0.57 0.17-1.34 0.39-2.1 0.61-1.53 0.43-3.05 0.85-3.05 0.85 0.78 1.65 1.61 3.55 2.43 5.63 0.4 1.03 0.83 2.12 1.2 3.21q0.55 1.64 1.07 3.35z"/>
			<path id="&lt;Path&gt;" class="s0" d="m433.57 326.17c3.1-1.08 6.78-2.59 10.59-4.39 0.14-1.36 0.04-4.05-0.98-6.76-2.28 1.19-4.54 2.29-6.68 3.23-2.2 0.92-4.25 1.69-6.04 2.29q-0.04 0-0.08 0.02-1.21 0.4-2.25 0.69-1.68 0.46-3.72 1.11l-0.08 0.03c-3.07 0.96-6.71 2.11-10.48 3.3-0.05 0.82 0.06 2.03 0.17 3.21 0.09 1.16 0.21 2.29 0.29 2.98q1.78-0.52 3.53-1.03 1.73-0.54 3.37-1.05c2.19-0.68 4.27-1.32 6.1-1.83q0.04-0.02 0.08-0.03 1.28-0.36 2.37-0.63c1.12-0.28 2.4-0.65 3.73-1.11q0.04-0.01 0.08-0.03z"/>
			<path id="&lt;Path&gt;" class="s0" d="m386.11 351.26c-0.13-1.93 1.25-5.52 3.02-8.07 1.66-2.64 4.55-5.21 6.33-5.85 1.46-0.54 3.75-1.19 6.53-1.95-0.28-0.97-0.5-2.03-0.66-3.03-0.17-1.01-0.36-2-0.47-2.78q-1.27 0.37-2.45 0.72-1.19 0.33-2.25 0.63-2.12 0.6-3.5 1.08-1.28 0.47-2.5 1.32-0.61 0.43-1.2 0.92-0.62 0.47-1.21 0.99c-1.56 1.39-2.9 3-3.82 4.45-0.96 1.42-1.99 3.25-2.68 5.22-0.37 0.97-0.62 2-0.84 2.96q-0.34 1.46-0.29 2.81 0.07 1.48 0.3 3.66c0.13 1.44 0.38 3.14 0.52 4.88q0.51-0.13 1.18-0.31 0.66-0.18 1.42-0.4c1.01-0.28 2.13-0.57 3.17-0.79-0.31-2.7-0.53-4.93-0.6-6.46z"/>
			<path id="&lt;Path&gt;" class="s0" d="m436.73 362.2c0.09 2.25-1.74 6.86-3.95 10.31q-0.24 0.38-0.51 0.74-0.25 0.31-0.49 0.62l-0.51 0.62q-0.21 0.25-0.44 0.52-0.4 0.45-0.81 0.9c-1.92 2.04-3.98 3.71-5.36 4.25-1.72 0.62-4.34 1.33-7.4 2.01-0.06 0.63-0.15 1.76-0.26 3.01-0.12 1.26-0.27 2.65-0.47 3.76 2.06-0.35 3.87-0.82 5.52-1.25 1.64-0.43 3.06-0.86 4.17-1.26 1.75-0.64 3.75-1.85 5.53-3.44l0.78-0.72q1.03-0.94 1.97-1.97 0.56-0.6 1.07-1.19 0.98-1.14 1.8-2.25 0.29-0.37 0.53-0.75c1.31-2.02 2.67-4.64 3.7-7.28q0.39-0.99 0.7-1.97 0.29-1 0.48-1.97c0.25-1.3 0.38-2.52 0.33-3.62-0.04-1.17-0.17-2.64-0.39-4.32q-0.15-1.26-0.37-2.66-0.25-1.41-0.57-2.93c-0.89 0.5-1.9 1.08-2.99 1.59-1.08 0.52-2.16 1-3.03 1.39 0.55 3.2 0.88 5.98 0.97 7.86z"/>
		</g>
		<g id="&lt;Group&gt;">
			<path id="&lt;Path&gt;" class="s0" d="m261.97 433.63c-0.84-0.53-1.8-1.06-2.74-1.53-0.95-0.52-1.88-0.98-2.67-1.31-2.13 2.5-4.23 4.97-6.07 7.19 0 0 0.96 1.22 1.91 2.43 0.98 1.22 1.96 2.43 1.96 2.43 2.19-2.72 4.92-5.81 7.61-9.21z"/>
			<path id="&lt;Path&gt;" class="s0" d="m263.72 453.38c-3.94-3.2-7.5-6.84-9.96-9.65q-0.02-0.03-0.06-0.06-0.83-0.96-1.49-1.8-1.08-1.37-2.46-2.99v9.91c2.19 2.44 5 5.24 8.11 8.05 0.65-0.21 1.59-0.55 2.63-1.1 1.04-0.58 2.18-1.36 3.23-2.36z"/>
			<path id="&lt;Path&gt;" class="s0" d="m397.57 397.63c-3.4 3.25-6.18 5.01-8.45 5.97-2.33 0.9-4.12 1.07-5.51 1.24-0.7 0.08-1.67 0.19-2.84 0.33-1.17 0.12-2.5 0.28-4.01 0.33-3 0.14-6.44 0.19-9.69 0q-0.01 0.01-0.14 0.49-0.14 0.48-0.4 1.27c-0.34 1.04-0.8 2.43-1.27 3.82-0.94 2.79-1.96 5.63-1.96 5.63 0 0 2.33 0.07 5.87 0.08 1.76-0.01 3.87 0.01 6.07-0.09 2.19-0.12 4.54-0.27 6.9-0.46 4.75-0.34 8.47-1.21 11.42-2.15q2.2-0.71 3.79-1.53 1.55-0.85 2.51-1.78c1.45-1.38 3.41-3.25 5.59-5.33l-7.85-7.85z"/>
			<path id="&lt;Path&gt;" class="s0" d="m365.54 371.01q-1.49 1.43-2.54 3.23-1.13 1.74-1.93 3.79-0.8 2.07-1.36 4.42c-0.4 1.55-0.78 3.12-1.1 4.8-0.17 0.83-0.42 2.03-0.76 3.52q-0.26 1.12-0.56 2.43c-0.21 0.87-0.47 1.75-0.74 2.71-1.08 3.78-2.42 8.46-4.13 12.87-0.83 2.23-1.69 4.49-2.56 6.62-0.9 2.08-1.79 4.06-2.62 5.85-0.83 1.79-1.58 3.41-2.23 4.69-0.66 1.25-1.19 2.21-1.52 2.79-1.33 2.29-2.36 4.81-4.31 7.36-0.99 1.22-2.22 2.45-3.83 3.66q-1.2 0.9-2.71 1.78-0.76 0.45-1.61 0.87-0.86 0.39-1.81 0.77c-3.53 1.38-6.11 2.13-8.49 2.28-2.4 0.11-4.55-0.26-7.17-0.96q-0.99-0.27-2.18-0.63-1.19-0.34-2.49-0.82c-1.73-0.62-3.52-1.31-5.13-1.94-1.61-0.64-3.04-1.23-4.07-1.66-1.02-0.42-1.65-0.73-1.65-0.73 0 0-1.87 2.21-3.82 4.43-0.99 1.12-1.98 2.24-2.72 3.07q-0.58 0.64-0.92 1.02-0.34 0.37-0.35 0.37c0 0 0.23 0.11 0.64 0.28q0.63 0.26 1.72 0.72c1.46 0.61 3.47 1.44 5.67 2.32q1.68 0.66 3.4 1.34c1.15 0.43 2.28 0.81 3.36 1.19 2.19 0.75 4.13 1.41 5.41 1.85 1.29 0.44 2.71 0.85 4.14 1.12 1.42 0.26 2.88 0.44 4.3 0.53 2.84 0.16 5.55 0.02 7.41-0.7 1.86-0.73 3.82-1.5 6.18-2.43 1.17-0.48 2.47-0.94 3.85-1.57q2.06-0.93 4.58-2.07 2.53-1.14 4.47-2.93c1.29-1.22 2.42-2.61 3.46-4.09 1.03-1.48 1.97-3.07 2.87-4.69 0.88-1.65 1.7-3.39 2.57-5.08 0.44-0.85 1.03-2.05 1.73-3.49q0.51-1.08 1.11-2.33c0.4-0.83 0.78-1.77 1.19-2.72 0.81-1.9 1.66-3.96 2.51-6.09 0.43-1.07 0.87-2.12 1.27-3.24q0.58-1.67 1.17-3.36c0.76-2.24 1.49-4.44 2.16-6.54 0.65-2.12 1.18-4.19 1.68-6.03 0.48-1.85 0.9-3.5 1.24-4.88 0.35-1.37 0.55-2.55 0.71-3.32 0.61-3.13 1.25-5.69 2.33-8.03 1.02-2.42 2.5-4.6 4.9-6.88l0.12-0.1-8.04-8.04c-0.7 0.67-1.58 1.51-2.8 2.67z"/>
			<path id="&lt;Path&gt;" class="s0" d="m332.9 402.76c-2.73-0.49-5.45-0.92-7.93-0.95q-0.93-0.02-1.81 0.04c-0.6 0.03-1.19 0.06-1.76 0.13q-1.71 0.21-3.18 0.86c-1.28 0.58-2.04 0.93-3.12 1.42-1.1 0.44-2.51 0.99-5.07 2-2.54 1.08-4.79 2.61-6.82 4.76q-0.76 0.8-1.49 1.7-0.72 0.91-1.46 1.84-1.45 1.86-2.86 4c-0.95 1.41-2.76 4.14-5.24 7.19-1.22 1.56-2.6 3.26-4.07 5.04-0.74 0.91-1.51 1.76-2.3 2.62q-1.2 1.31-2.4 2.62c-1.63 1.73-3.29 3.53-4.92 5.12-1.63 1.56-3.22 3.05-4.68 4.39-1.46 1.33-2.78 2.53-3.87 3.46-1.09 0.9-1.95 1.58-2.48 1.98-2.03 1.55-3.91 3.39-6.55 4.97-2.64 1.49-6.07 2.61-11.14 2.87v11.12c2.03-0.05 4.33-0.1 7.03-0.17q1.39-0.04 2.7-0.28 1.31-0.22 2.55-0.71c1.65-0.63 3.23-1.46 4.75-2.43 1.53-0.97 3-2.06 4.46-3.21 1.45-1.18 2.88-2.47 4.34-3.7 0.73-0.62 1.73-1.49 2.93-2.55 1.2-1.08 2.6-2.27 4.08-3.75 1.48-1.45 3.07-3.03 4.67-4.67q1.2-1.22 2.42-2.49c0.81-0.84 1.6-1.76 2.38-2.64 3.13-3.57 6.1-6.99 8.39-10.12 2.32-3.07 4.09-5.45 4.97-6.79 1.77-2.66 3.32-4.81 5.23-6.55 0.96-0.85 1.96-1.71 3.13-2.45 1.16-0.75 2.48-1.42 4.02-2.03 1.55-0.57 2.95-1.06 4.32-1.36q2.03-0.43 3.94-0.45c2.58 0 4.95 0.25 7.43 0.61 2.45 0.33 5.92 1.03 8.7 1.4 2.84 0.42 5.04 0.75 5.04 0.75 0 0 0.31-0.69 0.77-1.71q0.34-0.78 0.77-1.75 0.4-1 0.82-2.07c1.11-2.8 2.14-5.55 2.14-5.55 0 0-3.44-0.32-7.44-0.77-4.07-0.53-8.73-1.34-11.39-1.74z"/>
			<path id="&lt;Path&gt;" class="s0" d="m352.87 363.33c1.95 2.14 4.21 3.38 7.45 3.96 2.78 0.5 4.55 0.82 5.09 0.91l1.44-1.35-4.74-4.74q-0.54-0.1-0.83-0.15c-1.72-0.3-3.25-0.7-4.93-2.44-2.12-2.19-1.28-3.44-0.81-3.87l0.06-0.05-3.91-3.91c-2.07 1.95-2.17 4.36-1.58 6.56 0.59 2.18 1.9 4.13 2.76 5.08z"/>
			<path id="&lt;Path&gt;" class="s0" d="m363.07 369.19l0.17 1.13 0.9-0.89z"/>
			<path id="&lt;Path&gt;" class="s0" d="m413.39 418.27c-1.46-1.5-1.8-3.57-1.76-4.65 0 0-1.68-0.05-3.35-0.1-1.66-0.07-3.32-0.14-3.32-0.14-0.05 0.66-0.13 1.9-0.1 3.07 0.06 2.85 0.8 5.09 2.32 6.77 1.11 1.22 3.13 2.57 5.72 2.82 2.59 0.25 5.78-0.63 9.1-3.82q0.05-0.06 0.1-0.12l-3.9-3.9c-1.24 1.17-3.14 1.8-4.81 0.07z"/>
			<path id="&lt;Path&gt;" class="s0" d="m402.07 411.55c2.08 0.1 7.32 0.21 9.68 0.2l-4.81-4.81z"/>
			<path id="&lt;Path&gt;" class="s0" d="m268.23 422.88c-2.33-1.46-4.68-2.94-6.96-3.93-1.14-0.51-2.26-0.86-3.37-1.17q-1.67-0.47-3.28-0.44c-1.91 0.05-2.79 0.07-4.87 0.13v11.36c3.21-0.04 5.8 0.56 8.13 1.51 1.17 0.5 2.26 0.97 3.33 1.54q1.6 0.84 3.18 1.79c1.07 0.64 2.33 1.44 3.64 2.27q0.99 0.64 1.96 1.22 0.99 0.59 1.9 1.14c2.46 1.48 4.37 2.63 4.37 2.63 0 0 0.54-0.51 1.36-1.28q0.63-0.58 1.39-1.32 0.75-0.77 1.55-1.59c2.1-2.17 4.1-4.32 4.1-4.32 0 0-3.06-1.61-6.58-3.56-1.76-0.99-3.66-2.19-5.39-3.24-1.71-1.05-3.29-2.02-4.46-2.74z"/>
			<path id="&lt;Path&gt;" class="s0" d="m254.7 415.26c-1.14-1.45-3.78-4.98-4.95-6.61v6.71z"/>
			<path id="&lt;Path&gt;" class="s0" d="m253.98 411.95c0.34-0.45 0.98-1.31 1.49-2.19 1.27-2.14 1.8-4.28 1.69-6.55-0.08-1.64-0.58-4-1.73-5.94-1.15-1.94-2.91-3.46-5.65-3.37l-0.03 0.01v5.54c1.05 0 2.16 0.84 2.2 3.2 0.03 2.09-0.76 3.84-1.3 4.62 0 0 0.82 1.17 1.64 2.34 0.85 1.17 1.69 2.34 1.69 2.34z"/>
			<path id="&lt;Path&gt;" class="s0" d="m260.9 483.97c-0.13-2.88-1.52-5.31-4.35-7.89-2.4-2.19-3.82-3.64-4.25-4.08l-2.55 0.05v6.8q0.39 0.37 0.61 0.58c1.45 1.36 2.69 2.68 2.72 5.09 0.05 3.05-2.29 3.43-3.3 3.45h-0.03v5.53c4.76-0.14 7.61-1.89 9.21-3.92 1.61-2.02 2-4.33 1.94-5.61z"/>
			<path id="&lt;Path&gt;" class="s0" d="m256.36 471.87l-1.7 0.07 0.84 0.88z"/>
			<path id="&lt;Path&gt;" class="s0" d="m311.18 403.53c0 0 1.61-0.63 3.22-1.25 1.57-0.71 3.15-1.41 3.15-1.41-0.93-0.53-2.64-1.51-4.21-2.45-0.79-0.46-1.55-0.94-2.19-1.36-0.63-0.4-1.14-0.72-1.41-0.89-1.46-0.93-2.71-1.88-3.6-4.13-1.12-2.83 0.13-3.68 0.72-3.9 1-0.37 2.38-0.07 3.34 2.15 0.83 1.91 0.79 3.86 0.57 4.75 0 0 0.31 0.21 0.75 0.5 0.46 0.28 1.06 0.66 1.66 1.04 1.22 0.76 2.45 1.51 2.45 1.51 0.14-0.54 0.38-1.59 0.52-2.59 0.34-2.48 0.01-4.66-0.96-6.71-0.7-1.49-2.07-3.48-3.86-4.83-0.9-0.67-1.9-1.18-2.98-1.39q-0.81-0.15-1.68-0.05-0.87 0.12-1.83 0.46c-2.65 1.03-3.66 3.24-3.95 5.5-0.29 2.24 0.15 4.5 0.59 5.72 0.97 2.71 2.61 4.82 5.36 6.55 2.37 1.52 3.88 2.48 4.34 2.78z"/>
			<path id="&lt;Path&gt;" class="s0" d="m308.65 403.56l-0.27 1.11 1.17-0.49z"/>
			<path id="&lt;Path&gt;" class="s0" d="m337.07 454.23q-0.01 0.01-0.37 0.16-0.35 0.17-0.97 0.41c-0.81 0.31-1.89 0.73-2.97 1.16-2.16 0.84-4.33 1.68-4.33 1.68 1.1 0.5 3.14 1.42 5.11 2.26 1.97 0.85 3.86 1.63 4.55 1.9 1.9 0.77 3.53 1.47 4.49 3.69 0.6 1.4 0.4 2.42-0.07 3.14-0.47 0.71-1.23 1.08-1.69 1.27-1.6 0.64-3.62 0.51-4.51-1.74-0.76-1.95-0.28-4 0.16-4.99 0 0-1.52-0.68-3.05-1.36-1.51-0.69-3.01-1.38-3.01-1.38-0.3 0.59-0.85 1.72-1.27 2.81q-0.78 2.01-0.92 3.74-0.12 1.76 0.45 3.36c0.55 1.53 1.91 3.61 4.22 4.85 2.29 1.21 5.57 1.6 9.87-0.11 2.26-0.86 3.85-2.11 5-3.34 1.15-1.24 1.83-2.56 2.19-3.81 0.73-2.52 0.2-4.82-0.35-5.99-1.23-2.61-3.44-4.31-7.05-5.6-3.06-1.09-4.92-1.87-5.48-2.11z"/>
			<path id="&lt;Path&gt;" class="s0" d="m340.76 452.53l-1.54 0.72 1.12 0.49z"/>
			<path id="&lt;Path&gt;" class="s0" d="m383.75 403.88c1.07 0 2.29-0.2 3.47-0.51q0.89-0.23 1.7-0.54 0.79-0.33 1.43-0.69c0.22-3.9 0.25-7.61 0.1-10.75 0 0-1.6-0.15-3.21-0.3-1.59-0.17-3.17-0.34-3.17-0.34 0.1 1.84 0.14 3.93 0.11 6.18-0.05 2.24-0.22 4.56-0.43 6.95z"/>
			<path id="&lt;Path&gt;" class="s0" d="m383.4 383.52l-0.08-0.01c-3.04-0.3-6.63-0.59-10.27-0.86-0.77 1.32-2.02 4.21-2.28 5.8q1.83 0.18 3.61 0.36 0.9 0.09 1.77 0.18 0.86 0.07 1.7 0.13c2.23 0.19 4.33 0.38 6.15 0.59q1.26 0.13 2.3 0.29 1.79 0.27 4.11 0.44h0.03l-6.91-6.91z"/>
			<path id="&lt;Path&gt;" class="s0" d="m379.61 425.07c-0.41 1.03-1.45 2.45-2.82 3.91q-1.04 1.11-2.25 2.18c-0.8 0.7-1.63 1.39-2.5 1.93-1.73 1.11-3.75 2.11-5.62 2.83-1.86 0.73-3.56 1.16-4.7 1.09-1.67-0.08-4.03-0.34-6.76-0.8-0.41 0.83-0.98 1.96-1.61 3.08-0.63 1.13-1.37 2.16-2.03 2.92q1.43 0.29 2.76 0.53 1.32 0.22 2.5 0.36c1.58 0.2 2.97 0.32 4.09 0.37 1.09 0.05 2.32-0.08 3.61-0.33 1.29-0.25 2.65-0.62 3.96-1.15 2.64-1.03 5.25-2.39 7.28-3.69 1.02-0.64 2.05-1.49 3.11-2.39 1.05-0.91 2.09-1.91 3.06-2.94 0.97-1.03 1.87-2.1 2.62-3.17 0.72-1.1 1.3-2.2 1.67-3.23 0.81-2.28 1.8-5.79 2.59-9.92 0 0-0.43 0.06-1.07 0.16-0.64 0.07-1.51 0.17-2.37 0.27-1.72 0.18-3.43 0.37-3.43 0.37-0.71 3.15-1.42 5.9-2.09 7.62z"/>
			<path id="&lt;Path&gt;" class="s0" d="m336.87 395.72c0.16-0.45 0.46-0.93 0.83-1.49q0.57-0.83 1.37-1.71c1.05-1.15 2.35-2.28 3.67-3.11q0.28-0.18 0.59-0.36 0.25-0.14 0.51-0.3 0.48-0.3 0.98-0.56c2.18-1.16 4.62-1.92 6.08-1.82 1.62 0.11 3.94 0.32 6.79 0.66 0.29-1.77 0.93-4.22 1.26-5.73-3.63-0.41-6.72-0.79-8.68-0.86q-0.88-0.04-1.81 0.1-0.47 0.07-0.94 0.17-0.49 0.09-0.98 0.21c-1.31 0.31-2.62 0.78-3.83 1.34q-0.01 0.01-0.01 0.01-0.53 0.24-1.02 0.51-0.96 0.5-1.78 1.03-0.28 0.18-0.56 0.34c-1.45 0.93-3.06 2.27-4.45 3.83-0.68 0.8-1.36 1.57-1.92 2.39q-0.86 1.22-1.32 2.5-0.48 1.34-1.06 3.39-0.58 2.07-1.33 4.54c0.77 0.05 1.78 0.19 2.81 0.33 1.02 0.13 2.09 0.29 3.03 0.46 0.68-2.49 1.27-4.53 1.77-5.87z"/>
			<path id="&lt;Path&gt;" class="s0" d="m331.2 415.11c-1.95-0.28-4.39-0.58-6.09-0.56-1.02 3.18-1.99 6.26-2.85 8.96 0 0 1.35 0.81 2.7 1.54 1.37 0.74 2.74 1.49 2.74 1.49 0.49-1.67 1.06-3.51 1.66-5.43q0.45-1.44 0.93-2.93c0.31-0.99 0.6-2.04 0.91-3.07z"/>
			<path id="&lt;Path&gt;" class="s0" d="m314.51 443.39c1.65 0.69 4.23 1.45 6.44 1.46 1.77-3.68 3.28-7.29 4.39-10.36 0 0-1.4-0.76-2.8-1.51-1.38-0.76-2.75-1.53-2.75-1.53-0.61 1.72-1.34 3.72-2.25 5.72-0.9 1.99-1.93 4.1-3.03 6.22z"/>
			<path id="&lt;Path&gt;" class="s0" d="m325.69 433.76q1.12 0.56 2.36 1.14 1.24 0.53 2.57 1.08 2.68 1.09 5.66 2.13c1.03-0.9 2.95-2.71 4.1-5.42-1.23-0.38-2.42-0.75-3.6-1.18q-1.78-0.65-3.43-1.31c-2.2-0.89-4.19-1.77-5.87-2.6q-0.03-0.02-0.08-0.04-1.13-0.56-2.06-1.09-1.53-0.83-3.44-1.88l-0.07-0.04c-2.89-1.54-6.31-3.27-9.74-5.02-1.23 1.07-3.2 3.55-4.07 4.66 2.18 1.18 4.34 2.34 6.37 3.44 2.04 1.08 3.94 2.06 5.6 2.98q0.04 0.01 0.07 0.04 1.17 0.64 2.13 1.21 1.48 0.88 3.42 1.86z"/>
			<path id="&lt;Path&gt;" class="s0" d="m274.4 417.94c0.32-0.35 0.79-0.68 1.34-1.04q0.85-0.56 1.92-1.06c1.41-0.66 3.05-1.2 4.58-1.47 1.54-0.22 3.24-0.45 4.8-0.38 1.55 0.05 2.94 0.3 3.8 0.72 1.44 0.75 3.5 1.85 6 3.26 0.97-1.79 2.35-3.65 3.32-4.88-3.17-1.81-5.79-3.28-7.53-4.08-1.6-0.71-3.68-1.14-5.76-1.23q-1.56-0.07-3.06 0.08-0.74 0.07-1.44 0.18-0.7 0.07-1.33 0.18c-1.7 0.3-3.7 0.92-5.58 1.83-0.93 0.48-1.86 0.91-2.69 1.45q-1.27 0.81-2.19 1.81-0.99 1.09-2.37 2.82c-0.46 0.56-0.95 1.2-1.47 1.81q-0.77 0.95-1.62 1.97c0.59 0.35 1.43 0.84 2.35 1.38 0.91 0.51 1.9 1.09 2.79 1.67 1.69-2.15 3.11-3.9 4.14-5.02z"/>
			<path id="&lt;Path&gt;" class="s0" d="m302.45 461.48c-0.77 0.8-2.28 1.72-4.11 2.55-1.83 0.81-3.96 1.62-5.98 1.94q-0.44 0.07-0.89 0.15-0.39 0.05-0.78 0.1l-0.8 0.08q-0.33 0.03-0.67 0.06-0.61 0.05-1.22 0.08c-2.8 0.1-5.43-0.13-6.79-0.81-1.66-0.78-4.02-2.11-6.66-3.79-0.49 0.42-1.35 1.15-2.31 1.97-0.97 0.81-2.07 1.61-3 2.28q1.28 0.88 2.49 1.67c0.8 0.53 1.57 0.96 2.3 1.39 1.47 0.84 2.77 1.54 3.84 2.03 1.69 0.8 3.95 1.29 6.35 1.52q0.53 0.02 1.06 0.04 1.39 0.05 2.79-0.02 0.81-0.04 1.59-0.1 1.51-0.12 2.87-0.34 0.46-0.07 0.91-0.14 0.89-0.17 1.85-0.39 0.96-0.26 1.95-0.6c1.32-0.44 2.67-0.96 3.96-1.54 2.59-1.17 4.97-2.57 6.43-4.24 1.59-1.75 3.79-4.59 6.08-7.96-1.98-0.56-4.6-1.5-6.38-2.17-1.86 2.68-3.58 4.93-4.88 6.24z"/>
		</g>
	</g>
</svg>