<svg version="1.2" xmlns="http://www.w3.org/2000/svg" viewBox="0 0 500 500" width="500" height="500">
	<style>
		.s0 { fill: #000000 } 
	</style>
	<g id="&lt;Group&gt;">
		<g id="&lt;Group&gt;">
			<path id="&lt;Path&gt;" class="s0" d="m142.76 357.99c2.23 2.1 4.53 3.26 6.03 4.12 1.57 0.8 2.31 1.36 1.37 2.44-1.24-0.36-2.59-0.33-3.96-0.08-1.36 0.23-2.78 0.74-4.22 1.42-2.89 1.37-5.87 3.46-8.62 5.58-5.51 4.23-10.06 8.61-11.38 7.35q-0.08-0.08-0.12-0.18l20.77-20.77z"/>
			<path id="&lt;Compound Path&gt;" fill-rule="evenodd" class="s0" d="m175.23 413.66c1.41-3.02 4.56-4.66 7.46-4.13-0.62-3.61-2.29-6.57-4.35-8.94-2.01-2.49-4.41-4.46-6.56-5.92-2.03-1.17-4.15-2.39-6.29-3.62-2.1-1.29-4.17-2.67-6.22-3.96-3.97-2.73-7.69-5.34-10.43-7.59q-1.11-0.87-2.21-1.51-0.55-0.32-1.1-0.58-0.52-0.28-1.04-0.52c-1.39-0.64-2.77-1-4.12-1.16-1.36-0.16-2.69-0.12-3.98 0.05q-1.9 0.24-3.66 0.79c-4.71 1.46-8.56 4.21-10.55 4.27-0.59-0.01 3.57-4.08 9.51-6.6 1.48-0.63 3.07-1.17 4.72-1.53q2.45-0.53 5.1-0.52c3.54 0.06 7.02 1.24 10.62 3.96q0.85 0.67 1.8 1.42 0.94 0.76 2.03 1.5 2.15 1.53 4.56 3.25c1.62 1.11 3.37 2.16 5.1 3.3 1.71 1.16 3.56 2.16 5.35 3.19q1.35 0.78 2.67 1.55c0.87 0.52 1.79 0.93 2.66 1.39 1.76 0.88 3.43 1.77 5 2.55q2.42 1.09 4.42 1.99c1.32 0.59 2.46 1.15 3.43 1.5q1.46 0.57 3.5 1.37c1.34 0.53 2.85 1.17 4.53 1.69q2.51 0.85 5.31 1.8 2.85 0.81 5.85 1.67c1.97 0.62 4.03 1.02 6.04 1.49q1.51 0.36 2.99 0.7 0.74 0.19 1.48 0.3 0.74 0.13 1.46 0.26 2.91 0.52 5.5 0.99 2.62 0.33 4.77 0.6 1.68 0.22 3.14 0.68 1.47 0.39 2.74 0.97c1.71 0.79 3.17 1.84 4.43 3.07q0.48 0.46 0.92 0.95 0.44 0.46 0.84 0.95 0.81 0.98 1.5 2.05c0.91 1.42 1.65 2.93 2.25 4.42 2.43 5.99 2.49 11.81 2.07 11.39-1.37-1.44-2.15-6.12-4.45-10.48-0.58-1.08-1.24-2.15-2.04-3.15-0.79-0.98-1.7-1.99-2.77-2.83-1.08-0.85-2.31-1.57-3.74-2.11-0.71-0.28-1.48-0.49-2.3-0.69q-1.22-0.34-2.63-0.52c-1.75-0.24-3.76-0.45-5.91-0.78-2.14-0.38-4.45-0.79-6.82-1.21q-0.89-0.15-1.78-0.38-0.89-0.21-1.79-0.42-1.8-0.41-3.61-0.83c-0.6-0.14-1.2-0.25-1.79-0.42q-0.88-0.26-1.76-0.51-1.75-0.5-3.44-0.98c-5.16-0.8-12.27-1.31-18.21 2.79 2.41 1.72 3.46 5.14 2.32 8.27-1.33 3.64-5.36 5.43-9 4q-0.69-0.27-1.27-0.66-0.57-0.41-1.04-0.92-0.94-1.02-1.42-2.3c-0.63-1.68-0.6-3.59 0.21-5.35zm17.2-9.57c-3.11-1.22-5.06-1.99-5.06-1.99q-0.01 0-0.36-0.14c-0.22-0.1-0.58-0.21-1-0.41-0.86-0.39-2.1-0.95-3.62-1.65 1.4 2.09 1.82 4.61 1.91 6.6 0.1 1.95-0.17 3.41-0.17 3.41 0 0 3.4-4.91 8.3-5.82z"/>
			<path id="&lt;Path&gt;" class="s0" d="m107.52 415.93c4.84-5.64 7.68-11.04 9.45-15.4 0.88-2.18 1.48-4.11 1.9-5.72 0.44-1.63 0.69-2.93 0.82-3.83-1.05-0.67-2.1-1.39-3.08-2.12-0.38 2.1-1.12 5.6-2.49 9.49q-0.52 1.46-1.16 2.97-0.64 1.49-1.42 2.97c-1.04 1.98-2.31 3.92-3.87 5.66-4.08 4.58-8.06 6.89-11.6 7.26-3.56 0.41-6.78-0.99-9.34-3.44l5.59-5.59c2.48 2.38 6.4 2.46 10.75-2.18 4.07-4.32 6.44-8.96 7.87-12.44 1.43-3.5 1.88-5.88 1.88-5.88l6.36-6.36c2.39 2.25 5.2 4.3 7.78 5.62 2.63 1.26 4.93 1.88 6.21 1.53l-5.19 5.09c-0.74 0.7-2.96 0.12-5.57-1.08-0.24 3.92-1.7 10.95-6.01 18.7q0.81-0.38 1.79-0.61 0.99-0.24 2.11-0.34c1.49-0.12 3.13-0.04 4.82 0.25 1.7 0.27 3.42 0.81 5.16 1.49 1.76 0.67 3.48 1.56 5.09 2.71 1.03 0.72 1.93 1.52 2.73 2.31q1.23 1.17 2.12 2.44c1.2 1.69 1.98 3.51 2.39 5.36 0.21 0.93 0.32 1.87 0.35 2.79q0.06 1.36-0.14 2.7c-0.27 1.79-0.87 3.51-1.79 5.06-1.38 2.35-3.36 3.66-5.62 4-2.22 0.29-4.71-0.39-7.07-1.91-2.99-1.85-4.44-6.22-2.04-9.62 0.86-1.22 2.2-1.92 3.66-2.08q1.11-0.12 2.26 0.16 1.16 0.25 2.24 0.93c2.83 1.82 3.87 5.36 2.32 7.9q-0.1 0.17-0.22 0.32c0.28 0.49 0.81 0.7 1.37 0.6 0.58-0.1 1.17-0.49 1.58-1.17 0.95-1.57 1.77-4.51 1.38-7.76-0.2-1.62-0.71-3.3-1.68-4.91-0.97-1.62-2.44-3.1-4.44-4.58-2.49-1.78-5.03-2.72-7.45-3.17-2.39-0.5-4.71-0.44-6.84-0.06-4.25 0.77-7.69 2.84-9.03 4.46-4.53 5.51-10.03 8.1-15.65 8.21-5.66 0.18-11.13-2.42-15.43-6.53l3.57-3.57c2.9 2.78 6.9 4.95 11.11 5.22 4.28 0.21 8.68-1.44 12.47-5.85z"/>
			<path id="&lt;Path&gt;" class="s0" d="m215.21 447.75q1.47 0.27 2.85 0.71c0.92 0.3 1.8 0.65 2.67 0.98 1.72 0.7 3.31 1.59 4.71 2.59 1.4 1.01 2.61 2.12 3.58 3.27 0.97 1.11 1.69 2.25 2.09 3.37 2.43-8.52 6.36-14.5 8.96-17.44-2.7-1-4.68-2.17-4.7-3.19l-0.07-7.27c0.65 1.15 2.72 2.35 5.47 3.33 2.76 0.84 6.2 1.42 9.48 1.51v9c0 0-1.36 1.99-2.83 5.47-1.45 3.48-3.05 8.44-3.23 14.36-0.2 6.37 2.63 9.08 6.06 9.15v7.91c-3.54-0.08-6.79-1.37-9.02-4.18-1.12-1.4-1.98-3.17-2.51-5.38q-0.81-3.33-0.57-7.93c0.13-2.34 0.61-4.6 1.26-6.74 0.66-2.14 1.5-4.19 2.38-6.05 1.78-3.72 3.73-6.71 4.95-8.47-1.21-0.17-2.47-0.41-3.68-0.69-1.08 1.47-2.99 4.43-4.83 8.71-1.83 4.33-3.63 10.14-4.19 17.56-0.44 5.8 1.51 10.1 4.68 12.96 3.17 2.76 7.52 4.08 11.53 4.16v5.05c-2.96-0.06-5.88-0.63-8.53-1.66q-1.99-0.78-3.75-1.91-1.76-1.2-3.23-2.72c-3.9-4.07-5.95-9.79-5.26-16.9 0.2-2.1-0.79-5.9-3.25-9.5-2.47-3.6-6.38-6.66-12.39-7.84-4.89-0.8-8.45 0.37-11.03 2.38-2.57 1.99-4.08 4.69-4.52 6.47-0.38 1.53 0.6 2.76 1.69 2.47q0.02-0.19 0.07-0.38c0.7-2.89 3.93-4.63 7.21-3.88 3.31 0.64 5.59 3.48 5.09 6.42-0.37 2.06-1.55 3.58-3.1 4.51-0.77 0.46-1.63 0.78-2.52 0.94q-0.66 0.12-1.33 0.12-0.67-0.02-1.31-0.17c-2.74-0.62-4.98-1.92-6.34-3.71-1.37-1.8-1.85-4.09-1.17-6.72 0.9-3.49 3.17-6.64 6.37-8.65 1.59-1 3.43-1.72 5.47-2.05 1.01-0.14 2.1-0.27 3.23-0.28q1.7-0.01 3.56 0.31z"/>
			<path id="&lt;Path&gt;" class="s0" d="m250.25 402.44v29.38c-1.65-0.54-1.78-6.87-2.72-13.63-0.46-3.39-1.12-6.87-2.2-9.8-0.54-1.46-1.18-2.78-1.97-3.88-0.4-0.55-0.83-1.02-1.29-1.47q-0.7-0.69-1.53-1.16c0.04-0.71 0.3-1.03 0.74-1.11 0.44-0.09 1.07 0.11 1.9 0.3 1.65 0.43 4.06 1.25 7.07 1.37z"/>
			<path id="&lt;Path&gt;" class="s0" d="m220.42 418.1c0.22 0.04 0.9 0.16 1.83 0.33 0.94 0.17 2.13 0.41 3.41 0.54 2.54 0.32 5.35 0.68 6.84 0.87 2.43 0.21 4.36 0.82 5.93 1.76 1.57 0.91 2.78 2.18 3.72 3.44 1.89 2.57 2.71 5.7 3.13 8.02-0.17 0.49-2.26-0.22-2.26-0.22 0 0-0.05-2.02-1.22-4.06-0.59-1.01-1.45-2.1-2.71-2.96-1.27-0.85-2.93-1.49-5.17-1.65-0.58-0.05-1.2-0.08-1.84-0.15q-0.96-0.13-1.98-0.26-2.05-0.26-4.24-0.54c-2.46 0.11-4.53 0.29-6.31 0.81-1.79 0.51-3.28 1.27-4.51 2.18q-1.83 1.39-2.89 3.07c-0.72 1.12-1.19 2.33-1.46 3.54-0.61 2.84 0.47 5.5 2.23 7.33 1.75 1.87 4.12 3.11 5.82 3.41 1.7 0.34 3.26 0.31 4.41 0.16 1.14-0.16 1.88-0.48 1.98-0.92 0.2-0.89-1.26-0.98-1.26-0.98-3.09-0.34-5.16-3.23-4.65-6.16 0.5-2.94 3.22-4.85 6.11-4.54 3.99 0.51 5.79 3.56 5.41 7.41-0.21 2.09-1.45 4.07-3.57 5.41-1.07 0.67-2.35 1.18-3.82 1.46-1.46 0.27-3.13 0.39-4.91 0.03-2.76-0.49-5.05-1.26-6.91-2.21-0.93-0.46-1.73-1.06-2.44-1.66q-1.05-0.9-1.8-1.9c-2.01-2.63-2.42-5.64-1.73-8.44 0.74-2.97 2.3-5.15 4.3-6.66q1.5-1.13 3.28-1.78 0.88-0.32 1.81-0.54 0.94-0.26 1.92-0.41c-2.07-0.19-4.1-0.47-6.15-0.52q-1.53-0.05-3.05 0.01-0.76 0.03-1.52 0.08-0.76 0.03-1.5 0.06c-3.97 0.19-7.9 1.08-11.47 2.17q-2.7 0.87-5.16 2.17-1.23 0.65-2.37 1.41-1.14 0.74-2.19 1.57c-2.78 2.24-5.06 5.11-6.46 8.7-1.15 2.91-1.26 6.14-0.15 9.01 0.28 0.71 0.62 1.42 1.06 2.06q0.66 0.95 1.54 1.77c1.18 1.1 2.68 1.99 4.46 2.6 3.21 1.13 5.91 0.61 7.83-0.47 1.93-1.1 3.14-2.85 3.6-4.52 0.54-1.95-0.81-4.18-2.02-4.15-1.19 2.22-4.09 3.43-6.84 2.45-3.14-1.06-4.86-4.2-3.84-7 1.02-2.8 4.24-4.26 7.18-3.26 2.32 0.84 4.72 2.24 6.32 4.41 1.6 2.16 2.44 5 1.55 8.39-0.61 2.31-2.25 4.41-4.83 5.62-2.57 1.19-6.15 1.63-10.28 0.16-1.81-0.61-3.46-1.55-4.85-2.75q-0.53-0.44-1-0.94-0.46-0.52-0.88-1.08-0.82-1.12-1.4-2.37c-1.57-3.33-1.75-7.29-0.11-11.27 1.53-3.74 3.94-6.99 6.93-9.67q2.25-2.02 4.9-3.59 1.32-0.77 2.75-1.5 1.42-0.71 2.93-1.3 3-1.19 6.28-1.85 3.32-0.81 6.88-1.03c2.35-0.08 4.86-0.24 7.41-0.05 1.29 0.07 2.58 0.25 3.91 0.39q2.01 0.19 4.09 0.56z"/>
			<path id="&lt;Path&gt;" class="s0" d="m161.67 424.28c1.39 0.71 2.38 1.9 2.88 3.25 0.49 1.34 0.52 2.8-0.12 4.15-0.64 1.34-1.82 2.32-3.21 2.72-1.38 0.39-2.98 0.25-4.45-0.5-2.59-1.34-3.87-4.07-3.12-6.52-0.83-0.9-3.35-0.29-4.35 1.47-0.85 1.5-1.25 3.6-0.67 5.76q0.22 0.81 0.63 1.62 0.42 0.79 1.06 1.53c0.86 0.99 2.02 1.91 3.53 2.68 1.69 0.85 3.35 1.33 4.97 1.36 1.63 0.02 3.18-0.31 4.57-0.92 2.81-1.22 5.01-3.56 6.26-6.43 1.55-3.53 1.98-7.19 1.61-10.76q-0.29-2.69-1.14-5.29c-0.56-1.72-1.24-3.52-2.09-5.21q-1.28-2.55-2.97-4.92c-1.09-1.62-2.28-3.24-3.6-4.74q-0.99-1.13-2.06-2.2c-0.72-0.7-1.41-1.47-2.16-2.17q-2.21-2.13-4.72-3.96c1.6 2.03 2.71 4.37 3.04 6.87 0.33 2.49-0.11 5.15-1.68 7.76-1.5 2.48-3.91 4.3-7.18 4.73-1.63 0.21-3.48 0.07-5.51-0.5-1.02-0.27-2.05-0.72-3.12-1.28q-1.61-0.83-3.32-2.05c-3-2.05-4.57-4.76-5.13-7.21-0.55-2.46-0.02-4.74 1.31-6.37 2.45-2.99 5.87-3.87 9.03-1.38 1.13 0.93 1.88 2.14 2.09 3.5 0.21 1.35-0.08 2.8-0.95 4.01-0.86 1.21-2.15 1.96-3.55 2.16-1.38 0.2-2.92-0.09-4.12-1.07 0 0-1.08-0.97-1.57-0.2-0.48 0.76 1.14 3.06 4 5.03 1.41 0.99 3.93 1.83 6.5 1.73 2.61-0.15 5.2-1.18 6.78-3.64 1.34-2.08 2.08-4.78 1.59-7.74-0.26-1.45-0.75-3.09-1.65-4.72-0.89-1.65-2.19-3.27-3.91-5.01-2.3-1.83-4.55-3.56-6.37-5.04-3.37-2.94-6.51-2.96-8.82-2.31-2.28 0.61-3.74 2.01-3.74 2.01 0 0-1.97-0.98-1.75-1.45 1.93-1.34 4.72-2.97 7.88-3.46 1.59-0.26 3.32-0.28 5.07 0.19q1.32 0.33 2.68 1.06c0.89 0.49 1.8 1.13 2.77 1.86 1.19 0.93 3.41 2.68 5.43 4.27 2.09 1.48 3.97 2.81 4.34 3.07 2.25 1.69 4.43 3.24 6.33 4.98 0.97 0.85 1.84 1.79 2.73 2.63q1.32 1.29 2.49 2.64c3.07 3.7 5.58 7.37 7.26 11.39q0.62 1.51 1.15 2.96 0.52 1.48 0.9 2.98 0.75 3.01 0.91 6.04c0.2 4.05-0.4 8.05-1.96 11.76-1.68 4-4.59 6.63-8.04 7.86-3.43 1.2-7.43 1.09-10.79-0.71-1.95-0.99-3.51-2.15-4.71-3.39-0.6-0.61-1.09-1.27-1.49-1.95q-0.6-1.01-0.96-2.03c-0.95-2.71-0.62-5.37 0.58-7.43 1.77-3.02 4.37-4.42 7.01-4.79 2.62-0.32 5.42 0.19 7.6 1.32z"/>
		</g>
		<g id="&lt;Group&gt;">
			<path id="&lt;Path&gt;" class="s0" d="m98.06 250.43c0.09 3.07 0.92 5.52 1.36 7.2 0.5 1.67 0.66 2.59-0.77 2.69-1.33-2.25-3.7-3.77-6.72-4.85-3.01-1.07-6.6-1.71-10.04-2.16-6.89-0.9-13.21-1.02-13.26-2.85q0.01-0.11 0.05-0.21h29.38q0 0.09 0 0.18z"/>
			<path id="&lt;Compound Path&gt;" fill-rule="evenodd" class="s0" d="m81.61 312.75c3.14-1.14 6.55-0.09 8.27 2.32 4.1-5.94 3.59-13.05 2.79-18.21q-0.48-1.69-0.98-3.44-0.25-0.88-0.51-1.76c-0.17-0.59-0.28-1.19-0.42-1.79q-0.42-1.81-0.83-3.61-0.21-0.9-0.42-1.79-0.23-0.89-0.38-1.78c-0.42-2.37-0.83-4.68-1.21-6.82-0.33-2.15-0.54-4.16-0.78-5.91q-0.18-1.41-0.52-2.63c-0.2-0.82-0.41-1.59-0.69-2.3-0.54-1.43-1.26-2.66-2.11-3.74-0.84-1.07-1.85-1.98-2.83-2.77-1-0.8-2.07-1.46-3.15-2.04-4.36-2.3-9.04-3.08-10.48-4.45-0.42-0.42 5.4-0.36 11.39 2.07 1.49 0.6 3 1.35 4.42 2.25q1.07 0.69 2.05 1.5 0.49 0.4 0.95 0.84 0.49 0.44 0.95 0.92c1.23 1.26 2.28 2.72 3.07 4.43q0.58 1.27 0.97 2.74 0.46 1.46 0.68 3.14 0.27 2.15 0.6 4.77 0.47 2.59 0.99 5.5 0.13 0.72 0.26 1.46 0.11 0.74 0.3 1.48 0.34 1.48 0.7 2.99c0.47 2.01 0.87 4.07 1.49 6.04q0.86 3 1.67 5.85 0.95 2.8 1.8 5.31c0.52 1.68 1.16 3.19 1.69 4.54q0.8 2.03 1.37 3.49c0.35 0.97 0.91 2.11 1.5 3.43q0.9 2 1.99 4.42c0.78 1.57 1.67 3.24 2.55 5 0.46 0.87 0.87 1.79 1.39 2.66q0.77 1.32 1.55 2.67c1.03 1.79 2.03 3.64 3.19 5.35 1.14 1.73 2.19 3.48 3.3 5.1q1.72 2.41 3.25 4.56 0.74 1.09 1.5 2.03 0.75 0.95 1.42 1.8c2.72 3.6 3.9 7.08 3.96 10.62q0.01 2.65-0.52 5.1c-0.36 1.65-0.9 3.24-1.53 4.72-2.52 5.94-6.59 10.1-6.6 9.51 0.06-1.99 2.81-5.84 4.27-10.55q0.55-1.76 0.79-3.66c0.17-1.29 0.21-2.62 0.05-3.98-0.16-1.35-0.52-2.73-1.16-4.12q-0.24-0.52-0.52-1.04-0.26-0.55-0.58-1.1-0.64-1.1-1.51-2.21c-2.25-2.74-4.86-6.46-7.59-10.43-1.29-2.05-2.67-4.12-3.96-6.22-1.23-2.14-2.45-4.26-3.62-6.29-1.46-2.15-3.43-4.55-5.92-6.56-2.37-2.06-5.33-3.73-8.94-4.35 0.53 2.9-1.11 6.05-4.13 7.46-1.76 0.81-3.67 0.84-5.35 0.21q-1.28-0.48-2.3-1.42-0.51-0.47-0.92-1.04-0.39-0.58-0.66-1.27c-1.43-3.64 0.36-7.67 4-9zm18.99 5.36c-0.7-1.52-1.26-2.76-1.65-3.62-0.2-0.42-0.31-0.77-0.41-1q-0.14-0.35-0.14-0.36c0 0-0.77-1.95-1.99-5.06-0.91 4.9-5.82 8.3-5.82 8.3 0 0 1.46-0.27 3.41-0.16 1.99 0.08 4.51 0.5 6.6 1.9z"/>
			<path id="&lt;Path&gt;" class="s0" d="m32.17 266.46c7.42-0.56 13.23-2.36 17.56-4.19 4.28-1.84 7.24-3.75 8.71-4.83-0.28-1.21-0.52-2.47-0.69-3.68-1.76 1.22-4.75 3.17-8.47 4.95-1.86 0.88-3.91 1.72-6.05 2.38-2.14 0.65-4.4 1.13-6.74 1.26q-4.6 0.24-7.93-0.57c-2.2-0.53-3.98-1.39-5.38-2.51-2.81-2.23-4.1-5.48-4.18-9.02h7.91c0.07 3.43 2.78 6.26 9.15 6.06 5.92-0.18 10.88-1.78 14.36-3.23 3.48-1.47 5.47-2.83 5.47-2.83h9c0.09 3.28 0.67 6.72 1.51 9.48 0.98 2.75 2.18 4.82 3.33 5.47l-7.27-0.07c-1.02-0.02-2.19-2-3.19-4.7-2.94 2.6-8.92 6.53-17.44 8.96 1.12 0.4 2.26 1.12 3.37 2.09 1.15 0.97 2.26 2.18 3.27 3.58 1 1.4 1.89 2.99 2.59 4.71 0.33 0.87 0.68 1.76 0.98 2.67q0.44 1.38 0.71 2.85 0.32 1.86 0.31 3.56c-0.01 1.13-0.14 2.22-0.28 3.23-0.33 2.04-1.05 3.88-2.05 5.48-2.01 3.19-5.16 5.46-8.65 6.36-2.63 0.68-4.92 0.2-6.72-1.17-1.79-1.36-3.09-3.6-3.71-6.34q-0.15-0.64-0.17-1.31 0-0.67 0.12-1.33c0.16-0.88 0.48-1.75 0.94-2.52 0.93-1.55 2.45-2.73 4.51-3.1 2.94-0.5 5.78 1.78 6.42 5.09 0.75 3.28-0.99 6.51-3.88 7.21q-0.19 0.05-0.38 0.07c-0.29 1.09 0.94 2.07 2.47 1.69 1.78-0.44 4.48-1.95 6.47-4.52 2.01-2.58 3.18-6.14 2.38-11.03-1.18-6.01-4.24-9.92-7.84-12.39-3.6-2.46-7.4-3.45-9.5-3.25-7.11 0.69-12.83-1.36-16.9-5.26q-1.52-1.47-2.72-3.23-1.13-1.76-1.91-3.75c-1.03-2.65-1.6-5.56-1.66-8.53h5.05c0.08 4.01 1.4 8.36 4.16 11.53 2.86 3.17 7.16 5.12 12.96 4.68z"/>
			<path id="&lt;Path&gt;" class="s0" d="m85.82 365.13c1.15 1.61 2.04 3.34 2.71 5.09 0.68 1.74 1.22 3.46 1.49 5.16 0.29 1.69 0.37 3.33 0.25 4.82q-0.1 1.12-0.34 2.11-0.23 0.98-0.61 1.79c7.75-4.31 14.78-5.77 18.7-6.01-1.2-2.61-1.78-4.83-1.08-5.57l5.09-5.19c-0.35 1.28 0.27 3.58 1.53 6.21 1.32 2.58 3.37 5.39 5.62 7.78l-6.36 6.36c0 0-2.38 0.45-5.87 1.88-3.49 1.43-8.13 3.8-12.45 7.87-4.64 4.35-4.56 8.27-2.18 10.75l-5.59 5.59c-2.45-2.56-3.85-5.78-3.44-9.34 0.37-3.54 2.68-7.52 7.26-11.6 1.74-1.56 3.68-2.83 5.66-3.87q1.48-0.78 2.97-1.42 1.51-0.64 2.97-1.16c3.89-1.37 7.39-2.11 9.49-2.49-0.73-0.98-1.45-2.03-2.12-3.08-0.9 0.13-2.2 0.38-3.83 0.83-1.61 0.41-3.54 1.01-5.72 1.89-4.36 1.77-9.76 4.61-15.4 9.45-4.41 3.79-6.06 8.19-5.85 12.47 0.27 4.21 2.44 8.21 5.22 11.11l-3.57 3.57c-4.11-4.3-6.71-9.77-6.53-15.43 0.11-5.62 2.7-11.12 8.21-15.65 1.62-1.34 3.69-4.78 4.46-9.03 0.38-2.13 0.44-4.45-0.05-6.84-0.46-2.42-1.4-4.96-3.18-7.45-1.48-2-2.96-3.47-4.58-4.44-1.61-0.97-3.29-1.48-4.91-1.68-3.25-0.39-6.19 0.43-7.76 1.38-0.68 0.41-1.07 1-1.17 1.58-0.1 0.56 0.11 1.09 0.6 1.37q0.15-0.12 0.32-0.22c2.54-1.55 6.08-0.51 7.9 2.32q0.68 1.08 0.93 2.24 0.28 1.15 0.16 2.26c-0.16 1.46-0.86 2.8-2.08 3.66-3.4 2.4-7.77 0.95-9.62-2.04-1.52-2.36-2.2-4.85-1.91-7.07 0.34-2.26 1.66-4.24 4-5.62 1.55-0.91 3.27-1.52 5.06-1.79q1.34-0.2 2.7-0.14c0.92 0.04 1.86 0.14 2.79 0.35 1.85 0.41 3.67 1.19 5.36 2.39q1.27 0.89 2.44 2.12c0.79 0.8 1.59 1.7 2.31 2.73z"/>
			<path id="&lt;Path&gt;" class="s0" d="m142.63 357.87l-20.77 20.77c-0.79-1.55 3.6-6.12 7.72-11.56 2.06-2.71 4.07-5.64 5.37-8.47 0.65-1.41 1.13-2.8 1.35-4.13 0.2-1.32 0.24-2.65-0.11-3.87 1.06-0.93 1.62-0.2 2.42 1.31 0.86 1.46 1.98 3.74 4.02 5.95z"/>
			<path id="&lt;Path&gt;" class="s0" d="m110.48 347.84c0.26 0.37 1.59 2.25 3.07 4.34 1.59 2.02 3.34 4.24 4.27 5.43 0.73 0.97 1.37 1.88 1.86 2.78q0.73 1.35 1.06 2.67c0.47 1.76 0.45 3.48 0.19 5.07-0.49 3.16-2.12 5.95-3.46 7.88-0.47 0.22-1.45-1.75-1.45-1.75 0 0 1.4-1.46 2.01-3.74 0.65-2.31 0.63-5.45-2.31-8.82-1.48-1.82-3.21-4.07-5.03-6.37-1.74-1.72-3.37-3.02-5.02-3.91-1.63-0.9-3.27-1.39-4.72-1.65-2.96-0.49-5.66 0.25-7.74 1.59-2.46 1.58-3.49 4.17-3.64 6.78-0.1 2.57 0.74 5.09 1.73 6.5 1.97 2.86 4.27 4.48 5.03 4 0.77-0.49-0.2-1.57-0.2-1.57-0.98-1.2-1.27-2.74-1.07-4.12 0.2-1.4 0.95-2.69 2.16-3.55 1.21-0.87 2.66-1.16 4.01-0.94 1.36 0.2 2.57 0.95 3.5 2.08 2.49 3.16 1.61 6.58-1.38 9.03-1.63 1.33-3.91 1.86-6.37 1.31-2.45-0.56-5.16-2.13-7.21-5.13q-1.22-1.71-2.05-3.32c-0.56-1.07-1.01-2.09-1.28-3.12-0.57-2.03-0.71-3.88-0.5-5.51 0.43-3.27 2.25-5.68 4.73-7.18 2.61-1.57 5.27-2.01 7.76-1.68 2.5 0.33 4.84 1.44 6.87 3.04q-1.83-2.51-3.96-4.72c-0.7-0.75-1.47-1.44-2.17-2.16q-1.07-1.07-2.2-2.06c-1.5-1.32-3.12-2.51-4.74-3.6q-2.37-1.69-4.92-2.96c-1.69-0.86-3.49-1.54-5.21-2.1q-2.6-0.85-5.29-1.14c-3.57-0.37-7.23 0.06-10.76 1.61-2.87 1.25-5.21 3.45-6.43 6.26-0.61 1.39-0.94 2.94-0.92 4.57 0.03 1.62 0.51 3.28 1.36 4.97 0.77 1.51 1.69 2.67 2.68 3.53q0.74 0.64 1.53 1.06 0.81 0.41 1.62 0.63c2.16 0.58 4.26 0.19 5.76-0.67 1.76-1 2.37-3.52 1.47-4.35-2.45 0.75-5.18-0.53-6.52-3.12-0.75-1.47-0.89-3.07-0.5-4.45 0.4-1.39 1.38-2.57 2.72-3.21 1.35-0.64 2.81-0.61 4.15-0.12 1.35 0.5 2.54 1.49 3.25 2.88 1.13 2.18 1.64 4.98 1.32 7.6-0.37 2.64-1.77 5.24-4.79 7.01-2.06 1.2-4.72 1.53-7.43 0.58q-1.02-0.36-2.03-0.96c-0.68-0.4-1.34-0.89-1.95-1.49-1.24-1.2-2.39-2.76-3.39-4.71-1.8-3.36-1.91-7.36-0.71-10.79 1.23-3.45 3.86-6.36 7.86-8.04 3.71-1.56 7.71-2.16 11.76-1.96q3.03 0.16 6.04 0.91 1.5 0.38 2.98 0.9 1.45 0.53 2.96 1.16c4.02 1.67 7.69 4.18 11.39 7.25q1.35 1.17 2.64 2.49c0.84 0.89 1.78 1.76 2.63 2.73 1.74 1.9 3.29 4.08 4.98 6.33z"/>
			<path id="&lt;Path&gt;" class="s0" d="m64.53 310.68c1 2.94-0.46 6.16-3.26 7.18-2.8 1.02-5.94-0.7-7-3.84-0.98-2.75 0.23-5.65 2.45-6.84 0.03-1.21-2.2-2.56-4.15-2.02-1.67 0.46-3.42 1.67-4.52 3.6-1.08 1.92-1.6 4.62-0.47 7.83 0.61 1.78 1.51 3.28 2.6 4.46q0.82 0.89 1.77 1.54c0.64 0.44 1.35 0.78 2.06 1.06 2.87 1.11 6.1 1 9.01-0.15 3.59-1.4 6.46-3.68 8.7-6.46q0.83-1.05 1.57-2.18 0.76-1.15 1.41-2.38 1.3-2.46 2.17-5.16c1.09-3.57 1.98-7.5 2.17-11.47q0.03-0.74 0.06-1.5 0.05-0.76 0.08-1.52 0.06-1.52 0.01-3.05c-0.05-2.05-0.33-4.08-0.52-6.15q-0.15 0.98-0.41 1.92-0.22 0.93-0.54 1.81-0.65 1.78-1.78 3.28c-1.51 2-3.69 3.56-6.66 4.3-2.8 0.69-5.81 0.28-8.44-1.73q-1-0.75-1.9-1.8c-0.6-0.71-1.2-1.51-1.66-2.44-0.95-1.86-1.72-4.15-2.21-6.91-0.36-1.78-0.24-3.45 0.03-4.91 0.28-1.47 0.79-2.75 1.46-3.82 1.34-2.12 3.32-3.36 5.41-3.57 3.85-0.38 6.9 1.42 7.41 5.41 0.31 2.89-1.6 5.61-4.54 6.11-2.93 0.51-5.82-1.56-6.16-4.65 0 0-0.09-1.46-0.98-1.26-0.44 0.1-0.76 0.84-0.92 1.98-0.15 1.15-0.18 2.71 0.16 4.41 0.3 1.7 1.54 4.07 3.41 5.82 1.83 1.76 4.49 2.84 7.33 2.23 1.21-0.27 2.42-0.74 3.54-1.46q1.68-1.06 3.07-2.89c0.91-1.23 1.67-2.72 2.18-4.51 0.52-1.78 0.7-3.85 0.81-6.31q-0.28-2.19-0.54-4.24-0.13-1.02-0.26-1.98c-0.07-0.64-0.1-1.26-0.15-1.84-0.16-2.24-0.8-3.9-1.65-5.17-0.86-1.26-1.95-2.12-2.96-2.7-2.04-1.18-4.06-1.23-4.06-1.23 0 0-0.71-2.09-0.22-2.26 2.32 0.42 5.45 1.24 8.02 3.13 1.26 0.95 2.53 2.15 3.44 3.72 0.94 1.57 1.55 3.5 1.76 5.93 0.19 1.49 0.55 4.3 0.87 6.84 0.13 1.28 0.37 2.47 0.54 3.41 0.17 0.93 0.29 1.61 0.33 1.83q0.37 2.08 0.56 4.09c0.14 1.33 0.32 2.62 0.39 3.91 0.19 2.55 0.03 5.06-0.05 7.41q-0.22 3.56-1.03 6.88-0.66 3.28-1.85 6.28-0.59 1.51-1.3 2.93-0.73 1.43-1.5 2.75-1.57 2.65-3.59 4.9c-2.68 2.99-5.93 5.4-9.67 6.93-3.98 1.64-7.94 1.46-11.27-0.1q-1.25-0.59-2.37-1.41-0.56-0.41-1.08-0.88-0.5-0.47-0.94-1c-1.2-1.39-2.14-3.04-2.75-4.85-1.47-4.13-1.03-7.71 0.16-10.27 1.21-2.59 3.31-4.23 5.62-4.84 3.39-0.89 6.23-0.05 8.39 1.55 2.17 1.6 3.57 4 4.41 6.32z"/>
		</g>
		<g id="&lt;Group&gt;">
			<path id="&lt;Path&gt;" class="s0" d="m142.51 142.76c-2.1 2.23-3.26 4.53-4.12 6.03-0.8 1.57-1.36 2.31-2.44 1.37 0.36-1.24 0.33-2.59 0.08-3.96-0.23-1.36-0.74-2.78-1.42-4.22-1.37-2.89-3.46-5.87-5.58-8.62-4.23-5.51-8.61-10.06-7.35-11.38q0.08-0.08 0.18-0.12l20.77 20.77z"/>
			<path id="&lt;Compound Path&gt;" fill-rule="evenodd" class="s0" d="m86.84 175.23c3.02 1.41 4.66 4.56 4.13 7.46 3.61-0.62 6.57-2.29 8.94-4.35 2.49-2.01 4.46-4.41 5.92-6.56 1.17-2.03 2.39-4.15 3.62-6.29 1.29-2.1 2.67-4.17 3.96-6.22 2.73-3.97 5.34-7.69 7.59-10.43q0.87-1.11 1.51-2.21 0.32-0.55 0.58-1.1 0.28-0.52 0.52-1.04c0.64-1.39 1-2.77 1.16-4.12 0.16-1.36 0.12-2.69-0.05-3.98q-0.24-1.9-0.79-3.66c-1.46-4.71-4.21-8.56-4.27-10.55 0.01-0.59 4.08 3.57 6.6 9.51 0.63 1.48 1.17 3.07 1.53 4.72q0.53 2.45 0.52 5.1c-0.06 3.54-1.24 7.02-3.96 10.62q-0.67 0.85-1.42 1.8-0.76 0.94-1.5 2.03-1.53 2.15-3.25 4.56c-1.11 1.62-2.16 3.37-3.3 5.1-1.16 1.71-2.16 3.56-3.19 5.35q-0.78 1.35-1.55 2.67c-0.52 0.87-0.93 1.79-1.39 2.66-0.88 1.76-1.77 3.43-2.55 5q-1.09 2.42-1.99 4.42c-0.59 1.32-1.15 2.46-1.5 3.43q-0.57 1.46-1.37 3.5c-0.53 1.34-1.17 2.85-1.69 4.53q-0.85 2.51-1.8 5.31-0.81 2.85-1.67 5.85c-0.62 1.97-1.02 4.03-1.49 6.04q-0.36 1.51-0.7 2.99-0.19 0.74-0.3 1.48-0.13 0.74-0.26 1.46-0.52 2.91-0.99 5.5-0.33 2.62-0.6 4.77-0.22 1.68-0.68 3.14-0.39 1.47-0.97 2.74c-0.79 1.71-1.84 3.17-3.07 4.43q-0.46 0.48-0.95 0.92-0.46 0.44-0.95 0.84-0.98 0.81-2.05 1.5c-1.42 0.91-2.93 1.65-4.42 2.25-5.99 2.43-11.81 2.49-11.39 2.07 1.44-1.37 6.12-2.15 10.48-4.45 1.08-0.58 2.15-1.24 3.15-2.04 0.98-0.79 1.99-1.7 2.83-2.77 0.85-1.08 1.57-2.31 2.11-3.74 0.28-0.71 0.49-1.48 0.69-2.3q0.34-1.22 0.52-2.63c0.24-1.75 0.45-3.76 0.78-5.91 0.38-2.14 0.79-4.45 1.21-6.82q0.15-0.89 0.38-1.78 0.21-0.89 0.42-1.79 0.41-1.8 0.83-3.61c0.14-0.6 0.25-1.2 0.42-1.79q0.26-0.88 0.51-1.76 0.5-1.75 0.98-3.44c0.8-5.16 1.31-12.27-2.79-18.21-1.72 2.41-5.14 3.46-8.27 2.32-3.64-1.33-5.43-5.36-4-9q0.27-0.69 0.66-1.27 0.41-0.57 0.92-1.04 1.02-0.94 2.3-1.42c1.68-0.63 3.59-0.6 5.35 0.21zm9.57 17.2c1.22-3.11 1.99-5.06 1.99-5.06q0-0.01 0.14-0.36c0.1-0.22 0.21-0.58 0.41-1 0.39-0.86 0.95-2.1 1.65-3.62-2.09 1.4-4.61 1.82-6.6 1.9-1.95 0.11-3.41-0.16-3.41-0.16 0 0 4.91 3.4 5.82 8.3z"/>
			<path id="&lt;Path&gt;" class="s0" d="m84.57 107.52c5.64 4.84 11.04 7.68 15.4 9.45 2.18 0.88 4.11 1.48 5.72 1.9 1.63 0.44 2.93 0.69 3.83 0.82 0.67-1.05 1.39-2.1 2.12-3.08-2.1-0.38-5.6-1.12-9.49-2.49q-1.46-0.52-2.97-1.16-1.49-0.64-2.97-1.42c-1.98-1.04-3.92-2.31-5.66-3.87-4.58-4.08-6.89-8.06-7.26-11.6-0.41-3.56 0.99-6.78 3.44-9.34l5.59 5.59c-2.38 2.48-2.46 6.4 2.18 10.75 4.32 4.07 8.96 6.44 12.44 7.87 3.5 1.43 5.88 1.88 5.88 1.88l6.36 6.36c-2.25 2.39-4.3 5.2-5.62 7.78-1.26 2.63-1.88 4.93-1.53 6.21l-5.09-5.19c-0.7-0.74-0.12-2.96 1.08-5.57-3.92-0.24-10.95-1.7-18.7-6.01q0.38 0.81 0.61 1.79 0.24 0.99 0.34 2.11c0.12 1.49 0.04 3.13-0.25 4.82-0.27 1.7-0.81 3.42-1.49 5.16-0.67 1.76-1.56 3.48-2.71 5.09-0.72 1.03-1.52 1.93-2.31 2.73q-1.17 1.23-2.44 2.12c-1.69 1.2-3.51 1.98-5.36 2.39-0.93 0.21-1.87 0.32-2.79 0.35q-1.36 0.06-2.7-0.14c-1.79-0.27-3.51-0.87-5.06-1.79-2.35-1.38-3.66-3.36-4-5.62-0.29-2.22 0.39-4.71 1.91-7.07 1.85-2.99 6.22-4.44 9.62-2.04 1.22 0.86 1.92 2.2 2.08 3.66q0.12 1.11-0.16 2.26-0.25 1.16-0.93 2.24c-1.82 2.83-5.36 3.87-7.9 2.32q-0.17-0.1-0.32-0.22c-0.49 0.28-0.7 0.81-0.6 1.37 0.1 0.58 0.49 1.17 1.17 1.58 1.57 0.95 4.51 1.77 7.76 1.38 1.62-0.2 3.3-0.71 4.91-1.68 1.62-0.97 3.1-2.44 4.58-4.44 1.78-2.49 2.72-5.03 3.17-7.45 0.5-2.39 0.44-4.71 0.06-6.84-0.77-4.25-2.84-7.69-4.46-9.03-5.51-4.53-8.1-10.03-8.21-15.65-0.18-5.66 2.42-11.13 6.53-15.43l3.57 3.57c-2.78 2.9-4.95 6.9-5.22 11.11-0.21 4.28 1.44 8.68 5.85 12.47z"/>
			<path id="&lt;Path&gt;" class="s0" d="m52.75 215.21q-0.27 1.47-0.71 2.85c-0.3 0.92-0.65 1.8-0.98 2.67-0.7 1.72-1.59 3.31-2.59 4.71-1.01 1.4-2.12 2.61-3.27 3.58-1.11 0.97-2.25 1.69-3.37 2.09 8.52 2.43 14.5 6.36 17.44 8.96 1-2.7 2.17-4.68 3.19-4.7l7.27-0.07c-1.15 0.65-2.35 2.72-3.33 5.47-0.84 2.76-1.42 6.2-1.51 9.48h-9c0 0-1.99-1.36-5.47-2.83-3.48-1.45-8.44-3.05-14.36-3.23-6.37-0.2-9.08 2.63-9.15 6.06h-7.91c0.08-3.54 1.37-6.79 4.18-9.02 1.4-1.12 3.18-1.98 5.38-2.51q3.33-0.81 7.93-0.57c2.34 0.13 4.6 0.61 6.74 1.26 2.14 0.66 4.19 1.5 6.05 2.38 3.72 1.78 6.71 3.73 8.47 4.95 0.17-1.21 0.41-2.47 0.69-3.68-1.47-1.08-4.43-2.99-8.71-4.83-4.33-1.83-10.14-3.63-17.56-4.19-5.8-0.44-10.1 1.51-12.96 4.68-2.76 3.17-4.08 7.52-4.16 11.53h-5.05c0.06-2.96 0.63-5.88 1.66-8.53q0.78-1.99 1.91-3.75 1.2-1.76 2.72-3.23c4.07-3.9 9.79-5.95 16.9-5.26 2.1 0.2 5.9-0.79 9.5-3.25 3.6-2.47 6.66-6.38 7.84-12.39 0.8-4.89-0.37-8.45-2.38-11.03-1.99-2.57-4.69-4.08-6.47-4.52-1.53-0.38-2.76 0.6-2.47 1.69q0.19 0.02 0.38 0.07c2.89 0.7 4.63 3.93 3.88 7.21-0.64 3.31-3.48 5.59-6.42 5.09-2.06-0.37-3.58-1.55-4.51-3.1-0.46-0.77-0.78-1.63-0.94-2.52q-0.12-0.66-0.12-1.33 0.02-0.67 0.17-1.31c0.62-2.74 1.92-4.98 3.71-6.34 1.8-1.37 4.09-1.85 6.72-1.17 3.49 0.9 6.64 3.17 8.65 6.37 1 1.59 1.72 3.43 2.05 5.47 0.14 1.01 0.27 2.1 0.28 3.23q0.01 1.7-0.31 3.56z"/>
			<path id="&lt;Path&gt;" class="s0" d="m98.06 250.25h-29.38c0.54-1.65 6.87-1.78 13.63-2.72 3.39-0.46 6.87-1.12 9.8-2.2 1.46-0.54 2.78-1.18 3.88-1.97 0.55-0.4 1.02-0.83 1.47-1.29q0.69-0.7 1.16-1.53c0.71 0.04 1.03 0.3 1.11 0.74 0.09 0.44-0.11 1.07-0.3 1.9-0.43 1.65-1.25 4.06-1.37 7.07z"/>
			<path id="&lt;Path&gt;" class="s0" d="m82.4 220.42c-0.04 0.22-0.16 0.9-0.33 1.83-0.17 0.94-0.41 2.13-0.54 3.41-0.32 2.54-0.68 5.35-0.87 6.84-0.21 2.43-0.82 4.36-1.76 5.93-0.91 1.57-2.18 2.78-3.44 3.72-2.57 1.89-5.7 2.71-8.02 3.13-0.49-0.17 0.22-2.26 0.22-2.26 0 0 2.02-0.05 4.06-1.22 1.01-0.59 2.1-1.45 2.96-2.71 0.85-1.27 1.49-2.93 1.65-5.17 0.05-0.58 0.08-1.2 0.15-1.84q0.13-0.96 0.26-1.98 0.26-2.05 0.54-4.24c-0.11-2.46-0.29-4.53-0.81-6.31-0.51-1.79-1.27-3.28-2.18-4.51q-1.39-1.83-3.07-2.89c-1.12-0.72-2.33-1.19-3.54-1.46-2.84-0.61-5.5 0.47-7.33 2.23-1.87 1.75-3.11 4.12-3.41 5.82-0.34 1.7-0.31 3.26-0.16 4.41 0.16 1.14 0.48 1.88 0.92 1.98 0.89 0.2 0.98-1.26 0.98-1.26 0.34-3.09 3.23-5.16 6.16-4.65 2.94 0.5 4.85 3.22 4.54 6.11-0.51 3.99-3.56 5.79-7.41 5.41-2.09-0.21-4.07-1.45-5.41-3.57-0.67-1.07-1.18-2.35-1.46-3.82-0.27-1.46-0.39-3.13-0.03-4.91 0.49-2.76 1.26-5.05 2.21-6.91 0.46-0.93 1.06-1.73 1.66-2.44q0.9-1.05 1.9-1.8c2.63-2.01 5.64-2.42 8.44-1.73 2.97 0.74 5.15 2.3 6.66 4.3q1.13 1.5 1.78 3.28 0.32 0.88 0.54 1.81 0.26 0.94 0.41 1.92c0.19-2.07 0.47-4.1 0.52-6.15q0.05-1.53-0.01-3.05-0.03-0.76-0.08-1.52-0.03-0.76-0.06-1.5c-0.19-3.97-1.08-7.9-2.17-11.47q-0.87-2.7-2.17-5.16-0.65-1.23-1.41-2.37-0.74-1.14-1.57-2.19c-2.24-2.78-5.11-5.06-8.7-6.46-2.91-1.15-6.14-1.26-9.01-0.15-0.71 0.28-1.42 0.62-2.06 1.06q-0.95 0.65-1.77 1.54c-1.1 1.18-1.99 2.68-2.6 4.46-1.13 3.21-0.61 5.91 0.47 7.83 1.1 1.93 2.85 3.14 4.52 3.6 1.95 0.54 4.18-0.81 4.15-2.02-2.22-1.19-3.43-4.09-2.45-6.84 1.06-3.14 4.2-4.86 7-3.84 2.8 1.02 4.26 4.24 3.26 7.18-0.84 2.32-2.24 4.72-4.41 6.32-2.16 1.6-5 2.44-8.39 1.55-2.31-0.61-4.41-2.25-5.62-4.83-1.19-2.57-1.63-6.15-0.16-10.28 0.61-1.81 1.55-3.46 2.75-4.85q0.44-0.53 0.94-1 0.52-0.46 1.08-0.88 1.12-0.82 2.37-1.4c3.33-1.57 7.29-1.75 11.27-0.11 3.74 1.53 6.99 3.94 9.67 6.93q2.02 2.25 3.59 4.9 0.77 1.32 1.5 2.75 0.71 1.42 1.3 2.93 1.19 3 1.85 6.28 0.81 3.32 1.03 6.88c0.08 2.35 0.24 4.86 0.05 7.41-0.07 1.29-0.25 2.58-0.39 3.91q-0.19 2.01-0.56 4.09z"/>
			<path id="&lt;Path&gt;" class="s0" d="m76.22 161.67c-0.71 1.39-1.9 2.38-3.25 2.88-1.34 0.49-2.8 0.52-4.15-0.12-1.34-0.64-2.32-1.82-2.72-3.21-0.39-1.38-0.25-2.98 0.5-4.45 1.34-2.59 4.07-3.87 6.52-3.12 0.9-0.83 0.29-3.35-1.47-4.35-1.5-0.85-3.6-1.25-5.76-0.67q-0.81 0.22-1.62 0.63-0.79 0.42-1.53 1.06c-0.99 0.86-1.91 2.02-2.68 3.53-0.85 1.69-1.33 3.35-1.36 4.97-0.02 1.63 0.31 3.18 0.92 4.57 1.22 2.81 3.56 5.01 6.43 6.26 3.53 1.55 7.19 1.98 10.76 1.61q2.69-0.29 5.29-1.14c1.72-0.56 3.52-1.24 5.21-2.1q2.55-1.27 4.92-2.96c1.62-1.09 3.24-2.28 4.74-3.6q1.13-0.99 2.2-2.06c0.7-0.72 1.47-1.41 2.17-2.16q2.13-2.21 3.96-4.72c-2.03 1.6-4.37 2.71-6.87 3.04-2.49 0.33-5.15-0.11-7.76-1.68-2.48-1.5-4.3-3.91-4.73-7.18-0.21-1.63-0.07-3.48 0.5-5.51 0.27-1.02 0.72-2.05 1.28-3.12q0.83-1.61 2.05-3.32c2.05-3 4.76-4.57 7.21-5.13 2.46-0.55 4.74-0.02 6.37 1.31 2.99 2.45 3.87 5.87 1.38 9.03-0.93 1.13-2.14 1.88-3.5 2.09-1.35 0.21-2.8-0.08-4.01-0.95-1.21-0.86-1.96-2.15-2.16-3.55-0.2-1.38 0.09-2.92 1.07-4.12 0 0 0.97-1.08 0.2-1.57-0.76-0.48-3.06 1.14-5.03 4-0.99 1.41-1.83 3.93-1.73 6.5 0.15 2.61 1.18 5.2 3.64 6.78 2.08 1.34 4.78 2.08 7.74 1.59 1.45-0.26 3.09-0.75 4.72-1.65 1.65-0.89 3.27-2.19 5.01-3.91 1.83-2.3 3.56-4.55 5.04-6.37 2.94-3.37 2.96-6.51 2.31-8.82-0.61-2.28-2.01-3.74-2.01-3.74 0 0 0.98-1.97 1.45-1.75 1.34 1.93 2.97 4.72 3.46 7.88 0.26 1.59 0.28 3.32-0.19 5.07q-0.33 1.32-1.06 2.68c-0.49 0.89-1.13 1.8-1.86 2.77-0.93 1.19-2.68 3.41-4.27 5.43-1.48 2.09-2.81 3.97-3.07 4.34-1.69 2.25-3.24 4.43-4.98 6.33-0.85 0.97-1.79 1.84-2.63 2.73q-1.29 1.32-2.64 2.49c-3.7 3.07-7.37 5.58-11.39 7.26q-1.51 0.62-2.96 1.15-1.48 0.52-2.98 0.9-3.01 0.75-6.04 0.91c-4.05 0.2-8.05-0.4-11.76-1.96-4-1.68-6.63-4.59-7.86-8.04-1.2-3.43-1.09-7.43 0.71-10.79 0.99-1.95 2.15-3.51 3.39-4.71 0.61-0.6 1.27-1.09 1.95-1.49q1.01-0.6 2.03-0.96c2.71-0.95 5.37-0.62 7.43 0.58 3.02 1.77 4.42 4.37 4.79 7.01 0.32 2.62-0.19 5.42-1.32 7.6z"/>
		</g>
		<g id="&lt;Group&gt;">
			<path id="&lt;Path&gt;" class="s0" d="m250.07 98.06c-3.07 0.09-5.52 0.92-7.2 1.36-1.67 0.5-2.59 0.66-2.69-0.77 2.25-1.33 3.77-3.7 4.85-6.72 1.07-3.01 1.71-6.6 2.16-10.04 0.9-6.89 1.02-13.21 2.85-13.26q0.11 0.01 0.21 0.05v29.38q-0.09 0-0.18 0z"/>
			<path id="&lt;Compound Path&gt;" fill-rule="evenodd" class="s0" d="m187.75 81.61c1.14 3.14 0.09 6.55-2.32 8.27 5.94 4.1 13.05 3.59 18.21 2.79q1.69-0.48 3.44-0.98 0.88-0.25 1.76-0.51c0.59-0.17 1.19-0.28 1.79-0.42q1.81-0.42 3.61-0.83 0.9-0.21 1.79-0.42 0.89-0.23 1.78-0.38c2.37-0.42 4.68-0.83 6.82-1.21 2.15-0.33 4.16-0.54 5.91-0.78q1.41-0.18 2.63-0.52c0.82-0.2 1.59-0.41 2.3-0.69 1.43-0.54 2.66-1.26 3.74-2.11 1.07-0.84 1.98-1.85 2.77-2.83 0.8-1 1.46-2.07 2.04-3.15 2.3-4.36 3.08-9.04 4.45-10.48 0.42-0.42 0.36 5.4-2.07 11.39-0.6 1.49-1.35 3-2.25 4.42q-0.69 1.07-1.5 2.05-0.4 0.49-0.84 0.95-0.44 0.49-0.92 0.95c-1.26 1.23-2.72 2.28-4.43 3.07q-1.27 0.58-2.74 0.97-1.46 0.46-3.14 0.68-2.15 0.27-4.77 0.6-2.59 0.47-5.5 0.99-0.72 0.13-1.46 0.26-0.74 0.11-1.48 0.3-1.48 0.34-2.99 0.7c-2.01 0.47-4.07 0.87-6.04 1.49q-3 0.86-5.85 1.67-2.8 0.95-5.31 1.8c-1.68 0.52-3.19 1.16-4.53 1.69q-2.04 0.8-3.5 1.37c-0.97 0.35-2.11 0.91-3.43 1.5q-2 0.9-4.42 1.99c-1.57 0.78-3.24 1.67-5 2.55-0.87 0.46-1.79 0.87-2.66 1.39q-1.32 0.77-2.67 1.55c-1.79 1.03-3.64 2.03-5.35 3.19-1.73 1.14-3.48 2.19-5.1 3.3q-2.41 1.72-4.56 3.25-1.09 0.74-2.03 1.5-0.95 0.75-1.8 1.42c-3.6 2.72-7.08 3.9-10.62 3.96q-2.65 0.01-5.1-0.52c-1.65-0.36-3.24-0.9-4.72-1.53-5.94-2.52-10.1-6.59-9.51-6.6 1.99 0.06 5.84 2.81 10.55 4.27q1.76 0.55 3.66 0.79c1.29 0.17 2.62 0.21 3.98 0.05 1.35-0.16 2.73-0.52 4.12-1.16q0.52-0.24 1.04-0.52 0.55-0.26 1.1-0.58 1.1-0.64 2.21-1.51c2.74-2.25 6.46-4.86 10.43-7.59 2.05-1.29 4.12-2.67 6.22-3.96 2.14-1.23 4.26-2.45 6.29-3.62 2.15-1.46 4.55-3.43 6.56-5.92 2.06-2.37 3.73-5.33 4.35-8.94-2.9 0.53-6.05-1.11-7.46-4.13-0.81-1.76-0.84-3.67-0.21-5.35q0.48-1.28 1.42-2.3 0.47-0.51 1.04-0.92 0.58-0.39 1.27-0.66c3.64-1.43 7.67 0.36 9 4zm-5.36 18.99c1.52-0.7 2.76-1.26 3.62-1.65 0.42-0.2 0.77-0.31 1-0.41q0.35-0.14 0.36-0.14c0 0 1.95-0.77 5.06-1.99-4.9-0.91-8.3-5.82-8.3-5.82 0 0 0.27 1.46 0.16 3.41-0.08 1.99-0.5 4.51-1.9 6.6z"/>
			<path id="&lt;Path&gt;" class="s0" d="m234.04 32.17c0.56 7.42 2.36 13.23 4.19 17.56 1.84 4.28 3.75 7.24 4.83 8.71 1.21-0.28 2.47-0.52 3.68-0.69-1.22-1.76-3.17-4.75-4.95-8.47-0.88-1.86-1.72-3.91-2.38-6.05-0.65-2.14-1.13-4.4-1.26-6.74q-0.24-4.6 0.57-7.93c0.53-2.21 1.39-3.98 2.51-5.38 2.23-2.81 5.48-4.1 9.02-4.18v7.91c-3.43 0.07-6.26 2.78-6.06 9.15 0.18 5.92 1.78 10.88 3.23 14.36 1.47 3.48 2.83 5.47 2.83 5.47v9c-3.28 0.09-6.72 0.67-9.48 1.51-2.75 0.98-4.82 2.18-5.47 3.33l0.07-7.27c0.02-1.02 2-2.19 4.7-3.19-2.6-2.94-6.53-8.92-8.96-17.44-0.4 1.12-1.12 2.26-2.09 3.37-0.97 1.15-2.18 2.26-3.58 3.27-1.4 1-2.99 1.89-4.71 2.59-0.87 0.33-1.75 0.68-2.67 0.98q-1.38 0.44-2.85 0.71-1.86 0.32-3.56 0.31c-1.13-0.01-2.22-0.14-3.23-0.28-2.04-0.33-3.88-1.05-5.48-2.05-3.19-2.01-5.46-5.16-6.36-8.65-0.68-2.63-0.2-4.92 1.17-6.72 1.36-1.79 3.6-3.09 6.34-3.71q0.64-0.15 1.31-0.17 0.67 0 1.33 0.12c0.88 0.16 1.75 0.48 2.52 0.94 1.55 0.93 2.73 2.45 3.1 4.51 0.5 2.94-1.78 5.78-5.09 6.42-3.28 0.75-6.51-0.99-7.21-3.88q-0.05-0.19-0.07-0.38c-1.09-0.29-2.07 0.94-1.69 2.47 0.44 1.78 1.95 4.48 4.52 6.47 2.58 2.01 6.14 3.18 11.03 2.38 6.01-1.18 9.92-4.24 12.39-7.84 2.46-3.6 3.45-7.4 3.25-9.5-0.69-7.11 1.36-12.83 5.26-16.9q1.47-1.52 3.23-2.72 1.76-1.13 3.75-1.91c2.65-1.03 5.56-1.6 8.53-1.66v5.05c-4.01 0.08-8.36 1.4-11.53 4.16-3.17 2.86-5.12 7.16-4.68 12.96z"/>
			<path id="&lt;Path&gt;" class="s0" d="m135.37 85.82c-1.61 1.15-3.34 2.04-5.09 2.71-1.74 0.68-3.46 1.22-5.16 1.49-1.69 0.29-3.33 0.37-4.82 0.25q-1.12-0.1-2.11-0.34-0.98-0.23-1.79-0.61c4.31 7.75 5.77 14.78 6.01 18.7 2.61-1.2 4.83-1.78 5.57-1.08l5.19 5.09c-1.28-0.35-3.58 0.27-6.21 1.53-2.58 1.32-5.39 3.37-7.78 5.62l-6.36-6.36c0 0-0.45-2.38-1.88-5.87-1.43-3.49-3.8-8.13-7.87-12.45-4.35-4.64-8.27-4.56-10.75-2.18l-5.59-5.59c2.56-2.45 5.78-3.85 9.34-3.44 3.54 0.37 7.52 2.68 11.6 7.26 1.56 1.74 2.83 3.68 3.87 5.66q0.78 1.48 1.42 2.97 0.64 1.51 1.16 2.97c1.37 3.89 2.11 7.39 2.49 9.49 0.98-0.73 2.03-1.45 3.08-2.12-0.13-0.9-0.38-2.2-0.83-3.83-0.41-1.61-1.01-3.54-1.89-5.72-1.77-4.36-4.61-9.76-9.45-15.4-3.79-4.41-8.19-6.06-12.47-5.85-4.21 0.27-8.21 2.44-11.11 5.22l-3.57-3.57c4.3-4.11 9.77-6.71 15.43-6.53 5.62 0.11 11.12 2.7 15.65 8.21 1.34 1.62 4.78 3.69 9.03 4.46 2.13 0.38 4.45 0.44 6.84-0.05 2.42-0.46 4.96-1.4 7.45-3.18 2-1.48 3.47-2.96 4.44-4.58 0.97-1.61 1.48-3.29 1.68-4.91 0.39-3.25-0.43-6.19-1.38-7.76-0.41-0.68-1-1.07-1.58-1.17-0.56-0.1-1.09 0.11-1.37 0.6q0.12 0.15 0.22 0.32c1.55 2.54 0.51 6.08-2.32 7.9q-1.08 0.68-2.24 0.93-1.15 0.28-2.26 0.16c-1.46-0.16-2.8-0.86-3.66-2.08-2.4-3.4-0.95-7.77 2.04-9.62 2.36-1.52 4.85-2.2 7.07-1.91 2.26 0.34 4.24 1.66 5.62 4 0.91 1.55 1.52 3.27 1.79 5.06q0.2 1.34 0.14 2.7c-0.04 0.92-0.14 1.86-0.35 2.79-0.41 1.85-1.19 3.67-2.39 5.36q-0.89 1.27-2.12 2.44c-0.8 0.79-1.7 1.59-2.73 2.31z"/>
			<path id="&lt;Path&gt;" class="s0" d="m142.63 142.63l-20.77-20.77c1.55-0.79 6.12 3.6 11.56 7.72 2.71 2.06 5.64 4.07 8.47 5.37 1.41 0.65 2.8 1.13 4.13 1.35 1.32 0.2 2.65 0.24 3.87-0.11 0.93 1.06 0.2 1.62-1.31 2.42-1.46 0.86-3.74 1.98-5.95 4.02z"/>
			<path id="&lt;Path&gt;" class="s0" d="m152.66 110.48c-0.37 0.26-2.25 1.59-4.34 3.07-2.02 1.59-4.24 3.34-5.43 4.27-0.97 0.73-1.88 1.37-2.78 1.86q-1.35 0.73-2.67 1.06c-1.76 0.47-3.48 0.45-5.07 0.19-3.16-0.49-5.95-2.12-7.88-3.46-0.22-0.47 1.75-1.45 1.75-1.45 0 0 1.46 1.4 3.74 2.01 2.31 0.65 5.45 0.63 8.82-2.31 1.82-1.48 4.07-3.21 6.37-5.03 1.72-1.74 3.02-3.37 3.91-5.02 0.9-1.63 1.39-3.27 1.65-4.72 0.49-2.96-0.25-5.66-1.59-7.74-1.58-2.46-4.17-3.49-6.78-3.64-2.57-0.1-5.09 0.74-6.5 1.73-2.86 1.97-4.48 4.27-4 5.03 0.49 0.77 1.57-0.2 1.57-0.2 1.2-0.98 2.74-1.27 4.12-1.07 1.4 0.2 2.69 0.95 3.55 2.16 0.87 1.21 1.16 2.66 0.94 4.01-0.2 1.36-0.95 2.57-2.08 3.5-3.16 2.49-6.58 1.61-9.03-1.38-1.33-1.63-1.86-3.91-1.31-6.37 0.56-2.45 2.13-5.16 5.13-7.21q1.71-1.22 3.32-2.05c1.07-0.56 2.09-1.01 3.12-1.28 2.03-0.57 3.88-0.71 5.51-0.5 3.27 0.43 5.68 2.25 7.18 4.73 1.57 2.61 2.01 5.27 1.68 7.76-0.33 2.5-1.44 4.84-3.04 6.87q2.51-1.83 4.72-3.96c0.75-0.7 1.44-1.47 2.16-2.17q1.07-1.07 2.06-2.2c1.32-1.5 2.51-3.12 3.6-4.74q1.69-2.37 2.96-4.92c0.86-1.69 1.54-3.49 2.1-5.21q0.85-2.6 1.14-5.29c0.37-3.57-0.06-7.23-1.61-10.76-1.25-2.87-3.45-5.21-6.26-6.43-1.39-0.61-2.94-0.94-4.57-0.92-1.62 0.03-3.28 0.51-4.97 1.36-1.51 0.77-2.67 1.69-3.53 2.68q-0.64 0.74-1.06 1.53-0.41 0.81-0.63 1.62c-0.58 2.16-0.19 4.26 0.67 5.76 1 1.76 3.52 2.37 4.35 1.47-0.75-2.45 0.53-5.18 3.12-6.52 1.47-0.75 3.07-0.89 4.45-0.5 1.39 0.4 2.57 1.38 3.21 2.72 0.64 1.35 0.61 2.81 0.12 4.15-0.5 1.35-1.49 2.54-2.88 3.25-2.18 1.13-4.98 1.64-7.6 1.32-2.64-0.37-5.24-1.77-7.01-4.79-1.2-2.06-1.53-4.72-0.58-7.43q0.36-1.02 0.96-2.03c0.4-0.68 0.89-1.34 1.49-1.95 1.2-1.24 2.76-2.39 4.71-3.39 3.36-1.8 7.36-1.91 10.79-0.71 3.45 1.23 6.36 3.86 8.04 7.86 1.56 3.71 2.16 7.71 1.96 11.76q-0.16 3.03-0.91 6.04-0.38 1.5-0.9 2.98-0.53 1.45-1.16 2.96c-1.67 4.02-4.18 7.69-7.25 11.39q-1.17 1.35-2.49 2.64c-0.89 0.84-1.76 1.78-2.73 2.63-1.9 1.74-4.08 3.29-6.33 4.98z"/>
			<path id="&lt;Path&gt;" class="s0" d="m189.82 64.53c-2.94 1-6.16-0.46-7.18-3.26-1.02-2.8 0.7-5.94 3.84-7 2.75-0.98 5.65 0.23 6.84 2.45 1.21 0.03 2.56-2.2 2.02-4.15-0.46-1.67-1.67-3.42-3.6-4.52-1.92-1.08-4.62-1.6-7.83-0.47-1.78 0.61-3.28 1.51-4.46 2.6q-0.89 0.82-1.54 1.77c-0.44 0.64-0.78 1.35-1.06 2.06-1.11 2.87-1 6.1 0.15 9.01 1.4 3.59 3.68 6.46 6.46 8.7q1.05 0.83 2.18 1.57 1.15 0.76 2.38 1.41 2.46 1.3 5.16 2.17c3.57 1.09 7.5 1.98 11.47 2.17q0.74 0.03 1.5 0.06 0.76 0.05 1.52 0.08 1.52 0.06 3.05 0.01c2.05-0.05 4.08-0.33 6.15-0.52q-0.98-0.15-1.92-0.41-0.93-0.22-1.81-0.54-1.78-0.65-3.28-1.78c-2-1.51-3.56-3.69-4.3-6.66-0.69-2.8-0.28-5.81 1.73-8.44q0.75-1 1.8-1.9c0.71-0.6 1.51-1.2 2.44-1.66 1.86-0.95 4.15-1.72 6.91-2.21 1.78-0.36 3.45-0.24 4.91 0.03 1.47 0.28 2.75 0.79 3.82 1.46 2.12 1.34 3.36 3.32 3.57 5.41 0.38 3.85-1.42 6.9-5.41 7.41-2.89 0.31-5.61-1.6-6.11-4.54-0.51-2.93 1.56-5.82 4.65-6.16 0 0 1.46-0.09 1.26-0.98-0.1-0.44-0.84-0.76-1.98-0.92-1.15-0.15-2.71-0.18-4.41 0.16-1.7 0.3-4.07 1.54-5.82 3.41-1.76 1.83-2.84 4.49-2.23 7.33 0.27 1.21 0.74 2.42 1.46 3.54q1.06 1.68 2.89 3.07c1.23 0.91 2.72 1.67 4.51 2.18 1.78 0.52 3.85 0.7 6.31 0.81q2.19-0.28 4.24-0.54 1.02-0.13 1.98-0.26c0.64-0.07 1.26-0.1 1.84-0.15 2.24-0.16 3.9-0.8 5.17-1.65 1.26-0.86 2.12-1.95 2.7-2.96 1.18-2.04 1.23-4.06 1.23-4.06 0 0 2.09-0.71 2.26-0.22-0.42 2.32-1.24 5.45-3.13 8.02-0.95 1.26-2.15 2.53-3.72 3.44-1.57 0.94-3.5 1.55-5.93 1.76-1.49 0.19-4.3 0.55-6.84 0.87-1.28 0.13-2.47 0.37-3.41 0.54-0.93 0.17-1.61 0.29-1.83 0.33q-2.08 0.37-4.09 0.56c-1.33 0.14-2.62 0.32-3.91 0.39-2.55 0.19-5.06 0.03-7.41-0.05q-3.56-0.22-6.88-1.03-3.28-0.66-6.28-1.85-1.51-0.59-2.93-1.3-1.43-0.73-2.75-1.5-2.65-1.57-4.9-3.59c-2.99-2.68-5.4-5.93-6.93-9.67-1.64-3.98-1.46-7.94 0.1-11.27q0.59-1.25 1.41-2.37 0.41-0.56 0.88-1.08 0.47-0.5 1-0.94c1.39-1.2 3.04-2.14 4.85-2.75 4.13-1.47 7.71-1.03 10.27 0.16 2.59 1.21 4.23 3.31 4.84 5.62 0.89 3.39 0.05 6.23-1.55 8.39-1.6 2.17-4 3.57-6.32 4.41z"/>
		</g>
		<g id="&lt;Group&gt;">
			<path id="&lt;Path&gt;" class="s0" d="m357.74 142.51c-2.23-2.1-4.53-3.26-6.03-4.12-1.57-0.8-2.31-1.36-1.37-2.44 1.24 0.36 2.59 0.33 3.96 0.08 1.36-0.23 2.78-0.74 4.22-1.42 2.89-1.37 5.87-3.46 8.62-5.58 5.51-4.23 10.06-8.61 11.38-7.35q0.08 0.08 0.12 0.18l-20.77 20.77z"/>
			<path id="&lt;Compound Path&gt;" fill-rule="evenodd" class="s0" d="m325.27 86.84c-1.41 3.02-4.56 4.66-7.46 4.13 0.62 3.61 2.29 6.57 4.35 8.94 2.01 2.49 4.41 4.46 6.56 5.92 2.03 1.17 4.15 2.39 6.29 3.62 2.1 1.29 4.17 2.67 6.22 3.96 3.97 2.73 7.69 5.34 10.43 7.59q1.11 0.87 2.21 1.51 0.55 0.32 1.1 0.58 0.52 0.28 1.04 0.52c1.39 0.64 2.77 1 4.12 1.16 1.36 0.16 2.69 0.12 3.98-0.05q1.9-0.24 3.66-0.79c4.71-1.46 8.56-4.21 10.55-4.27 0.59 0.01-3.57 4.08-9.51 6.6-1.48 0.63-3.07 1.17-4.72 1.53q-2.45 0.53-5.1 0.52c-3.54-0.06-7.02-1.24-10.62-3.96q-0.85-0.67-1.8-1.42-0.94-0.76-2.03-1.5-2.15-1.53-4.56-3.25c-1.62-1.11-3.37-2.16-5.1-3.3-1.71-1.16-3.56-2.16-5.35-3.19q-1.35-0.78-2.67-1.55c-0.87-0.52-1.79-0.93-2.66-1.39-1.76-0.88-3.43-1.77-5-2.55q-2.42-1.09-4.42-1.99c-1.32-0.59-2.46-1.15-3.43-1.5q-1.46-0.57-3.5-1.37c-1.34-0.53-2.85-1.17-4.53-1.69q-2.51-0.85-5.31-1.8-2.85-0.81-5.85-1.67c-1.97-0.62-4.03-1.02-6.04-1.49q-1.51-0.36-2.99-0.7-0.74-0.19-1.48-0.3-0.74-0.13-1.46-0.26-2.91-0.52-5.5-0.99-2.62-0.33-4.77-0.6-1.68-0.22-3.14-0.68-1.47-0.39-2.74-0.97c-1.71-0.79-3.17-1.84-4.43-3.07q-0.48-0.46-0.92-0.95-0.44-0.46-0.84-0.95-0.81-0.98-1.5-2.05c-0.91-1.42-1.65-2.93-2.25-4.42-2.43-5.99-2.49-11.81-2.07-11.39 1.37 1.44 2.15 6.12 4.45 10.48 0.58 1.08 1.24 2.15 2.04 3.15 0.79 0.98 1.7 1.99 2.77 2.83 1.08 0.85 2.31 1.57 3.74 2.11 0.71 0.28 1.48 0.49 2.3 0.69q1.22 0.34 2.63 0.52c1.75 0.24 3.76 0.45 5.91 0.78 2.14 0.38 4.45 0.79 6.82 1.21q0.89 0.15 1.78 0.38 0.89 0.21 1.79 0.42 1.8 0.41 3.61 0.83c0.6 0.14 1.2 0.25 1.79 0.42q0.88 0.26 1.76 0.51 1.75 0.5 3.44 0.98c5.16 0.8 12.27 1.31 18.21-2.79-2.41-1.72-3.46-5.14-2.32-8.27 1.33-3.64 5.36-5.43 9-4q0.69 0.27 1.27 0.66 0.57 0.41 1.04 0.92 0.94 1.02 1.42 2.3c0.63 1.68 0.6 3.59-0.21 5.35zm-17.2 9.57c3.11 1.22 5.06 1.99 5.06 1.99q0.01 0 0.36 0.14c0.22 0.1 0.58 0.21 1 0.41 0.86 0.39 2.1 0.95 3.62 1.65-1.4-2.09-1.82-4.61-1.9-6.6-0.11-1.95 0.16-3.41 0.16-3.41 0 0-3.4 4.91-8.3 5.82z"/>
			<path id="&lt;Path&gt;" class="s0" d="m392.98 84.57c-4.84 5.64-7.68 11.04-9.45 15.4-0.88 2.18-1.48 4.11-1.9 5.72-0.44 1.63-0.69 2.93-0.82 3.83 1.05 0.67 2.1 1.39 3.08 2.12 0.38-2.1 1.12-5.6 2.49-9.49q0.52-1.46 1.16-2.97 0.64-1.49 1.42-2.97c1.04-1.98 2.31-3.92 3.87-5.66 4.08-4.58 8.06-6.89 11.6-7.26 3.56-0.41 6.78 0.99 9.34 3.44l-5.59 5.59c-2.48-2.38-6.4-2.46-10.75 2.18-4.07 4.32-6.44 8.96-7.87 12.44-1.43 3.5-1.88 5.88-1.88 5.88l-6.36 6.36c-2.39-2.25-5.2-4.3-7.78-5.62-2.63-1.26-4.93-1.88-6.21-1.53l5.19-5.09c0.74-0.7 2.96-0.12 5.57 1.08 0.24-3.92 1.7-10.95 6.01-18.7q-0.81 0.38-1.79 0.61-0.99 0.24-2.11 0.34c-1.49 0.12-3.13 0.04-4.82-0.25-1.7-0.27-3.42-0.81-5.16-1.49-1.76-0.67-3.48-1.56-5.09-2.71-1.03-0.72-1.93-1.52-2.73-2.31q-1.23-1.17-2.12-2.44c-1.2-1.69-1.98-3.51-2.39-5.36-0.21-0.93-0.32-1.87-0.35-2.79q-0.06-1.36 0.14-2.7c0.27-1.79 0.87-3.51 1.79-5.06 1.38-2.35 3.36-3.66 5.62-4 2.22-0.29 4.71 0.39 7.07 1.91 2.99 1.85 4.44 6.22 2.04 9.62-0.86 1.22-2.2 1.92-3.66 2.08q-1.11 0.12-2.26-0.16-1.16-0.25-2.24-0.93c-2.83-1.82-3.87-5.36-2.32-7.9q0.1-0.17 0.22-0.32c-0.28-0.49-0.81-0.7-1.37-0.6-0.58 0.1-1.17 0.49-1.58 1.17-0.95 1.57-1.77 4.51-1.38 7.76 0.2 1.62 0.71 3.3 1.68 4.91 0.97 1.62 2.44 3.1 4.44 4.58 2.49 1.78 5.03 2.72 7.45 3.17 2.39 0.5 4.71 0.44 6.84 0.06 4.25-0.77 7.69-2.84 9.03-4.46 4.53-5.51 10.03-8.1 15.65-8.21 5.66-0.18 11.13 2.42 15.43 6.53l-3.57 3.57c-2.9-2.78-6.9-4.95-11.11-5.22-4.28-0.21-8.68 1.44-12.47 5.85z"/>
			<path id="&lt;Path&gt;" class="s0" d="m285.29 52.75q-1.47-0.27-2.85-0.71c-0.92-0.3-1.8-0.65-2.67-0.98-1.72-0.7-3.31-1.59-4.71-2.59-1.4-1.01-2.61-2.12-3.58-3.27-0.97-1.11-1.69-2.25-2.09-3.37-2.43 8.52-6.36 14.5-8.96 17.44 2.7 1 4.68 2.17 4.7 3.19l0.07 7.27c-0.65-1.15-2.72-2.35-5.47-3.33-2.76-0.84-6.2-1.42-9.48-1.51v-9c0 0 1.36-1.99 2.83-5.47 1.45-3.48 3.05-8.44 3.23-14.36 0.2-6.37-2.63-9.08-6.06-9.15v-7.91c3.54 0.08 6.79 1.37 9.02 4.18 1.12 1.4 1.98 3.17 2.51 5.38q0.81 3.33 0.57 7.93c-0.13 2.34-0.61 4.6-1.26 6.74-0.66 2.14-1.5 4.19-2.38 6.05-1.78 3.72-3.73 6.71-4.95 8.47 1.21 0.17 2.47 0.41 3.68 0.69 1.08-1.47 2.99-4.43 4.83-8.71 1.83-4.33 3.63-10.14 4.19-17.56 0.44-5.8-1.51-10.1-4.68-12.96-3.17-2.76-7.52-4.08-11.53-4.16v-5.05c2.97 0.06 5.88 0.63 8.53 1.66q1.99 0.78 3.75 1.91 1.76 1.2 3.23 2.72c3.9 4.07 5.95 9.79 5.26 16.9-0.2 2.1 0.79 5.9 3.25 9.5 2.47 3.6 6.38 6.66 12.39 7.84 4.89 0.8 8.45-0.37 11.03-2.38 2.57-1.99 4.08-4.69 4.52-6.47 0.38-1.53-0.6-2.76-1.69-2.47q-0.02 0.19-0.07 0.38c-0.7 2.89-3.93 4.63-7.21 3.88-3.31-0.64-5.59-3.48-5.09-6.42 0.37-2.06 1.55-3.58 3.1-4.51 0.77-0.46 1.64-0.78 2.52-0.94q0.66-0.12 1.33-0.12 0.67 0.02 1.31 0.17c2.74 0.62 4.98 1.92 6.34 3.71 1.37 1.8 1.85 4.09 1.17 6.72-0.9 3.49-3.17 6.64-6.37 8.65-1.59 1-3.43 1.72-5.47 2.05-1.01 0.14-2.1 0.27-3.23 0.28q-1.7 0.01-3.56-0.31z"/>
			<path id="&lt;Path&gt;" class="s0" d="m250.25 98.06v-29.38c1.65 0.54 1.78 6.87 2.72 13.63 0.46 3.39 1.12 6.87 2.2 9.8 0.54 1.46 1.18 2.78 1.97 3.88 0.4 0.55 0.83 1.02 1.29 1.47q0.7 0.69 1.53 1.16c-0.04 0.71-0.3 1.03-0.74 1.11-0.44 0.09-1.07-0.11-1.9-0.3-1.65-0.43-4.06-1.25-7.07-1.37z"/>
			<path id="&lt;Path&gt;" class="s0" d="m280.08 82.4c-0.22-0.04-0.9-0.16-1.83-0.33-0.94-0.17-2.13-0.41-3.41-0.54-2.54-0.32-5.35-0.68-6.84-0.87-2.43-0.21-4.36-0.82-5.93-1.76-1.57-0.91-2.78-2.18-3.72-3.44-1.89-2.57-2.71-5.7-3.13-8.02 0.17-0.49 2.26 0.22 2.26 0.22 0 0 0.05 2.02 1.22 4.06 0.59 1.01 1.45 2.1 2.71 2.96 1.27 0.85 2.93 1.49 5.17 1.65 0.58 0.05 1.2 0.08 1.84 0.15q0.96 0.13 1.98 0.26 2.05 0.26 4.24 0.54c2.46-0.11 4.53-0.29 6.31-0.81 1.79-0.51 3.28-1.27 4.51-2.18q1.83-1.39 2.89-3.07c0.72-1.12 1.19-2.33 1.46-3.54 0.61-2.84-0.47-5.5-2.23-7.33-1.75-1.87-4.12-3.11-5.82-3.41-1.7-0.34-3.26-0.31-4.41-0.16-1.14 0.16-1.88 0.48-1.98 0.92-0.2 0.89 1.26 0.98 1.26 0.98 3.09 0.34 5.16 3.23 4.65 6.16-0.5 2.94-3.22 4.85-6.11 4.54-3.99-0.51-5.79-3.56-5.41-7.41 0.21-2.09 1.45-4.07 3.57-5.41 1.07-0.67 2.35-1.18 3.82-1.46 1.46-0.27 3.13-0.39 4.91-0.03 2.76 0.49 5.05 1.26 6.91 2.21 0.93 0.46 1.73 1.06 2.44 1.66q1.05 0.9 1.8 1.9c2.01 2.63 2.42 5.64 1.73 8.44-0.74 2.97-2.3 5.15-4.3 6.66q-1.5 1.13-3.28 1.78-0.88 0.32-1.81 0.54-0.94 0.26-1.92 0.41c2.07 0.19 4.1 0.47 6.15 0.52q1.53 0.05 3.05-0.01 0.76-0.03 1.52-0.08 0.76-0.03 1.5-0.06c3.97-0.19 7.9-1.08 11.47-2.17q2.7-0.87 5.16-2.17 1.23-0.65 2.37-1.41 1.14-0.74 2.19-1.57c2.78-2.24 5.06-5.11 6.46-8.7 1.15-2.91 1.26-6.14 0.15-9.01-0.28-0.71-0.62-1.42-1.06-2.06q-0.65-0.95-1.54-1.77c-1.18-1.1-2.68-1.99-4.46-2.6-3.21-1.13-5.91-0.61-7.83 0.47-1.93 1.1-3.14 2.85-3.6 4.52-0.54 1.95 0.81 4.18 2.02 4.15 1.19-2.22 4.09-3.43 6.84-2.45 3.14 1.06 4.86 4.2 3.84 7-1.02 2.8-4.24 4.26-7.18 3.26-2.32-0.84-4.72-2.24-6.32-4.41-1.6-2.16-2.44-5-1.55-8.39 0.61-2.31 2.25-4.41 4.83-5.62 2.57-1.19 6.15-1.63 10.28-0.16 1.81 0.61 3.46 1.55 4.85 2.75q0.53 0.44 1 0.94 0.46 0.52 0.88 1.08 0.82 1.12 1.41 2.37c1.56 3.33 1.74 7.29 0.1 11.27-1.53 3.74-3.94 6.99-6.93 9.67q-2.25 2.02-4.9 3.59-1.32 0.77-2.75 1.5-1.42 0.71-2.93 1.3-3 1.19-6.28 1.85-3.32 0.81-6.88 1.03c-2.35 0.08-4.86 0.24-7.41 0.05-1.29-0.07-2.58-0.25-3.91-0.39q-2.01-0.19-4.09-0.56z"/>
			<path id="&lt;Path&gt;" class="s0" d="m338.83 76.22c-1.39-0.71-2.38-1.9-2.88-3.25-0.49-1.34-0.52-2.8 0.12-4.15 0.64-1.34 1.82-2.32 3.21-2.72 1.38-0.39 2.98-0.25 4.45 0.5 2.59 1.34 3.87 4.07 3.12 6.52 0.83 0.9 3.35 0.29 4.35-1.47 0.86-1.5 1.25-3.6 0.67-5.76q-0.22-0.81-0.63-1.62-0.42-0.79-1.06-1.53c-0.86-0.99-2.02-1.91-3.53-2.68-1.69-0.85-3.35-1.33-4.97-1.36-1.63-0.02-3.18 0.31-4.57 0.92-2.81 1.22-5.01 3.56-6.26 6.43-1.55 3.53-1.98 7.19-1.61 10.76q0.29 2.69 1.14 5.29c0.56 1.72 1.24 3.52 2.1 5.21q1.27 2.55 2.96 4.92c1.09 1.62 2.28 3.24 3.6 4.74q0.99 1.13 2.06 2.2c0.72 0.7 1.41 1.47 2.16 2.17q2.21 2.13 4.72 3.96c-1.6-2.03-2.71-4.37-3.04-6.87-0.33-2.49 0.11-5.15 1.68-7.76 1.5-2.48 3.91-4.3 7.18-4.73 1.63-0.21 3.48-0.07 5.51 0.5 1.02 0.27 2.05 0.72 3.12 1.28q1.61 0.83 3.32 2.05c3 2.05 4.57 4.76 5.13 7.21 0.55 2.46 0.02 4.74-1.31 6.37-2.45 2.99-5.87 3.87-9.03 1.38-1.13-0.93-1.88-2.14-2.09-3.5-0.21-1.35 0.08-2.8 0.95-4.01 0.86-1.21 2.15-1.96 3.55-2.16 1.38-0.2 2.92 0.09 4.12 1.07 0 0 1.08 0.97 1.57 0.2 0.48-0.76-1.14-3.06-4-5.03-1.41-0.99-3.93-1.83-6.5-1.73-2.61 0.15-5.2 1.18-6.78 3.64-1.34 2.08-2.08 4.78-1.59 7.74 0.26 1.45 0.75 3.09 1.65 4.72 0.89 1.65 2.19 3.27 3.91 5.01 2.3 1.83 4.55 3.56 6.37 5.04 3.37 2.94 6.51 2.96 8.82 2.31 2.28-0.61 3.74-2.01 3.74-2.01 0 0 1.97 0.98 1.75 1.45-1.93 1.34-4.72 2.97-7.88 3.46-1.59 0.26-3.31 0.28-5.07-0.19q-1.32-0.33-2.67-1.06c-0.9-0.49-1.81-1.13-2.78-1.86-1.19-0.93-3.41-2.68-5.43-4.27-2.09-1.48-3.97-2.81-4.34-3.07-2.25-1.69-4.43-3.24-6.33-4.98-0.97-0.85-1.84-1.79-2.73-2.63q-1.32-1.29-2.49-2.64c-3.07-3.7-5.58-7.37-7.25-11.39q-0.63-1.51-1.16-2.96-0.52-1.48-0.9-2.98-0.75-3.01-0.91-6.04c-0.2-4.05 0.4-8.05 1.96-11.76 1.68-4 4.59-6.63 8.04-7.86 3.43-1.2 7.43-1.09 10.79 0.71 1.95 0.99 3.51 2.15 4.71 3.39 0.6 0.61 1.09 1.27 1.49 1.95q0.6 1.01 0.96 2.03c0.95 2.71 0.62 5.37-0.58 7.43-1.77 3.02-4.37 4.42-7.01 4.79-2.62 0.32-5.42-0.19-7.6-1.32z"/>
		</g>
		<g id="&lt;Group&gt;">
			<path id="&lt;Path&gt;" class="s0" d="m402.44 250.07c-0.09-3.07-0.92-5.52-1.36-7.2-0.5-1.67-0.66-2.59 0.77-2.69 1.33 2.25 3.7 3.77 6.72 4.85 3.01 1.07 6.6 1.71 10.04 2.16 6.89 0.9 13.21 1.02 13.26 2.85q-0.01 0.11-0.05 0.21h-29.38q0-0.09 0-0.18z"/>
			<path id="&lt;Compound Path&gt;" fill-rule="evenodd" class="s0" d="m418.89 187.75c-3.14 1.14-6.55 0.09-8.27-2.32-4.1 5.94-3.59 13.05-2.79 18.21q0.48 1.69 0.98 3.44 0.25 0.88 0.51 1.76c0.17 0.59 0.28 1.19 0.42 1.79q0.42 1.81 0.83 3.61 0.21 0.9 0.42 1.79 0.23 0.89 0.38 1.78c0.42 2.37 0.83 4.68 1.21 6.82 0.33 2.15 0.54 4.16 0.78 5.91q0.18 1.41 0.52 2.63c0.2 0.82 0.41 1.59 0.69 2.3 0.54 1.43 1.26 2.66 2.11 3.74 0.84 1.07 1.85 1.98 2.83 2.77 1 0.8 2.07 1.46 3.15 2.04 4.36 2.3 9.04 3.08 10.48 4.45 0.42 0.42-5.4 0.36-11.39-2.07-1.49-0.6-3-1.35-4.42-2.25q-1.07-0.69-2.05-1.5-0.49-0.4-0.95-0.84-0.49-0.44-0.95-0.92c-1.23-1.26-2.28-2.72-3.07-4.43q-0.58-1.27-0.97-2.74-0.46-1.46-0.68-3.14-0.27-2.15-0.6-4.77-0.47-2.59-0.99-5.5-0.13-0.72-0.26-1.46-0.11-0.74-0.3-1.48-0.34-1.48-0.7-2.99c-0.47-2.01-0.87-4.07-1.49-6.04q-0.86-3-1.67-5.85-0.95-2.8-1.8-5.31c-0.52-1.68-1.16-3.19-1.69-4.54q-0.8-2.03-1.37-3.49c-0.35-0.97-0.91-2.11-1.5-3.43q-0.9-2-1.99-4.42c-0.78-1.57-1.67-3.24-2.55-5-0.46-0.87-0.87-1.79-1.39-2.66q-0.77-1.32-1.55-2.67c-1.03-1.79-2.03-3.64-3.19-5.35-1.14-1.73-2.19-3.48-3.3-5.1q-1.72-2.41-3.25-4.56-0.74-1.09-1.5-2.03-0.75-0.95-1.42-1.8c-2.72-3.6-3.9-7.08-3.96-10.62q-0.01-2.65 0.52-5.1c0.36-1.65 0.9-3.24 1.53-4.72 2.52-5.94 6.59-10.1 6.6-9.51-0.06 1.99-2.81 5.84-4.27 10.55q-0.55 1.76-0.79 3.66c-0.17 1.29-0.21 2.62-0.05 3.98 0.16 1.35 0.52 2.73 1.16 4.12q0.24 0.52 0.52 1.04 0.26 0.55 0.58 1.1 0.64 1.1 1.51 2.21c2.25 2.74 4.86 6.46 7.59 10.43 1.29 2.05 2.67 4.12 3.96 6.22 1.23 2.14 2.45 4.26 3.62 6.29 1.46 2.15 3.43 4.55 5.92 6.56 2.37 2.06 5.33 3.73 8.94 4.35-0.53-2.9 1.11-6.05 4.13-7.46 1.76-0.81 3.67-0.84 5.35-0.21q1.28 0.48 2.3 1.42 0.51 0.47 0.92 1.04 0.39 0.58 0.66 1.27c1.43 3.64-0.36 7.67-4 9zm-18.99-5.36c0.7 1.52 1.26 2.76 1.65 3.62 0.2 0.42 0.31 0.77 0.41 1q0.14 0.35 0.14 0.36c0 0 0.77 1.95 1.99 5.06 0.91-4.9 5.82-8.3 5.82-8.3 0 0-1.46 0.27-3.41 0.16-1.99-0.08-4.51-0.5-6.6-1.9z"/>
			<path id="&lt;Path&gt;" class="s0" d="m468.33 234.04c-7.42 0.56-13.23 2.36-17.56 4.19-4.28 1.84-7.24 3.75-8.71 4.83 0.28 1.21 0.52 2.47 0.69 3.68 1.76-1.22 4.75-3.17 8.47-4.95 1.86-0.88 3.91-1.72 6.05-2.38 2.14-0.65 4.4-1.13 6.74-1.26q4.6-0.24 7.93 0.57c2.21 0.53 3.98 1.39 5.38 2.51 2.81 2.23 4.1 5.48 4.18 9.02h-7.91c-0.07-3.43-2.78-6.26-9.15-6.06-5.92 0.18-10.88 1.78-14.36 3.23-3.48 1.47-5.47 2.83-5.47 2.83h-9c-0.09-3.28-0.67-6.72-1.51-9.48-0.98-2.75-2.18-4.82-3.33-5.47l7.27 0.07c1.02 0.02 2.19 2 3.19 4.7 2.94-2.6 8.92-6.53 17.44-8.96-1.12-0.4-2.26-1.12-3.37-2.09-1.15-0.97-2.26-2.18-3.27-3.58-1-1.4-1.89-2.99-2.59-4.71-0.33-0.87-0.68-1.76-0.98-2.67q-0.44-1.38-0.71-2.85-0.32-1.86-0.31-3.56c0.01-1.13 0.14-2.22 0.28-3.23 0.33-2.04 1.05-3.88 2.05-5.48 2.01-3.19 5.16-5.46 8.65-6.36 2.63-0.68 4.92-0.2 6.72 1.17 1.79 1.36 3.09 3.6 3.71 6.34q0.15 0.64 0.17 1.31 0 0.67-0.12 1.33c-0.16 0.88-0.48 1.75-0.94 2.52-0.93 1.55-2.45 2.73-4.51 3.1-2.94 0.5-5.78-1.78-6.42-5.09-0.75-3.28 0.99-6.51 3.88-7.21q0.19-0.05 0.38-0.07c0.29-1.09-0.94-2.07-2.47-1.69-1.78 0.44-4.48 1.95-6.47 4.52-2.01 2.58-3.18 6.14-2.38 11.03 1.18 6.01 4.24 9.92 7.84 12.39 3.6 2.46 7.4 3.45 9.5 3.25 7.11-0.69 12.83 1.36 16.9 5.26q1.52 1.47 2.72 3.23 1.13 1.76 1.91 3.75c1.03 2.65 1.6 5.56 1.66 8.53h-5.05c-0.08-4.01-1.4-8.36-4.16-11.53-2.86-3.17-7.16-5.12-12.96-4.68z"/>
			<path id="&lt;Path&gt;" class="s0" d="m414.68 135.37c-1.15-1.61-2.04-3.34-2.71-5.09-0.68-1.74-1.22-3.46-1.49-5.16-0.29-1.69-0.37-3.33-0.25-4.82q0.1-1.12 0.34-2.11 0.23-0.98 0.61-1.79c-7.75 4.31-14.78 5.77-18.7 6.01 1.2 2.61 1.78 4.83 1.08 5.57l-5.09 5.19c0.35-1.28-0.27-3.58-1.53-6.21-1.32-2.58-3.37-5.39-5.62-7.78l6.36-6.36c0 0 2.38-0.45 5.87-1.88 3.49-1.43 8.13-3.8 12.45-7.87 4.64-4.35 4.56-8.27 2.18-10.75l5.59-5.59c2.45 2.56 3.85 5.78 3.44 9.34-0.37 3.54-2.68 7.52-7.26 11.6-1.74 1.56-3.68 2.83-5.66 3.87q-1.48 0.78-2.97 1.42-1.51 0.64-2.97 1.16c-3.89 1.37-7.39 2.11-9.49 2.49 0.73 0.98 1.45 2.03 2.12 3.08 0.9-0.13 2.2-0.38 3.83-0.83 1.61-0.41 3.54-1.01 5.72-1.89 4.36-1.77 9.76-4.61 15.4-9.45 4.41-3.79 6.06-8.19 5.85-12.47-0.27-4.21-2.44-8.21-5.22-11.11l3.57-3.57c4.11 4.3 6.71 9.77 6.53 15.43-0.11 5.62-2.7 11.12-8.21 15.65-1.62 1.34-3.69 4.78-4.46 9.03-0.38 2.13-0.44 4.45 0.05 6.84 0.46 2.42 1.4 4.96 3.18 7.45 1.48 2 2.96 3.47 4.58 4.44 1.61 0.97 3.29 1.48 4.91 1.68 3.25 0.39 6.19-0.43 7.76-1.38 0.68-0.41 1.07-1 1.17-1.58 0.1-0.56-0.11-1.09-0.6-1.37q-0.15 0.12-0.32 0.22c-2.54 1.55-6.08 0.51-7.9-2.32q-0.68-1.08-0.93-2.24-0.28-1.15-0.16-2.26c0.16-1.46 0.86-2.8 2.08-3.66 3.4-2.4 7.77-0.95 9.62 2.04 1.52 2.36 2.2 4.85 1.91 7.07-0.34 2.26-1.66 4.24-4 5.62-1.55 0.91-3.27 1.52-5.06 1.79q-1.34 0.2-2.7 0.14c-0.92-0.04-1.86-0.14-2.79-0.35-1.85-0.41-3.67-1.19-5.36-2.39q-1.27-0.89-2.44-2.12c-0.79-0.8-1.59-1.7-2.31-2.73z"/>
			<path id="&lt;Path&gt;" class="s0" d="m357.87 142.63l20.77-20.77c0.79 1.55-3.6 6.12-7.72 11.56-2.06 2.71-4.07 5.64-5.37 8.47-0.65 1.41-1.13 2.8-1.35 4.13-0.2 1.32-0.24 2.65 0.11 3.87-1.06 0.93-1.62 0.2-2.42-1.31-0.86-1.46-1.98-3.74-4.02-5.95z"/>
			<path id="&lt;Path&gt;" class="s0" d="m390.02 152.66c-0.26-0.37-1.59-2.25-3.07-4.34-1.59-2.02-3.34-4.24-4.27-5.43-0.73-0.97-1.37-1.88-1.86-2.78q-0.73-1.35-1.06-2.67c-0.47-1.76-0.45-3.48-0.19-5.07 0.49-3.16 2.12-5.95 3.46-7.88 0.47-0.22 1.45 1.75 1.45 1.75 0 0-1.4 1.46-2.01 3.74-0.65 2.31-0.63 5.45 2.31 8.82 1.48 1.82 3.21 4.07 5.03 6.37 1.74 1.72 3.37 3.02 5.02 3.91 1.63 0.9 3.27 1.39 4.72 1.65 2.96 0.49 5.66-0.25 7.74-1.59 2.46-1.58 3.49-4.17 3.64-6.78 0.1-2.57-0.74-5.09-1.73-6.5-1.97-2.86-4.27-4.48-5.03-4-0.77 0.49 0.2 1.57 0.2 1.57 0.98 1.2 1.27 2.74 1.07 4.12-0.2 1.4-0.95 2.69-2.16 3.55-1.21 0.87-2.66 1.16-4.01 0.94-1.36-0.2-2.57-0.95-3.5-2.08-2.49-3.16-1.61-6.58 1.38-9.03 1.63-1.33 3.91-1.86 6.37-1.31 2.45 0.56 5.16 2.13 7.21 5.13q1.22 1.71 2.05 3.32c0.56 1.07 1.01 2.09 1.28 3.12 0.57 2.03 0.71 3.88 0.5 5.51-0.43 3.27-2.25 5.68-4.73 7.18-2.61 1.57-5.27 2.01-7.76 1.68-2.5-0.33-4.84-1.44-6.87-3.04q1.83 2.51 3.96 4.72c0.7 0.75 1.47 1.44 2.17 2.16q1.07 1.07 2.2 2.06c1.5 1.32 3.12 2.51 4.74 3.6q2.37 1.69 4.92 2.96c1.69 0.86 3.49 1.54 5.21 2.1q2.6 0.85 5.29 1.14c3.57 0.37 7.23-0.06 10.76-1.61 2.87-1.25 5.21-3.45 6.43-6.26 0.61-1.39 0.94-2.94 0.92-4.57-0.03-1.62-0.51-3.28-1.36-4.97-0.77-1.51-1.69-2.67-2.68-3.53q-0.74-0.64-1.53-1.06-0.81-0.41-1.62-0.63c-2.16-0.58-4.26-0.19-5.76 0.67-1.76 1-2.37 3.52-1.47 4.35 2.45-0.75 5.18 0.53 6.52 3.12 0.75 1.47 0.89 3.07 0.5 4.45-0.4 1.39-1.38 2.57-2.72 3.21-1.35 0.64-2.81 0.61-4.15 0.12-1.35-0.5-2.54-1.49-3.25-2.88-1.13-2.18-1.64-4.98-1.32-7.6 0.37-2.64 1.77-5.24 4.79-7.01 2.06-1.2 4.72-1.53 7.43-0.58q1.02 0.36 2.03 0.96c0.68 0.4 1.34 0.89 1.95 1.49 1.24 1.2 2.39 2.76 3.39 4.71 1.8 3.36 1.91 7.36 0.71 10.79-1.23 3.45-3.86 6.36-7.86 8.04-3.71 1.56-7.71 2.16-11.76 1.96q-3.03-0.16-6.04-0.91-1.5-0.38-2.98-0.9-1.45-0.53-2.96-1.16c-4.02-1.67-7.69-4.18-11.39-7.25q-1.35-1.17-2.64-2.49c-0.84-0.89-1.78-1.76-2.63-2.73-1.74-1.9-3.29-4.08-4.98-6.33z"/>
			<path id="&lt;Path&gt;" class="s0" d="m435.97 189.82c-1-2.94 0.46-6.16 3.26-7.18 2.8-1.02 5.94 0.7 7 3.84 0.98 2.75-0.23 5.65-2.45 6.84-0.03 1.21 2.2 2.56 4.15 2.02 1.67-0.46 3.42-1.67 4.52-3.6 1.08-1.92 1.6-4.62 0.47-7.83-0.61-1.78-1.51-3.28-2.6-4.46q-0.82-0.89-1.77-1.54c-0.64-0.44-1.35-0.78-2.06-1.06-2.87-1.11-6.1-1-9.01 0.15-3.59 1.4-6.46 3.68-8.7 6.46q-0.83 1.05-1.57 2.18-0.76 1.15-1.41 2.38-1.3 2.46-2.17 5.16c-1.09 3.57-1.98 7.5-2.17 11.47q-0.03 0.74-0.06 1.5-0.05 0.76-0.08 1.52-0.06 1.52-0.01 3.05c0.05 2.05 0.33 4.08 0.52 6.15q0.15-0.98 0.41-1.92 0.22-0.93 0.54-1.81 0.65-1.78 1.78-3.28c1.51-2 3.69-3.56 6.66-4.3 2.8-0.69 5.81-0.28 8.44 1.73q1 0.75 1.9 1.8c0.6 0.71 1.2 1.51 1.66 2.44 0.95 1.86 1.72 4.15 2.21 6.91 0.36 1.78 0.24 3.45-0.03 4.91-0.28 1.47-0.79 2.75-1.46 3.82-1.34 2.12-3.32 3.36-5.41 3.57-3.85 0.38-6.9-1.42-7.41-5.41-0.31-2.89 1.6-5.61 4.54-6.11 2.93-0.51 5.82 1.56 6.16 4.65 0 0 0.09 1.46 0.98 1.26 0.44-0.1 0.76-0.84 0.92-1.98 0.15-1.15 0.18-2.71-0.16-4.41-0.3-1.7-1.54-4.07-3.41-5.82-1.83-1.76-4.49-2.84-7.33-2.23-1.21 0.27-2.42 0.74-3.54 1.46q-1.68 1.06-3.07 2.89c-0.91 1.23-1.67 2.72-2.18 4.51-0.52 1.78-0.7 3.85-0.81 6.31q0.28 2.19 0.54 4.24 0.13 1.02 0.26 1.98c0.07 0.64 0.1 1.26 0.15 1.84 0.16 2.24 0.8 3.9 1.65 5.17 0.86 1.26 1.95 2.12 2.96 2.7 2.04 1.18 4.06 1.23 4.06 1.23 0 0 0.71 2.09 0.22 2.26-2.32-0.42-5.45-1.24-8.02-3.13-1.26-0.95-2.53-2.15-3.44-3.72-0.94-1.57-1.55-3.5-1.76-5.93-0.19-1.49-0.55-4.3-0.87-6.84-0.13-1.28-0.37-2.47-0.54-3.41-0.17-0.93-0.29-1.61-0.33-1.83q-0.37-2.08-0.56-4.09c-0.14-1.33-0.32-2.62-0.39-3.91-0.19-2.55-0.03-5.06 0.05-7.41q0.22-3.56 1.03-6.88 0.66-3.28 1.85-6.28 0.59-1.51 1.3-2.93 0.73-1.43 1.5-2.75 1.57-2.65 3.59-4.9c2.68-2.99 5.93-5.4 9.67-6.93 3.98-1.64 7.94-1.46 11.27 0.1q1.25 0.59 2.37 1.41 0.56 0.41 1.08 0.88 0.5 0.47 0.94 1c1.2 1.39 2.14 3.04 2.75 4.85 1.47 4.13 1.03 7.71-0.16 10.27-1.21 2.59-3.31 4.23-5.62 4.84-3.39 0.89-6.23 0.05-8.39-1.55-2.17-1.6-3.57-4-4.41-6.32z"/>
		</g>
		<g id="&lt;Group&gt;">
			<path id="&lt;Path&gt;" class="s0" d="m357.99 357.74c2.1-2.23 3.26-4.53 4.12-6.03 0.8-1.57 1.36-2.31 2.44-1.37-0.36 1.24-0.33 2.59-0.08 3.96 0.23 1.36 0.74 2.78 1.42 4.22 1.37 2.89 3.46 5.87 5.58 8.62 4.23 5.51 8.61 10.06 7.35 11.38q-0.08 0.08-0.18 0.12l-20.77-20.77z"/>
			<path id="&lt;Compound Path&gt;" fill-rule="evenodd" class="s0" d="m413.66 325.27c-3.02-1.41-4.66-4.56-4.13-7.46-3.61 0.62-6.57 2.29-8.94 4.35-2.49 2.01-4.46 4.41-5.92 6.56-1.17 2.03-2.39 4.15-3.62 6.29-1.29 2.1-2.67 4.17-3.96 6.22-2.73 3.97-5.34 7.69-7.59 10.43q-0.87 1.11-1.51 2.21-0.32 0.55-0.58 1.1-0.28 0.52-0.52 1.04c-0.64 1.39-1 2.77-1.16 4.12-0.16 1.36-0.12 2.69 0.05 3.98q0.24 1.9 0.79 3.66c1.46 4.71 4.21 8.56 4.27 10.55-0.01 0.59-4.08-3.57-6.6-9.51-0.63-1.48-1.17-3.07-1.53-4.72q-0.53-2.45-0.52-5.1c0.06-3.54 1.24-7.02 3.96-10.62q0.67-0.85 1.42-1.8 0.76-0.94 1.5-2.03 1.53-2.15 3.25-4.56c1.11-1.62 2.16-3.37 3.3-5.1 1.16-1.71 2.16-3.56 3.19-5.35q0.78-1.35 1.55-2.67c0.52-0.87 0.93-1.79 1.39-2.66 0.88-1.76 1.77-3.43 2.55-5q1.09-2.42 1.99-4.42c0.59-1.32 1.15-2.46 1.5-3.43q0.57-1.46 1.37-3.5c0.53-1.34 1.17-2.85 1.69-4.53q0.85-2.51 1.8-5.31 0.81-2.85 1.67-5.85c0.62-1.97 1.02-4.03 1.5-6.04q0.35-1.51 0.69-2.99 0.19-0.74 0.3-1.48 0.13-0.74 0.26-1.46 0.52-2.91 0.99-5.5 0.33-2.62 0.6-4.77 0.22-1.68 0.68-3.14 0.39-1.47 0.97-2.74c0.79-1.71 1.84-3.17 3.07-4.43q0.46-0.48 0.95-0.92 0.46-0.44 0.95-0.84 0.98-0.81 2.05-1.5c1.42-0.91 2.93-1.65 4.42-2.25 5.99-2.43 11.81-2.49 11.39-2.07-1.44 1.37-6.12 2.15-10.48 4.45-1.08 0.58-2.15 1.24-3.15 2.04-0.98 0.79-1.99 1.7-2.83 2.77-0.85 1.08-1.57 2.31-2.11 3.74-0.28 0.71-0.49 1.48-0.69 2.3q-0.34 1.22-0.52 2.63c-0.24 1.75-0.45 3.76-0.78 5.91-0.38 2.14-0.79 4.45-1.21 6.82q-0.15 0.89-0.38 1.78-0.21 0.89-0.42 1.79-0.41 1.8-0.83 3.61c-0.14 0.6-0.25 1.2-0.42 1.79q-0.26 0.88-0.51 1.76-0.5 1.75-0.98 3.44c-0.8 5.16-1.31 12.27 2.79 18.21 1.72-2.41 5.14-3.46 8.27-2.32 3.64 1.33 5.43 5.36 4 9q-0.27 0.69-0.66 1.27-0.41 0.57-0.92 1.04-1.02 0.94-2.3 1.42c-1.68 0.63-3.59 0.6-5.35-0.21zm-9.57-17.2c-1.22 3.11-1.99 5.06-1.99 5.06q0 0.01-0.14 0.36c-0.1 0.22-0.21 0.58-0.41 1-0.39 0.86-0.95 2.1-1.65 3.62 2.09-1.4 4.61-1.82 6.6-1.9 1.95-0.11 3.41 0.16 3.41 0.16 0 0-4.91-3.4-5.82-8.3z"/>
			<path id="&lt;Path&gt;" class="s0" d="m415.93 392.98c-5.64-4.84-11.04-7.68-15.4-9.45-2.18-0.88-4.11-1.48-5.72-1.9-1.63-0.44-2.93-0.69-3.83-0.82-0.67 1.05-1.39 2.1-2.12 3.08 2.1 0.38 5.6 1.12 9.49 2.49q1.46 0.52 2.97 1.16 1.49 0.64 2.97 1.42c1.98 1.04 3.92 2.31 5.66 3.87 4.58 4.08 6.89 8.06 7.26 11.6 0.41 3.56-0.99 6.78-3.44 9.34l-5.59-5.59c2.38-2.48 2.46-6.4-2.18-10.75-4.32-4.07-8.96-6.44-12.44-7.87-3.5-1.43-5.88-1.88-5.88-1.88l-6.36-6.36c2.25-2.39 4.3-5.2 5.62-7.78 1.26-2.63 1.88-4.93 1.53-6.21l5.09 5.19c0.7 0.74 0.12 2.96-1.08 5.57 3.92 0.24 10.95 1.7 18.7 6.01q-0.38-0.81-0.61-1.79-0.24-0.99-0.34-2.11c-0.12-1.49-0.04-3.13 0.25-4.82 0.27-1.7 0.81-3.42 1.49-5.16 0.67-1.76 1.56-3.48 2.71-5.09 0.72-1.03 1.52-1.93 2.31-2.73q1.17-1.23 2.44-2.12c1.69-1.2 3.51-1.98 5.36-2.39 0.93-0.21 1.87-0.32 2.79-0.35q1.36-0.06 2.7 0.14c1.79 0.27 3.51 0.87 5.07 1.79 2.34 1.38 3.65 3.36 3.99 5.62 0.29 2.22-0.39 4.71-1.91 7.07-1.85 2.99-6.22 4.44-9.62 2.04-1.22-0.86-1.92-2.2-2.08-3.66q-0.12-1.11 0.16-2.26 0.25-1.16 0.93-2.24c1.82-2.83 5.36-3.87 7.9-2.32q0.17 0.1 0.32 0.22c0.49-0.28 0.7-0.81 0.6-1.37-0.1-0.58-0.49-1.17-1.17-1.58-1.57-0.95-4.51-1.77-7.76-1.38-1.62 0.2-3.3 0.71-4.91 1.68-1.62 0.97-3.1 2.44-4.58 4.44-1.78 2.49-2.72 5.03-3.17 7.45-0.5 2.39-0.44 4.71-0.06 6.84 0.77 4.25 2.84 7.69 4.46 9.03 5.51 4.53 8.1 10.03 8.21 15.65 0.18 5.66-2.42 11.13-6.53 15.43l-3.57-3.57c2.78-2.9 4.95-6.9 5.22-11.11 0.21-4.28-1.44-8.68-5.85-12.47z"/>
			<path id="&lt;Path&gt;" class="s0" d="m447.75 285.29q0.27-1.47 0.71-2.85c0.3-0.92 0.65-1.8 0.98-2.67 0.7-1.72 1.59-3.31 2.59-4.71 1.01-1.4 2.12-2.61 3.27-3.58 1.11-0.97 2.25-1.69 3.37-2.09-8.52-2.43-14.5-6.36-17.44-8.96-1 2.7-2.17 4.68-3.19 4.7l-7.27 0.07c1.15-0.65 2.35-2.72 3.33-5.47 0.84-2.76 1.42-6.2 1.51-9.48h9c0 0 1.99 1.36 5.47 2.83 3.48 1.45 8.44 3.05 14.36 3.23 6.37 0.2 9.08-2.63 9.15-6.06h7.91c-0.08 3.54-1.37 6.79-4.18 9.02-1.4 1.12-3.17 1.98-5.38 2.51q-3.33 0.81-7.93 0.57c-2.34-0.13-4.6-0.61-6.74-1.26-2.14-0.66-4.19-1.5-6.05-2.38-3.72-1.78-6.71-3.73-8.47-4.95-0.17 1.21-0.41 2.47-0.69 3.68 1.47 1.08 4.43 2.99 8.71 4.83 4.33 1.83 10.14 3.63 17.56 4.19 5.8 0.44 10.1-1.51 12.96-4.68 2.76-3.17 4.08-7.52 4.16-11.53h5.05c-0.06 2.96-0.63 5.88-1.66 8.53q-0.78 1.99-1.91 3.75-1.2 1.76-2.72 3.23c-4.07 3.9-9.79 5.95-16.9 5.26-2.1-0.2-5.9 0.79-9.5 3.25-3.6 2.47-6.66 6.38-7.84 12.39-0.8 4.89 0.37 8.45 2.38 11.03 1.99 2.57 4.69 4.08 6.47 4.52 1.53 0.38 2.76-0.6 2.47-1.69q-0.19-0.02-0.38-0.07c-2.89-0.7-4.63-3.93-3.88-7.21 0.64-3.31 3.48-5.59 6.42-5.09 2.06 0.37 3.58 1.55 4.51 3.1 0.46 0.77 0.78 1.64 0.94 2.52q0.12 0.66 0.12 1.33-0.02 0.67-0.17 1.31c-0.62 2.74-1.92 4.98-3.71 6.34-1.8 1.37-4.09 1.85-6.72 1.17-3.49-0.9-6.64-3.17-8.65-6.37-1-1.59-1.72-3.43-2.05-5.47-0.14-1.01-0.27-2.1-0.28-3.23q-0.01-1.7 0.31-3.56z"/>
			<path id="&lt;Path&gt;" class="s0" d="m402.44 250.25h29.38c-0.54 1.65-6.87 1.78-13.63 2.72-3.39 0.46-6.87 1.12-9.8 2.2-1.46 0.54-2.78 1.18-3.88 1.97-0.55 0.4-1.02 0.83-1.47 1.29q-0.69 0.7-1.16 1.53c-0.71-0.04-1.03-0.3-1.11-0.74-0.09-0.44 0.11-1.07 0.3-1.9 0.43-1.65 1.25-4.06 1.37-7.07z"/>
			<path id="&lt;Path&gt;" class="s0" d="m418.1 280.08c0.04-0.22 0.16-0.9 0.33-1.83 0.17-0.94 0.41-2.13 0.54-3.41 0.32-2.54 0.68-5.35 0.87-6.84 0.21-2.43 0.82-4.36 1.76-5.93 0.91-1.57 2.18-2.78 3.44-3.72 2.57-1.89 5.7-2.71 8.02-3.13 0.49 0.17-0.22 2.26-0.22 2.26 0 0-2.02 0.05-4.06 1.22-1.01 0.59-2.1 1.45-2.96 2.71-0.85 1.27-1.49 2.93-1.65 5.17-0.05 0.58-0.08 1.2-0.15 1.84q-0.13 0.96-0.26 1.98-0.26 2.05-0.54 4.24c0.11 2.46 0.29 4.53 0.81 6.31 0.51 1.79 1.27 3.28 2.18 4.51q1.39 1.83 3.07 2.89c1.12 0.72 2.33 1.19 3.54 1.46 2.84 0.61 5.5-0.47 7.33-2.23 1.87-1.75 3.11-4.12 3.41-5.82 0.34-1.7 0.31-3.26 0.16-4.41-0.16-1.14-0.48-1.88-0.92-1.98-0.89-0.2-0.98 1.26-0.98 1.26-0.34 3.09-3.23 5.16-6.16 4.65-2.94-0.5-4.85-3.22-4.54-6.11 0.51-3.99 3.56-5.79 7.41-5.41 2.09 0.21 4.07 1.45 5.41 3.57 0.67 1.07 1.18 2.35 1.46 3.82 0.27 1.46 0.39 3.13 0.03 4.91-0.49 2.76-1.26 5.05-2.21 6.91-0.46 0.93-1.06 1.73-1.66 2.44q-0.9 1.05-1.9 1.8c-2.63 2.01-5.64 2.42-8.44 1.73-2.97-0.74-5.15-2.3-6.66-4.3q-1.13-1.5-1.78-3.28-0.32-0.88-0.54-1.81-0.26-0.94-0.41-1.92c-0.19 2.07-0.47 4.1-0.52 6.15q-0.05 1.53 0.01 3.05 0.03 0.76 0.08 1.52 0.03 0.76 0.06 1.5c0.19 3.97 1.08 7.9 2.17 11.47q0.87 2.7 2.17 5.16 0.65 1.23 1.41 2.37 0.74 1.14 1.57 2.19c2.24 2.78 5.11 5.06 8.7 6.46 2.91 1.15 6.14 1.26 9.01 0.15 0.71-0.28 1.42-0.62 2.06-1.06q0.95-0.65 1.77-1.54c1.1-1.18 1.99-2.68 2.6-4.46 1.13-3.21 0.61-5.91-0.47-7.83-1.1-1.93-2.85-3.14-4.52-3.6-1.95-0.54-4.18 0.81-4.15 2.02 2.22 1.19 3.43 4.09 2.45 6.84-1.06 3.14-4.2 4.86-7 3.84-2.8-1.02-4.26-4.24-3.26-7.18 0.84-2.32 2.24-4.72 4.41-6.32 2.16-1.6 5-2.44 8.39-1.55 2.31 0.61 4.41 2.25 5.62 4.83 1.19 2.57 1.63 6.15 0.16 10.28-0.61 1.81-1.55 3.46-2.75 4.85q-0.44 0.53-0.94 1-0.52 0.46-1.08 0.88-1.12 0.82-2.37 1.41c-3.33 1.56-7.29 1.74-11.27 0.1-3.74-1.53-6.99-3.94-9.67-6.93q-2.02-2.25-3.59-4.9-0.77-1.32-1.5-2.75-0.71-1.42-1.3-2.93-1.19-3-1.85-6.28-0.81-3.32-1.03-6.88c-0.08-2.35-0.24-4.86-0.05-7.41 0.07-1.29 0.25-2.58 0.39-3.91q0.19-2.01 0.56-4.09z"/>
			<path id="&lt;Path&gt;" class="s0" d="m424.28 338.83c0.71-1.39 1.9-2.38 3.25-2.88 1.34-0.49 2.8-0.52 4.15 0.12 1.34 0.64 2.32 1.82 2.72 3.21 0.39 1.38 0.25 2.98-0.5 4.45-1.34 2.59-4.07 3.87-6.52 3.12-0.9 0.83-0.29 3.35 1.47 4.35 1.5 0.86 3.6 1.25 5.76 0.67q0.81-0.22 1.62-0.63 0.79-0.42 1.53-1.06c0.99-0.86 1.91-2.02 2.68-3.53 0.85-1.69 1.33-3.35 1.36-4.97 0.02-1.63-0.31-3.18-0.92-4.57-1.22-2.81-3.56-5.01-6.43-6.26-3.53-1.55-7.19-1.98-10.76-1.61q-2.69 0.29-5.29 1.14c-1.72 0.56-3.52 1.24-5.21 2.1q-2.55 1.27-4.92 2.96c-1.62 1.09-3.24 2.28-4.74 3.6q-1.13 0.99-2.2 2.06c-0.7 0.72-1.47 1.41-2.17 2.16q-2.13 2.21-3.96 4.72c2.03-1.6 4.37-2.71 6.87-3.04 2.49-0.33 5.15 0.11 7.76 1.68 2.48 1.5 4.3 3.91 4.73 7.18 0.21 1.63 0.07 3.48-0.5 5.51-0.27 1.02-0.72 2.05-1.28 3.12q-0.83 1.61-2.05 3.32c-2.05 3-4.76 4.57-7.21 5.13-2.46 0.55-4.74 0.02-6.37-1.31-2.99-2.45-3.87-5.87-1.38-9.03 0.93-1.13 2.14-1.88 3.5-2.09 1.35-0.21 2.8 0.08 4.01 0.95 1.21 0.86 1.96 2.15 2.16 3.55 0.2 1.38-0.09 2.92-1.07 4.12 0 0-0.97 1.08-0.2 1.57 0.76 0.48 3.06-1.14 5.03-4 0.99-1.41 1.83-3.93 1.73-6.5-0.15-2.61-1.18-5.2-3.64-6.78-2.08-1.34-4.78-2.08-7.74-1.59-1.45 0.26-3.09 0.75-4.72 1.65-1.65 0.89-3.27 2.19-5.01 3.91-1.83 2.3-3.56 4.55-5.04 6.37-2.94 3.37-2.96 6.51-2.31 8.82 0.61 2.28 2.01 3.74 2.01 3.74 0 0-0.98 1.97-1.45 1.75-1.34-1.93-2.97-4.72-3.46-7.88-0.26-1.59-0.28-3.32 0.19-5.07q0.33-1.32 1.06-2.68c0.49-0.89 1.13-1.8 1.86-2.77 0.93-1.19 2.68-3.41 4.27-5.43 1.48-2.09 2.81-3.97 3.07-4.34 1.69-2.25 3.24-4.43 4.98-6.33 0.85-0.97 1.79-1.84 2.63-2.73q1.29-1.32 2.64-2.49c3.7-3.07 7.37-5.58 11.39-7.26q1.51-0.62 2.96-1.15 1.48-0.52 2.98-0.9 3.01-0.75 6.04-0.91c4.05-0.2 8.05 0.4 11.76 1.96 4 1.68 6.63 4.59 7.86 8.04 1.2 3.43 1.09 7.43-0.71 10.79-0.99 1.95-2.15 3.51-3.39 4.71-0.61 0.6-1.27 1.09-1.95 1.49q-1.01 0.6-2.03 0.96c-2.71 0.95-5.37 0.62-7.43-0.58-3.02-1.77-4.42-4.37-4.79-7.01-0.32-2.62 0.19-5.42 1.32-7.6z"/>
		</g>
		<g id="&lt;Group&gt;">
			<path id="&lt;Path&gt;" class="s0" d="m250.43 402.44c3.07-0.09 5.52-0.92 7.2-1.36 1.67-0.5 2.59-0.66 2.69 0.77-2.25 1.33-3.77 3.7-4.85 6.72-1.07 3.01-1.71 6.6-2.16 10.04-0.9 6.89-1.02 13.21-2.85 13.26q-0.11-0.01-0.21-0.05v-29.38q0.09 0 0.18 0z"/>
			<path id="&lt;Compound Path&gt;" fill-rule="evenodd" class="s0" d="m312.75 418.89c-1.14-3.14-0.09-6.55 2.32-8.27-5.94-4.1-13.05-3.59-18.21-2.79q-1.69 0.48-3.44 0.98-0.88 0.25-1.76 0.51c-0.59 0.17-1.19 0.28-1.79 0.42q-1.81 0.42-3.61 0.83-0.9 0.21-1.79 0.42-0.89 0.23-1.78 0.38c-2.37 0.42-4.68 0.83-6.82 1.21-2.15 0.33-4.16 0.54-5.91 0.78q-1.41 0.18-2.63 0.52c-0.82 0.2-1.59 0.41-2.3 0.69-1.43 0.54-2.66 1.26-3.74 2.11-1.07 0.84-1.98 1.85-2.77 2.83-0.8 1-1.46 2.07-2.04 3.15-2.3 4.36-3.08 9.04-4.45 10.48-0.42 0.42-0.36-5.4 2.07-11.39 0.6-1.49 1.35-3 2.25-4.42q0.69-1.07 1.5-2.05 0.4-0.49 0.84-0.95 0.44-0.49 0.92-0.95c1.26-1.23 2.72-2.28 4.43-3.07q1.27-0.58 2.74-0.97 1.46-0.46 3.14-0.68 2.15-0.27 4.77-0.6 2.59-0.47 5.5-0.99 0.72-0.13 1.46-0.26 0.74-0.11 1.48-0.3 1.48-0.34 2.99-0.7c2.01-0.47 4.07-0.87 6.04-1.49q3-0.86 5.85-1.67 2.8-0.95 5.31-1.8c1.68-0.52 3.19-1.16 4.54-1.69q2.03-0.8 3.49-1.37c0.97-0.35 2.11-0.91 3.43-1.5q2-0.9 4.42-1.99c1.57-0.78 3.24-1.67 5-2.55 0.87-0.46 1.79-0.87 2.66-1.39q1.32-0.77 2.67-1.55c1.79-1.03 3.64-2.03 5.35-3.19 1.73-1.14 3.48-2.19 5.1-3.3q2.41-1.72 4.56-3.25 1.09-0.74 2.03-1.5 0.95-0.75 1.8-1.42c3.6-2.72 7.08-3.9 10.62-3.96q2.65-0.01 5.1 0.52c1.65 0.36 3.24 0.9 4.72 1.53 5.94 2.52 10.1 6.59 9.51 6.6-1.99-0.06-5.84-2.81-10.55-4.27q-1.76-0.55-3.66-0.79c-1.29-0.17-2.62-0.21-3.98-0.05-1.35 0.16-2.73 0.52-4.12 1.16q-0.52 0.24-1.04 0.52-0.55 0.26-1.1 0.58-1.1 0.64-2.21 1.51c-2.74 2.25-6.46 4.86-10.43 7.59-2.05 1.29-4.12 2.67-6.22 3.96-2.14 1.23-4.26 2.45-6.29 3.62-2.15 1.46-4.55 3.43-6.56 5.92-2.06 2.37-3.73 5.33-4.35 8.94 2.9-0.53 6.05 1.11 7.46 4.13 0.81 1.76 0.84 3.67 0.21 5.35q-0.48 1.28-1.42 2.3-0.47 0.51-1.04 0.92-0.58 0.39-1.27 0.66c-3.64 1.43-7.67-0.36-9-4zm5.36-18.99c-1.52 0.7-2.76 1.26-3.62 1.65-0.42 0.2-0.77 0.31-1 0.41q-0.35 0.14-0.36 0.14c0 0-1.95 0.77-5.06 1.99 4.9 0.91 8.3 5.82 8.3 5.82 0 0-0.27-1.46-0.16-3.41 0.08-1.99 0.5-4.51 1.9-6.6z"/>
			<path id="&lt;Path&gt;" class="s0" d="m266.46 468.33c-0.56-7.42-2.36-13.23-4.19-17.56-1.84-4.28-3.75-7.24-4.83-8.71-1.21 0.28-2.47 0.52-3.68 0.69 1.22 1.76 3.17 4.75 4.95 8.47 0.88 1.86 1.72 3.91 2.38 6.05 0.65 2.14 1.13 4.4 1.26 6.74q0.24 4.6-0.57 7.93c-0.53 2.21-1.39 3.98-2.51 5.38-2.23 2.81-5.48 4.1-9.02 4.18v-7.91c3.43-0.07 6.26-2.78 6.06-9.15-0.18-5.92-1.78-10.88-3.23-14.36-1.47-3.48-2.83-5.47-2.83-5.47v-9c3.28-0.09 6.72-0.67 9.48-1.51 2.75-0.98 4.82-2.18 5.47-3.33l-0.07 7.27c-0.02 1.02-2 2.19-4.7 3.19 2.6 2.94 6.53 8.92 8.96 17.44 0.4-1.12 1.12-2.26 2.09-3.37 0.97-1.15 2.18-2.26 3.58-3.27 1.4-1 2.99-1.89 4.71-2.59 0.87-0.33 1.76-0.68 2.67-0.98q1.38-0.44 2.85-0.71 1.86-0.32 3.56-0.31c1.13 0.01 2.22 0.14 3.23 0.28 2.04 0.33 3.88 1.05 5.48 2.05 3.19 2.01 5.46 5.16 6.36 8.65 0.68 2.63 0.2 4.92-1.17 6.72-1.36 1.79-3.6 3.09-6.34 3.71q-0.64 0.15-1.31 0.17-0.67 0-1.33-0.12c-0.88-0.16-1.75-0.48-2.52-0.94-1.55-0.93-2.73-2.45-3.1-4.51-0.5-2.94 1.78-5.78 5.09-6.42 3.28-0.75 6.51 0.99 7.21 3.88q0.05 0.19 0.07 0.38c1.09 0.29 2.07-0.94 1.69-2.47-0.44-1.78-1.95-4.48-4.52-6.47-2.58-2.01-6.14-3.18-11.03-2.38-6.01 1.18-9.92 4.24-12.39 7.84-2.46 3.6-3.45 7.4-3.25 9.5 0.69 7.11-1.36 12.83-5.26 16.9q-1.47 1.52-3.23 2.72-1.76 1.13-3.75 1.91c-2.65 1.03-5.56 1.6-8.53 1.66v-5.05c4.01-0.08 8.36-1.4 11.53-4.16 3.17-2.86 5.12-7.16 4.68-12.96z"/>
			<path id="&lt;Path&gt;" class="s0" d="m365.13 414.68c1.61-1.15 3.34-2.04 5.09-2.71 1.74-0.68 3.46-1.22 5.16-1.49 1.69-0.29 3.33-0.37 4.82-0.25q1.12 0.1 2.11 0.34 0.98 0.23 1.79 0.61c-4.31-7.75-5.77-14.78-6.01-18.7-2.61 1.2-4.83 1.78-5.57 1.08l-5.19-5.09c1.28 0.35 3.58-0.27 6.22-1.53 2.57-1.32 5.38-3.37 7.77-5.62l6.36 6.36c0 0 0.45 2.38 1.88 5.87 1.43 3.49 3.8 8.13 7.87 12.45 4.35 4.64 8.27 4.56 10.75 2.18l5.59 5.59c-2.56 2.45-5.78 3.85-9.34 3.44-3.54-0.37-7.52-2.68-11.6-7.26-1.56-1.74-2.83-3.68-3.87-5.66q-0.78-1.48-1.42-2.97-0.64-1.51-1.16-2.97c-1.37-3.89-2.11-7.39-2.49-9.49-0.98 0.73-2.03 1.45-3.08 2.12 0.13 0.9 0.38 2.2 0.83 3.83 0.41 1.61 1.01 3.54 1.89 5.72 1.77 4.36 4.61 9.76 9.45 15.4 3.79 4.41 8.19 6.06 12.47 5.85 4.21-0.27 8.21-2.44 11.11-5.22l3.57 3.57c-4.3 4.11-9.77 6.71-15.43 6.53-5.62-0.11-11.12-2.7-15.65-8.21-1.34-1.62-4.78-3.69-9.03-4.46-2.13-0.38-4.45-0.44-6.84 0.05-2.42 0.46-4.96 1.4-7.45 3.18-2 1.48-3.47 2.96-4.44 4.58-0.97 1.61-1.48 3.29-1.68 4.91-0.39 3.25 0.43 6.19 1.38 7.76 0.41 0.68 1 1.07 1.58 1.17 0.56 0.1 1.09-0.11 1.37-0.6q-0.12-0.15-0.22-0.32c-1.55-2.54-0.51-6.08 2.32-7.9q1.08-0.68 2.24-0.93 1.15-0.28 2.26-0.16c1.46 0.16 2.8 0.86 3.66 2.08 2.4 3.4 0.95 7.77-2.04 9.62-2.36 1.52-4.85 2.2-7.07 1.91-2.26-0.34-4.24-1.66-5.62-4-0.91-1.55-1.52-3.27-1.79-5.06q-0.2-1.34-0.14-2.7c0.04-0.92 0.14-1.86 0.35-2.79 0.41-1.85 1.19-3.67 2.39-5.36q0.89-1.27 2.12-2.44c0.8-0.79 1.7-1.59 2.73-2.31z"/>
			<path id="&lt;Path&gt;" class="s0" d="m357.87 357.87l20.77 20.77c-1.55 0.79-6.12-3.6-11.56-7.72-2.71-2.06-5.64-4.07-8.47-5.37-1.41-0.65-2.8-1.13-4.13-1.35-1.32-0.2-2.65-0.24-3.87 0.11-0.93-1.06-0.2-1.62 1.31-2.42 1.46-0.86 3.74-1.98 5.95-4.02z"/>
			<path id="&lt;Path&gt;" class="s0" d="m347.84 390.02c0.37-0.26 2.25-1.59 4.34-3.07 2.02-1.59 4.24-3.34 5.43-4.27 0.97-0.73 1.88-1.37 2.78-1.86q1.35-0.73 2.67-1.06c1.76-0.47 3.48-0.45 5.07-0.19 3.16 0.49 5.95 2.12 7.88 3.46 0.22 0.47-1.75 1.45-1.75 1.45 0 0-1.46-1.4-3.74-2.01-2.31-0.65-5.45-0.63-8.82 2.31-1.82 1.48-4.07 3.21-6.37 5.03-1.72 1.74-3.02 3.37-3.91 5.02-0.9 1.63-1.39 3.27-1.65 4.72-0.49 2.96 0.25 5.66 1.59 7.74 1.58 2.46 4.17 3.49 6.78 3.64 2.57 0.1 5.09-0.74 6.5-1.73 2.86-1.97 4.48-4.27 4-5.03-0.49-0.77-1.57 0.2-1.57 0.2-1.2 0.98-2.74 1.27-4.12 1.07-1.4-0.2-2.69-0.95-3.55-2.16-0.87-1.21-1.16-2.66-0.94-4.01 0.2-1.36 0.95-2.57 2.08-3.5 3.16-2.49 6.58-1.61 9.03 1.38 1.33 1.63 1.86 3.91 1.31 6.37-0.56 2.45-2.13 5.16-5.13 7.21q-1.71 1.22-3.32 2.05c-1.07 0.56-2.09 1.01-3.12 1.28-2.03 0.57-3.88 0.71-5.51 0.5-3.27-0.43-5.68-2.25-7.18-4.73-1.57-2.61-2.01-5.27-1.68-7.76 0.33-2.5 1.44-4.84 3.04-6.87q-2.51 1.83-4.72 3.96c-0.75 0.7-1.44 1.47-2.16 2.17q-1.07 1.07-2.06 2.2c-1.32 1.5-2.51 3.12-3.6 4.74q-1.69 2.37-2.96 4.92c-0.86 1.69-1.54 3.49-2.1 5.21q-0.85 2.6-1.14 5.29c-0.37 3.57 0.06 7.23 1.61 10.76 1.25 2.87 3.45 5.21 6.26 6.43 1.39 0.61 2.94 0.94 4.57 0.92 1.62-0.03 3.28-0.51 4.97-1.36 1.51-0.77 2.67-1.69 3.53-2.68q0.64-0.74 1.06-1.53 0.41-0.81 0.63-1.62c0.58-2.16 0.19-4.26-0.67-5.76-1-1.76-3.52-2.37-4.35-1.47 0.75 2.45-0.53 5.18-3.12 6.52-1.47 0.75-3.07 0.89-4.45 0.5-1.39-0.4-2.57-1.38-3.21-2.72-0.64-1.35-0.61-2.81-0.12-4.15 0.5-1.35 1.49-2.54 2.88-3.25 2.18-1.13 4.98-1.64 7.6-1.32 2.64 0.37 5.24 1.77 7.01 4.79 1.2 2.06 1.53 4.72 0.58 7.43q-0.36 1.02-0.96 2.03c-0.4 0.68-0.89 1.34-1.49 1.95-1.2 1.24-2.76 2.39-4.71 3.39-3.36 1.8-7.36 1.91-10.79 0.71-3.45-1.23-6.36-3.86-8.04-7.86-1.56-3.71-2.16-7.71-1.96-11.76q0.16-3.03 0.91-6.04 0.38-1.5 0.9-2.98 0.53-1.45 1.16-2.96c1.67-4.02 4.18-7.69 7.25-11.39q1.17-1.35 2.49-2.64c0.89-0.84 1.76-1.78 2.73-2.63 1.9-1.74 4.08-3.29 6.33-4.98z"/>
			<path id="&lt;Path&gt;" class="s0" d="m310.68 435.97c2.94-1 6.16 0.46 7.18 3.26 1.02 2.8-0.7 5.94-3.84 7-2.75 0.98-5.65-0.23-6.83-2.45-1.22-0.03-2.57 2.2-2.03 4.15 0.46 1.67 1.67 3.42 3.6 4.52 1.92 1.08 4.62 1.6 7.83 0.47 1.78-0.61 3.28-1.51 4.46-2.6q0.89-0.82 1.54-1.77c0.44-0.64 0.78-1.35 1.06-2.06 1.11-2.87 1-6.1-0.15-9.01-1.4-3.59-3.68-6.46-6.46-8.7q-1.05-0.83-2.18-1.57-1.15-0.76-2.38-1.41-2.46-1.3-5.16-2.17c-3.57-1.09-7.5-1.98-11.47-2.17q-0.74-0.03-1.5-0.06-0.76-0.05-1.52-0.08-1.52-0.06-3.05-0.01c-2.05 0.05-4.08 0.33-6.15 0.52q0.98 0.15 1.92 0.41 0.93 0.22 1.81 0.54 1.78 0.65 3.28 1.78c2 1.51 3.56 3.69 4.3 6.66 0.69 2.8 0.28 5.81-1.73 8.44q-0.75 1-1.8 1.9c-0.71 0.6-1.51 1.2-2.44 1.66-1.86 0.95-4.15 1.72-6.91 2.21-1.78 0.36-3.45 0.24-4.91-0.03-1.47-0.28-2.75-0.79-3.82-1.46-2.12-1.34-3.36-3.32-3.57-5.41-0.38-3.85 1.42-6.9 5.41-7.41 2.89-0.31 5.61 1.6 6.11 4.54 0.51 2.93-1.56 5.82-4.65 6.16 0 0-1.46 0.09-1.26 0.98 0.1 0.44 0.84 0.76 1.98 0.92 1.15 0.15 2.71 0.18 4.41-0.16 1.7-0.3 4.07-1.54 5.82-3.41 1.76-1.83 2.84-4.49 2.23-7.33-0.27-1.21-0.74-2.42-1.46-3.54q-1.06-1.68-2.89-3.07c-1.23-0.91-2.72-1.67-4.51-2.18-1.78-0.52-3.85-0.7-6.31-0.81q-2.19 0.28-4.24 0.54-1.02 0.13-1.98 0.26c-0.64 0.07-1.26 0.1-1.84 0.15-2.24 0.16-3.9 0.8-5.17 1.65-1.26 0.86-2.12 1.95-2.7 2.96-1.18 2.04-1.23 4.06-1.23 4.06 0 0-2.09 0.71-2.26 0.22 0.42-2.32 1.24-5.45 3.13-8.02 0.95-1.26 2.15-2.53 3.72-3.44 1.57-0.94 3.5-1.55 5.93-1.76 1.49-0.19 4.3-0.55 6.84-0.87 1.28-0.13 2.47-0.37 3.41-0.54 0.93-0.17 1.61-0.29 1.83-0.33q2.08-0.37 4.09-0.56c1.33-0.14 2.62-0.32 3.91-0.39 2.55-0.19 5.06-0.03 7.41 0.05q3.56 0.22 6.88 1.03 3.28 0.66 6.28 1.85 1.51 0.59 2.93 1.3 1.43 0.73 2.75 1.5 2.65 1.57 4.9 3.59c2.99 2.68 5.4 5.93 6.93 9.67 1.64 3.98 1.46 7.94-0.1 11.27q-0.59 1.25-1.41 2.37-0.41 0.56-0.88 1.08-0.47 0.5-1 0.94c-1.39 1.2-3.04 2.14-4.85 2.75-4.13 1.47-7.71 1.03-10.27-0.16-2.59-1.21-4.23-3.31-4.84-5.62-0.89-3.39-0.05-6.23 1.55-8.39 1.6-2.17 4-3.57 6.32-4.41z"/>
		</g>
	</g>
</svg>